M48
;DRILL file {KiCad 4.0.5+dfsg1-4} date Sun Dec 23 19:04:12 2018
;FORMAT={-:-/ absolute / metric / decimal}
FMAT,2
METRIC,TZ
T1C0.300
T2C0.400
T3C0.500
T4C0.550
T5C0.900
T6C1.000
T7C1.016
T8C2.300
T9C1.000
T10C1.100
T11C1.600
T12C2.700
%
G90
G05
M71
T1
X95.1Y-86.5
X95.8Y-86.5
X96.9Y-86.5
X97.6Y-86.5
X98.7Y-86.5
X99.4Y-86.5
X100.5Y-86.5
X101.2Y-86.5
X101.9Y-91.
X102.Y-86.5
X102.6Y-78.4
X102.6Y-86.2
X102.7Y-91.
X103.3Y-78.4
X104.4Y-82.
X104.4Y-86.3
X104.8Y-85.8
X105.1Y-82.
X105.2Y-90.4
X105.9Y-76.2
X106.Y-78.2
X106.4Y-88.1
X106.6Y-77.
X106.8Y-81.4
X107.9Y-63.7
X108.4Y-63.2
X108.9Y-62.7
X109.3Y-62.2
X109.4Y-87.8
X109.8Y-81.4
X109.8Y-98.6
X110.2Y-97.8
X110.4Y-55.2
X110.6Y-97.
X110.8Y-78.2
X110.8Y-90.2
X111.Y-60.6
X111.3Y-86.5
X111.6Y-60.
X112.Y-86.5
X112.2Y-59.4
X112.6Y-85.1
X112.8Y-58.8
X112.9Y-69.05
X113.1Y-86.5
X113.5Y-68.5
X113.8Y-86.5
X113.8Y-101.4
X114.7Y-68.5
X114.8Y-90.2
X114.9Y-86.5
X115.3Y-68.2
X115.6Y-86.5
X115.7Y-59.4
X116.Y-97.
X116.Y-99.
X116.7Y-86.5
X117.4Y-86.5
X117.8Y-67.5
X118.2Y-51.5
X118.2Y-53.6
X118.2Y-86.
X118.5Y-66.9
X118.6Y-99.8
X118.7Y-85.5
X119.Y-50.6
X119.Y-66.4
X119.2Y-84.9
X119.7Y-66.4
X120.2Y-57.
X120.3Y-86.5
X120.4Y-66.4
X120.85Y-49.5
X121.Y-55.2
X121.Y-86.5
X121.2Y-98.6
X121.5Y-54.8
X121.6Y-72.6
X122.Y-54.3
X122.Y-86.5
X122.2Y-99.2
X122.4Y-70.8
X122.4Y-78.4
X122.8Y-86.5
X123.Y-82.4
X123.1Y-78.4
X123.4Y-70.8
X124.2Y-99.2
X124.3Y-57.6
X124.3Y-58.5
X124.6Y-86.5
X124.8Y-57.1
X125.Y-81.4
X125.Y-101.4
X125.2Y-51.
X125.2Y-55.8
X125.2Y-85.6
X125.2Y-98.
X126.2Y-97.95
X127.2Y-102.6
X127.4Y-97.8
X127.6Y-104.6
X127.9Y-47.35
X128.6Y-98.6
X129.6Y-98.2
X130.2Y-100.2
X131.Y-100.8
X135.4Y-98.2
X136.Y-52.5
X137.4Y-93.4
X138.Y-98.4
X138.4Y-104.8
X138.5Y-97.9
X139.5Y-98.
X140.Y-97.6
X148.4Y-81.4
X149.Y-89.8
X149.6Y-90.2
X150.057Y-92.127
X150.2Y-90.6
X150.2Y-101.8
X150.517Y-91.668
X151.05Y-86.6
X151.45Y-81.4
X152.8Y-86.6
X153.1Y-81.4
X153.8Y-86.6
X154.2Y-81.4
X154.6Y-86.6
X154.8Y-78.2
X155.Y-81.4
X155.4Y-78.2
X155.4Y-86.6
X155.8Y-81.4
X156.4Y-86.6
X157.35Y-81.4
X157.4Y-47.6
X158.2Y-88.2
X158.5Y-79.8
X166.53Y-92.53
X167.6Y-49.6
X167.6Y-51.6
T2
X89.3Y-53.
X90.4Y-96.4
X91.5Y-63.
X91.8Y-86.6
X92.6Y-81.2
X94.4Y-75.2
X94.8Y-98.6
X95.1Y-51.4
X95.1Y-59.7
X97.8Y-90.8
X98.Y-103.6
X100.5Y-56.
X100.7Y-62.4
X101.2Y-70.35
X101.5Y-66.5
X103.4Y-100.4
X104.2Y-52.9
X104.6Y-96.5
X105.15Y-66.4
X106.Y-74.15
X108.9Y-94.1
X109.1Y-76.2
X109.2Y-73.1
X109.5Y-56.4
X110.3Y-70.5
X111.2Y-95.3
X115.9Y-94.7
X117.Y-105.2
X119.8Y-94.4
X120.Y-90.
X120.85Y-51.3
X123.05Y-52.15
X127.2Y-84.
X127.4Y-86.2
X128.4Y-75.7
X128.6Y-68.2
X129.15Y-52.5
X131.4Y-73.2
X131.9Y-85.8
X133.1Y-82.2
X133.6Y-73.9
X134.6Y-102.
X136.Y-65.
X137.7Y-76.5
X138.1Y-85.7
X138.2Y-59.6
X138.35Y-84.15
X138.6Y-103.8
X141.4Y-104.8
X142.2Y-61.2
X142.8Y-103.6
X143.Y-72.3
X143.2Y-81.8
X143.2Y-104.8
X146.Y-104.6
X146.3Y-75.8
X146.4Y-86.
X146.8Y-57.4
X147.Y-49.8
X147.5Y-67.8
X147.6Y-104.8
X147.8Y-103.8
X149.Y-94.
X149.4Y-92.8
X150.Y-45.6
X150.8Y-54.4
X151.Y-96.8
X151.2Y-72.2
X151.4Y-90.8
X151.8Y-102.4
X153.2Y-90.6
X154.2Y-101.6
X154.8Y-46.8
X155.Y-93.6
X155.2Y-59.
X155.6Y-68.6
X155.6Y-96.
X157.8Y-103.2
X157.8Y-104.8
X160.6Y-90.4
X161.Y-62.2
X161.2Y-76.6
X163.2Y-53.2
X163.7Y-85.2
X163.8Y-94.
X164.4Y-87.8
X166.6Y-103.8
X167.4Y-81.4
X168.25Y-77.6
X169.2Y-53.8
X169.2Y-77.6
X169.5Y-62.2
X170.2Y-62.4
X171.Y-68.4
X171.4Y-104.8
X172.2Y-93.6
X173.Y-45.6
X173.1Y-73.6
X173.4Y-56.
X173.6Y-69.2
X174.Y-65.
X175.4Y-50.8
X176.1Y-101.6
X176.6Y-81.4
X177.1Y-89.2
X177.3Y-95.4
X178.2Y-58.
X178.2Y-69.8
X179.Y-65.
T6
X167.7Y-88.49
X167.7Y-91.03
X167.7Y-93.06
X167.7Y-95.6
T7
X94.2Y-46.06
X94.2Y-48.6
X96.74Y-46.06
X96.74Y-48.6
X99.28Y-46.06
X99.28Y-48.6
X101.82Y-46.06
X101.82Y-48.6
X104.36Y-46.06
X104.36Y-48.6
X106.9Y-46.06
X106.9Y-48.6
X109.44Y-46.06
X109.44Y-48.6
X111.98Y-46.06
X111.98Y-48.6
X114.52Y-46.06
X114.52Y-48.6
X117.06Y-46.06
X117.06Y-48.6
X119.6Y-46.06
X119.6Y-48.6
X122.14Y-46.06
X122.14Y-48.6
X124.68Y-46.06
X124.68Y-48.6
X127.22Y-46.06
X127.22Y-48.6
X129.76Y-46.06
X129.76Y-48.6
X132.3Y-46.06
X132.3Y-48.6
X134.84Y-46.06
X134.84Y-48.6
X137.38Y-46.06
X137.38Y-48.6
X139.92Y-46.06
X139.92Y-48.6
X142.46Y-46.06
X142.46Y-48.6
T8
X170.37Y-85.44
X170.37Y-99.16
T9
X172.2Y-54.8
X177.2Y-49.8
X177.2Y-59.8
X179.7Y-49.8
X179.7Y-59.8
T10
X159.6Y-84.
T11
X92.8Y-84.
T12
X89.8Y-46.2
X89.8Y-104.2
X178.6Y-46.2
X178.6Y-104.2
T3
X172.575Y-49.8G85X171.825Y-49.8
G05
X172.575Y-52.3G85X171.825Y-52.3
G05
X172.575Y-57.3G85X171.825Y-57.3
G05
X172.575Y-59.8G85X171.825Y-59.8
G05
X177.2Y-54.425G85X177.2Y-55.175
G05
X178.275Y-71.3G85X177.625Y-71.3
G05
X178.275Y-78.3G85X177.625Y-78.3
G05
T4
X175.25Y-72.45G85X175.25Y-72.15
G05
X175.25Y-77.45G85X175.25Y-77.15
G05
T5
X117.95Y-95.86G85X117.95Y-97.66
G05
X117.95Y-102.32G85X117.95Y-103.12
G05
X132.45Y-95.86G85X132.45Y-97.66
G05
X132.45Y-102.32G85X132.45Y-103.12
G05
T0
M30
