G04 #@! TF.FileFunction,Soldermask,Bot*
%FSLAX46Y46*%
G04 Gerber Fmt 4.6, Leading zero omitted, Abs format (unit mm)*
G04 Created by KiCad (PCBNEW 4.0.5+dfsg1-4) date Sun Dec 23 19:03:49 2018*
%MOMM*%
%LPD*%
G01*
G04 APERTURE LIST*
%ADD10C,0.100000*%
%ADD11R,1.200000X1.300000*%
%ADD12R,1.300000X1.200000*%
%ADD13O,1.350000X1.650000*%
%ADD14O,1.950000X1.400000*%
%ADD15C,1.900000*%
%ADD16C,3.400000*%
%ADD17R,1.600000X1.300000*%
%ADD18R,1.000000X0.900000*%
%ADD19R,0.900000X1.000000*%
%ADD20O,1.900000X3.700000*%
%ADD21O,1.900000X2.700000*%
%ADD22C,3.100000*%
%ADD23R,1.300000X1.600000*%
%ADD24R,2.127200X2.127200*%
%ADD25O,2.127200X2.127200*%
%ADD26O,1.600000X2.350000*%
%ADD27O,2.350000X1.600000*%
G04 APERTURE END LIST*
D10*
D11*
X128250000Y-103400000D03*
X130150000Y-103400000D03*
X129200000Y-105400000D03*
X130150000Y-101600000D03*
X128250000Y-101600000D03*
X129200000Y-99600000D03*
D12*
X126200000Y-99650000D03*
X126200000Y-101550000D03*
X124200000Y-100600000D03*
X120000000Y-101550000D03*
X120000000Y-99650000D03*
X122000000Y-100600000D03*
D13*
X175250000Y-77300000D03*
X175250000Y-72300000D03*
D14*
X177950000Y-78300000D03*
X177950000Y-71300000D03*
D15*
X167700000Y-88490000D03*
X167700000Y-91030000D03*
X167700000Y-93060000D03*
X167700000Y-95600000D03*
D16*
X170370000Y-85440000D03*
X170370000Y-99160000D03*
D17*
X127100000Y-82200000D03*
X124900000Y-82200000D03*
X112700000Y-97000000D03*
X114900000Y-97000000D03*
X148300000Y-82200000D03*
X146100000Y-82200000D03*
X126300000Y-103400000D03*
X124100000Y-103400000D03*
X119900000Y-103400000D03*
X122100000Y-103400000D03*
D18*
X152550000Y-82000000D03*
X151450000Y-82000000D03*
X152150000Y-86000000D03*
X151050000Y-86000000D03*
X154950000Y-82000000D03*
X153850000Y-82000000D03*
X154550000Y-86000000D03*
X153450000Y-86000000D03*
X156250000Y-82000000D03*
X157350000Y-82000000D03*
X155850000Y-86000000D03*
X156950000Y-86000000D03*
D19*
X158800000Y-88750000D03*
X158800000Y-87650000D03*
X159100000Y-79250000D03*
X159100000Y-80350000D03*
D20*
X117950000Y-96760000D03*
X132450000Y-96760000D03*
D21*
X117950000Y-102720000D03*
X132450000Y-102720000D03*
D22*
X89800000Y-104200000D03*
X178600000Y-104200000D03*
X178600000Y-46200000D03*
X89800000Y-46200000D03*
D19*
X107100000Y-80350000D03*
X107100000Y-79250000D03*
X109600000Y-80350000D03*
X109600000Y-79250000D03*
X106800000Y-87550000D03*
X106800000Y-86450000D03*
X109200000Y-88650000D03*
X109200000Y-89750000D03*
D23*
X123600000Y-77300000D03*
X123600000Y-75100000D03*
X122000000Y-77300000D03*
X122000000Y-75100000D03*
X102200000Y-75050000D03*
X102200000Y-77250000D03*
X103750000Y-75050000D03*
X103750000Y-77250000D03*
D24*
X94200000Y-48600000D03*
D25*
X94200000Y-46060000D03*
X96740000Y-48600000D03*
X96740000Y-46060000D03*
X99280000Y-48600000D03*
X99280000Y-46060000D03*
X101820000Y-48600000D03*
X101820000Y-46060000D03*
X104360000Y-48600000D03*
X104360000Y-46060000D03*
X106900000Y-48600000D03*
X106900000Y-46060000D03*
X109440000Y-48600000D03*
X109440000Y-46060000D03*
X111980000Y-48600000D03*
X111980000Y-46060000D03*
X114520000Y-48600000D03*
X114520000Y-46060000D03*
X117060000Y-48600000D03*
X117060000Y-46060000D03*
X119600000Y-48600000D03*
X119600000Y-46060000D03*
X122140000Y-48600000D03*
X122140000Y-46060000D03*
X124680000Y-48600000D03*
X124680000Y-46060000D03*
X127220000Y-48600000D03*
X127220000Y-46060000D03*
X129760000Y-48600000D03*
X129760000Y-46060000D03*
X132300000Y-48600000D03*
X132300000Y-46060000D03*
X134840000Y-48600000D03*
X134840000Y-46060000D03*
X137380000Y-48600000D03*
X137380000Y-46060000D03*
X139920000Y-48600000D03*
X139920000Y-46060000D03*
X142460000Y-48600000D03*
X142460000Y-46060000D03*
D17*
X112700000Y-99000000D03*
X114900000Y-99000000D03*
D26*
X177200000Y-54800000D03*
D27*
X172200000Y-57300000D03*
X172200000Y-59800000D03*
X172200000Y-52300000D03*
X172200000Y-49800000D03*
M02*
