G04 #@! TF.FileFunction,Copper,L2,Inr,Plane*
%FSLAX46Y46*%
G04 Gerber Fmt 4.6, Leading zero omitted, Abs format (unit mm)*
G04 Created by KiCad (PCBNEW 4.0.5+dfsg1-4) date Sun Dec 23 19:03:49 2018*
%MOMM*%
%LPD*%
G01*
G04 APERTURE LIST*
%ADD10C,0.100000*%
%ADD11O,0.950000X1.250000*%
%ADD12O,1.550000X1.000000*%
%ADD13C,1.500000*%
%ADD14C,3.000000*%
%ADD15O,1.500000X3.300000*%
%ADD16O,1.500000X2.300000*%
%ADD17R,1.727200X1.727200*%
%ADD18O,1.727200X1.727200*%
%ADD19O,1.200000X1.950000*%
%ADD20O,1.950000X1.200000*%
%ADD21C,0.450000*%
%ADD22C,0.600000*%
%ADD23C,0.200000*%
G04 APERTURE END LIST*
D10*
D11*
X175250000Y-77300000D03*
X175250000Y-72300000D03*
D12*
X177950000Y-78300000D03*
X177950000Y-71300000D03*
D13*
X167700000Y-88490000D03*
X167700000Y-91030000D03*
X167700000Y-93060000D03*
X167700000Y-95600000D03*
D14*
X170370000Y-85440000D03*
X170370000Y-99160000D03*
D15*
X117950000Y-96760000D03*
X132450000Y-96760000D03*
D16*
X117950000Y-102720000D03*
X132450000Y-102720000D03*
D17*
X94200000Y-48600000D03*
D18*
X94200000Y-46060000D03*
X96740000Y-48600000D03*
X96740000Y-46060000D03*
X99280000Y-48600000D03*
X99280000Y-46060000D03*
X101820000Y-48600000D03*
X101820000Y-46060000D03*
X104360000Y-48600000D03*
X104360000Y-46060000D03*
X106900000Y-48600000D03*
X106900000Y-46060000D03*
X109440000Y-48600000D03*
X109440000Y-46060000D03*
X111980000Y-48600000D03*
X111980000Y-46060000D03*
X114520000Y-48600000D03*
X114520000Y-46060000D03*
X117060000Y-48600000D03*
X117060000Y-46060000D03*
X119600000Y-48600000D03*
X119600000Y-46060000D03*
X122140000Y-48600000D03*
X122140000Y-46060000D03*
X124680000Y-48600000D03*
X124680000Y-46060000D03*
X127220000Y-48600000D03*
X127220000Y-46060000D03*
X129760000Y-48600000D03*
X129760000Y-46060000D03*
X132300000Y-48600000D03*
X132300000Y-46060000D03*
X134840000Y-48600000D03*
X134840000Y-46060000D03*
X137380000Y-48600000D03*
X137380000Y-46060000D03*
X139920000Y-48600000D03*
X139920000Y-46060000D03*
X142460000Y-48600000D03*
X142460000Y-46060000D03*
D19*
X177200000Y-54800000D03*
D20*
X172200000Y-57300000D03*
X172200000Y-59800000D03*
X172200000Y-52300000D03*
X172200000Y-49800000D03*
D21*
X152800000Y-86600000D03*
X153100000Y-81400000D03*
D22*
X173400000Y-56000000D03*
X163200000Y-53200000D03*
X169200000Y-53800000D03*
X178200000Y-58000000D03*
X175400000Y-50800000D03*
X173000000Y-45600000D03*
X150000000Y-45600000D03*
X147000000Y-49800000D03*
X150800000Y-54400000D03*
X138200000Y-59600000D03*
X146800000Y-57400000D03*
X128600000Y-68200000D03*
X142200000Y-61200000D03*
X131400000Y-73200000D03*
X136000000Y-65000000D03*
X138350000Y-84150000D03*
X127200000Y-84000000D03*
X104600000Y-96500000D03*
X92600000Y-81200000D03*
X97800000Y-90800000D03*
X109500000Y-56400000D03*
X95100000Y-51400000D03*
X101500000Y-66500000D03*
X100700000Y-62400000D03*
X104200000Y-52900000D03*
X100500000Y-56000000D03*
X95100000Y-59700000D03*
X91500000Y-63000000D03*
X94400000Y-75200000D03*
X89300000Y-53000000D03*
X147500000Y-67800000D03*
X133600000Y-73900000D03*
X137700000Y-76500000D03*
X143000000Y-72300000D03*
X146300000Y-75800000D03*
X143200000Y-81800000D03*
X127400000Y-86200000D03*
X131900000Y-85800000D03*
X133100000Y-82200000D03*
D21*
X112600000Y-85100000D03*
X119200000Y-84900000D03*
D22*
X91800000Y-86600000D03*
X120000000Y-90000000D03*
D21*
X137400000Y-93400000D03*
D22*
X90400000Y-96400000D03*
X146400000Y-86000000D03*
X138100000Y-85700000D03*
X151200000Y-72200000D03*
X98000000Y-103600000D03*
X103400000Y-100400000D03*
X94800000Y-98600000D03*
X128400000Y-75700000D03*
D21*
X156400000Y-86600000D03*
D22*
X123050000Y-52150000D03*
D21*
X120850000Y-49500000D03*
D22*
X120850000Y-51300000D03*
X129150000Y-52500000D03*
X109100000Y-76200000D03*
X106000000Y-74150000D03*
X110300000Y-70500000D03*
X105150000Y-66400000D03*
X109200000Y-73100000D03*
X101200000Y-70350000D03*
D21*
X106000000Y-78200000D03*
X154200000Y-81400000D03*
X110800000Y-90200000D03*
D22*
X171400000Y-104800000D03*
X173100000Y-73600000D03*
X154800000Y-46800000D03*
X108900000Y-94100000D03*
X111200000Y-95300000D03*
X154200000Y-101600000D03*
X157800000Y-103200000D03*
X157800000Y-104800000D03*
X174000000Y-65000000D03*
X178200000Y-69800000D03*
X171000000Y-68400000D03*
X163800000Y-94000000D03*
X160600000Y-90400000D03*
X164400000Y-87800000D03*
X155600000Y-96000000D03*
X151400000Y-90800000D03*
X149400000Y-92800000D03*
X151000000Y-96800000D03*
X155000000Y-93600000D03*
X149000000Y-94000000D03*
D21*
X157350000Y-81400000D03*
X110800000Y-78200000D03*
D22*
X166600000Y-103800000D03*
X176100000Y-101600000D03*
X177300000Y-95400000D03*
X163700000Y-85200000D03*
X177100000Y-89200000D03*
X115900000Y-94700000D03*
X119800000Y-94400000D03*
X176600000Y-81400000D03*
X167400000Y-81400000D03*
X161000000Y-62200000D03*
X155600000Y-68600000D03*
X161200000Y-76600000D03*
X155200000Y-59000000D03*
X173600000Y-69200000D03*
X179000000Y-65000000D03*
X143200000Y-104800000D03*
X151800000Y-102400000D03*
X153200000Y-90600000D03*
X172200000Y-93600000D03*
D21*
X135400000Y-98200000D03*
D22*
X117000000Y-105200000D03*
D21*
X127400000Y-97800000D03*
X125200000Y-98000000D03*
X129600000Y-98200000D03*
D22*
X147600000Y-104800000D03*
X138600000Y-103800000D03*
X141400000Y-104800000D03*
X142800000Y-103600000D03*
X146000000Y-104600000D03*
X147800000Y-103800000D03*
X134600000Y-102000000D03*
D21*
X151450000Y-81400000D03*
X151050000Y-86600000D03*
X153800000Y-86600000D03*
X126200000Y-97950000D03*
X155400000Y-78200000D03*
X157400000Y-47600000D03*
X110600000Y-97000000D03*
X110200000Y-97800000D03*
X127900000Y-47350000D03*
X106400000Y-88100000D03*
X109400000Y-87800000D03*
X118200000Y-53600000D03*
X154800000Y-78200000D03*
X109800000Y-81400000D03*
X106800000Y-81400000D03*
X127200000Y-102600000D03*
X155000000Y-81400000D03*
X154600000Y-86600000D03*
X150200000Y-101800000D03*
X138400000Y-104800000D03*
X155800000Y-81400000D03*
X155400000Y-86600000D03*
D22*
X169500000Y-62200000D03*
X168250000Y-77600000D03*
X169200000Y-77600000D03*
X170200000Y-62400000D03*
D21*
X158500000Y-79800000D03*
X127600000Y-104600000D03*
X158200000Y-88200000D03*
X118600000Y-99800000D03*
X121200000Y-98600000D03*
X116000000Y-97000000D03*
X149000000Y-89800000D03*
X128600000Y-98600000D03*
X125000000Y-101400000D03*
X131000000Y-100800000D03*
X150200000Y-90600000D03*
X124200000Y-99200000D03*
X130200000Y-100200000D03*
X149600000Y-90200000D03*
X122200000Y-99200000D03*
X105900000Y-76200000D03*
X138000000Y-98400000D03*
X101900000Y-91000000D03*
X102600000Y-78400000D03*
X106600000Y-77000000D03*
X102700000Y-91000000D03*
X138500000Y-97900000D03*
X103300000Y-78400000D03*
X104400000Y-82000000D03*
X139500000Y-98000000D03*
X105100000Y-82000000D03*
X140000000Y-97600000D03*
X105200000Y-90400000D03*
X123000000Y-82400000D03*
X113800000Y-101400000D03*
X109800000Y-98600000D03*
X125000000Y-81400000D03*
X114800000Y-90200000D03*
X148400000Y-81400000D03*
X166530000Y-92530000D03*
X150057037Y-92127479D03*
X150516655Y-91667861D03*
X122400000Y-78400000D03*
X122400000Y-70800000D03*
X123100000Y-78400000D03*
X96900000Y-86500000D03*
X97600000Y-86500000D03*
X98700000Y-86500000D03*
X99400000Y-86500000D03*
X100500000Y-86500000D03*
X120200000Y-57000000D03*
X115700000Y-59400000D03*
X101200000Y-86500000D03*
X125200000Y-51000000D03*
X125200000Y-55800000D03*
X102000000Y-86500000D03*
X102600000Y-86200000D03*
X121500000Y-54800000D03*
X124300000Y-57600000D03*
X124300000Y-58500000D03*
X104400000Y-86300000D03*
X121000000Y-55200000D03*
X119000000Y-50600000D03*
X122000000Y-54300000D03*
X124800000Y-57100000D03*
X104800000Y-85800000D03*
X111300000Y-86500000D03*
X112000000Y-86500000D03*
X107900000Y-63700000D03*
X112900000Y-69050000D03*
X113100000Y-86500000D03*
X108400000Y-63200000D03*
X113500000Y-68500000D03*
X113800000Y-86500000D03*
X114900000Y-86500000D03*
X115600000Y-86500000D03*
X114700000Y-68500000D03*
X108900000Y-62700000D03*
X116700000Y-86500000D03*
X115300000Y-68200000D03*
X109300000Y-62200000D03*
X117400000Y-86500000D03*
X118200000Y-86000000D03*
X118700000Y-85500000D03*
X111000000Y-60600000D03*
X117800000Y-67500000D03*
X120300000Y-86500000D03*
X111600000Y-60000000D03*
X118500000Y-66900000D03*
X121000000Y-86500000D03*
X112200000Y-59400000D03*
X119000000Y-66400000D03*
X122000000Y-86500000D03*
X122800000Y-86500000D03*
X119700000Y-66400000D03*
X112800000Y-58800000D03*
X136000000Y-52500000D03*
X125200000Y-85600000D03*
X124600000Y-86500000D03*
X120400000Y-66400000D03*
X110400000Y-55200000D03*
X118200000Y-51500000D03*
X95100000Y-86500000D03*
X95800000Y-86500000D03*
X116000000Y-99000000D03*
X167600000Y-51600000D03*
X167600000Y-49600000D03*
X121600000Y-72600000D03*
X123400000Y-70800000D03*
D23*
G36*
X179399541Y-44552583D02*
X179907806Y-44892194D01*
X180247418Y-45400460D01*
X180375000Y-46041860D01*
X180375000Y-49273048D01*
X180182115Y-49079826D01*
X179869817Y-48950148D01*
X179531666Y-48949853D01*
X179219143Y-49078985D01*
X178979826Y-49317885D01*
X178850148Y-49630183D01*
X178849853Y-49968334D01*
X178978985Y-50280857D01*
X179217885Y-50520174D01*
X179530183Y-50649852D01*
X179868334Y-50650147D01*
X180180857Y-50521015D01*
X180375000Y-50327210D01*
X180375000Y-59273048D01*
X180182115Y-59079826D01*
X179869817Y-58950148D01*
X179531666Y-58949853D01*
X179219143Y-59078985D01*
X178979826Y-59317885D01*
X178850148Y-59630183D01*
X178849853Y-59968334D01*
X178978985Y-60280857D01*
X179217885Y-60520174D01*
X179530183Y-60649852D01*
X179868334Y-60650147D01*
X180180857Y-60521015D01*
X180375000Y-60327210D01*
X180375000Y-104358140D01*
X180247418Y-104999540D01*
X179907806Y-105507806D01*
X179399541Y-105847417D01*
X178758140Y-105975000D01*
X89641860Y-105975000D01*
X89000460Y-105847418D01*
X88492194Y-105507806D01*
X88152583Y-104999541D01*
X88060512Y-104536667D01*
X88099706Y-104536667D01*
X88357970Y-105161715D01*
X88835770Y-105640350D01*
X89460366Y-105899704D01*
X90136667Y-105900294D01*
X90761715Y-105642030D01*
X91240350Y-105164230D01*
X91427353Y-104713873D01*
X127024900Y-104713873D01*
X127112254Y-104925286D01*
X127273863Y-105087177D01*
X127485124Y-105174900D01*
X127713873Y-105175100D01*
X127925286Y-105087746D01*
X128087177Y-104926137D01*
X128092269Y-104913873D01*
X137824900Y-104913873D01*
X137912254Y-105125286D01*
X138073863Y-105287177D01*
X138285124Y-105374900D01*
X138513873Y-105375100D01*
X138725286Y-105287746D01*
X138887177Y-105126137D01*
X138974900Y-104914876D01*
X138975100Y-104686127D01*
X138913345Y-104536667D01*
X176899706Y-104536667D01*
X177157970Y-105161715D01*
X177635770Y-105640350D01*
X178260366Y-105899704D01*
X178936667Y-105900294D01*
X179561715Y-105642030D01*
X180040350Y-105164230D01*
X180299704Y-104539634D01*
X180300294Y-103863333D01*
X180042030Y-103238285D01*
X179564230Y-102759650D01*
X178939634Y-102500296D01*
X178263333Y-102499706D01*
X177638285Y-102757970D01*
X177159650Y-103235770D01*
X176900296Y-103860366D01*
X176899706Y-104536667D01*
X138913345Y-104536667D01*
X138887746Y-104474714D01*
X138726137Y-104312823D01*
X138514876Y-104225100D01*
X138286127Y-104224900D01*
X138074714Y-104312254D01*
X137912823Y-104473863D01*
X137825100Y-104685124D01*
X137824900Y-104913873D01*
X128092269Y-104913873D01*
X128174900Y-104714876D01*
X128175100Y-104486127D01*
X128087746Y-104274714D01*
X127926137Y-104112823D01*
X127714876Y-104025100D01*
X127486127Y-104024900D01*
X127274714Y-104112254D01*
X127112823Y-104273863D01*
X127025100Y-104485124D01*
X127024900Y-104713873D01*
X91427353Y-104713873D01*
X91499704Y-104539634D01*
X91500294Y-103863333D01*
X91242030Y-103238285D01*
X90874388Y-102870000D01*
X116600000Y-102870000D01*
X116600000Y-103270000D01*
X116760165Y-103775205D01*
X117101472Y-104180661D01*
X117591968Y-104421658D01*
X117800000Y-104310588D01*
X117800000Y-102870000D01*
X118100000Y-102870000D01*
X118100000Y-104310588D01*
X118308032Y-104421658D01*
X118798528Y-104180661D01*
X119139835Y-103775205D01*
X119300000Y-103270000D01*
X119300000Y-102870000D01*
X118100000Y-102870000D01*
X117800000Y-102870000D01*
X116600000Y-102870000D01*
X90874388Y-102870000D01*
X90764230Y-102759650D01*
X90653987Y-102713873D01*
X126624900Y-102713873D01*
X126712254Y-102925286D01*
X126873863Y-103087177D01*
X127085124Y-103174900D01*
X127313873Y-103175100D01*
X127525286Y-103087746D01*
X127687177Y-102926137D01*
X127710487Y-102870000D01*
X131100000Y-102870000D01*
X131100000Y-103270000D01*
X131260165Y-103775205D01*
X131601472Y-104180661D01*
X132091968Y-104421658D01*
X132300000Y-104310588D01*
X132300000Y-102870000D01*
X132600000Y-102870000D01*
X132600000Y-104310588D01*
X132808032Y-104421658D01*
X133298528Y-104180661D01*
X133639835Y-103775205D01*
X133800000Y-103270000D01*
X133800000Y-102870000D01*
X132600000Y-102870000D01*
X132300000Y-102870000D01*
X131100000Y-102870000D01*
X127710487Y-102870000D01*
X127774900Y-102714876D01*
X127775100Y-102486127D01*
X127687746Y-102274714D01*
X127583215Y-102170000D01*
X131100000Y-102170000D01*
X131100000Y-102570000D01*
X132300000Y-102570000D01*
X132300000Y-101129412D01*
X132600000Y-101129412D01*
X132600000Y-102570000D01*
X133800000Y-102570000D01*
X133800000Y-102170000D01*
X133718801Y-101913873D01*
X149624900Y-101913873D01*
X149712254Y-102125286D01*
X149873863Y-102287177D01*
X150085124Y-102374900D01*
X150313873Y-102375100D01*
X150525286Y-102287746D01*
X150687177Y-102126137D01*
X150774900Y-101914876D01*
X150775100Y-101686127D01*
X150687746Y-101474714D01*
X150526137Y-101312823D01*
X150314876Y-101225100D01*
X150086127Y-101224900D01*
X149874714Y-101312254D01*
X149712823Y-101473863D01*
X149625100Y-101685124D01*
X149624900Y-101913873D01*
X133718801Y-101913873D01*
X133639835Y-101664795D01*
X133298528Y-101259339D01*
X132808032Y-101018342D01*
X132600000Y-101129412D01*
X132300000Y-101129412D01*
X132091968Y-101018342D01*
X131601472Y-101259339D01*
X131260165Y-101664795D01*
X131100000Y-102170000D01*
X127583215Y-102170000D01*
X127526137Y-102112823D01*
X127314876Y-102025100D01*
X127086127Y-102024900D01*
X126874714Y-102112254D01*
X126712823Y-102273863D01*
X126625100Y-102485124D01*
X126624900Y-102713873D01*
X90653987Y-102713873D01*
X90139634Y-102500296D01*
X89463333Y-102499706D01*
X88838285Y-102757970D01*
X88359650Y-103235770D01*
X88100296Y-103860366D01*
X88099706Y-104536667D01*
X88060512Y-104536667D01*
X88025000Y-104358140D01*
X88025000Y-102170000D01*
X116600000Y-102170000D01*
X116600000Y-102570000D01*
X117800000Y-102570000D01*
X117800000Y-101129412D01*
X118100000Y-101129412D01*
X118100000Y-102570000D01*
X119300000Y-102570000D01*
X119300000Y-102170000D01*
X119139835Y-101664795D01*
X119012792Y-101513873D01*
X124424900Y-101513873D01*
X124512254Y-101725286D01*
X124673863Y-101887177D01*
X124885124Y-101974900D01*
X125113873Y-101975100D01*
X125325286Y-101887746D01*
X125487177Y-101726137D01*
X125574900Y-101514876D01*
X125575100Y-101286127D01*
X125487746Y-101074714D01*
X125326137Y-100912823D01*
X125114876Y-100825100D01*
X124886127Y-100824900D01*
X124674714Y-100912254D01*
X124512823Y-101073863D01*
X124425100Y-101285124D01*
X124424900Y-101513873D01*
X119012792Y-101513873D01*
X118798528Y-101259339D01*
X118308032Y-101018342D01*
X118100000Y-101129412D01*
X117800000Y-101129412D01*
X117591968Y-101018342D01*
X117101472Y-101259339D01*
X116760165Y-101664795D01*
X116600000Y-102170000D01*
X88025000Y-102170000D01*
X88025000Y-101513873D01*
X113224900Y-101513873D01*
X113312254Y-101725286D01*
X113473863Y-101887177D01*
X113685124Y-101974900D01*
X113913873Y-101975100D01*
X114125286Y-101887746D01*
X114287177Y-101726137D01*
X114374900Y-101514876D01*
X114375100Y-101286127D01*
X114287746Y-101074714D01*
X114126137Y-100912823D01*
X113914876Y-100825100D01*
X113686127Y-100824900D01*
X113474714Y-100912254D01*
X113312823Y-101073863D01*
X113225100Y-101285124D01*
X113224900Y-101513873D01*
X88025000Y-101513873D01*
X88025000Y-99913873D01*
X118024900Y-99913873D01*
X118112254Y-100125286D01*
X118273863Y-100287177D01*
X118485124Y-100374900D01*
X118713873Y-100375100D01*
X118862053Y-100313873D01*
X129624900Y-100313873D01*
X129712254Y-100525286D01*
X129873863Y-100687177D01*
X130085124Y-100774900D01*
X130313873Y-100775100D01*
X130425062Y-100729158D01*
X130424900Y-100913873D01*
X130512254Y-101125286D01*
X130673863Y-101287177D01*
X130885124Y-101374900D01*
X131113873Y-101375100D01*
X131325286Y-101287746D01*
X131487177Y-101126137D01*
X131574900Y-100914876D01*
X131575100Y-100686127D01*
X131568443Y-100670015D01*
X169072118Y-100670015D01*
X169235913Y-100976131D01*
X170017244Y-101271883D01*
X170852278Y-101246119D01*
X171504087Y-100976131D01*
X171667882Y-100670015D01*
X170370000Y-99372132D01*
X169072118Y-100670015D01*
X131568443Y-100670015D01*
X131487746Y-100474714D01*
X131326137Y-100312823D01*
X131114876Y-100225100D01*
X130886127Y-100224900D01*
X130774938Y-100270842D01*
X130775100Y-100086127D01*
X130687746Y-99874714D01*
X130526137Y-99712823D01*
X130314876Y-99625100D01*
X130086127Y-99624900D01*
X129874714Y-99712254D01*
X129712823Y-99873863D01*
X129625100Y-100085124D01*
X129624900Y-100313873D01*
X118862053Y-100313873D01*
X118925286Y-100287746D01*
X119087177Y-100126137D01*
X119174900Y-99914876D01*
X119175100Y-99686127D01*
X119087746Y-99474714D01*
X118927186Y-99313873D01*
X121624900Y-99313873D01*
X121712254Y-99525286D01*
X121873863Y-99687177D01*
X122085124Y-99774900D01*
X122313873Y-99775100D01*
X122525286Y-99687746D01*
X122687177Y-99526137D01*
X122774900Y-99314876D01*
X122774900Y-99313873D01*
X123624900Y-99313873D01*
X123712254Y-99525286D01*
X123873863Y-99687177D01*
X124085124Y-99774900D01*
X124313873Y-99775100D01*
X124525286Y-99687746D01*
X124687177Y-99526137D01*
X124774900Y-99314876D01*
X124775100Y-99086127D01*
X124687746Y-98874714D01*
X124527186Y-98713873D01*
X128024900Y-98713873D01*
X128112254Y-98925286D01*
X128273863Y-99087177D01*
X128485124Y-99174900D01*
X128713873Y-99175100D01*
X128925286Y-99087746D01*
X129087177Y-98926137D01*
X129174900Y-98714876D01*
X129175100Y-98486127D01*
X129087746Y-98274714D01*
X128926137Y-98112823D01*
X128714876Y-98025100D01*
X128486127Y-98024900D01*
X128274714Y-98112254D01*
X128112823Y-98273863D01*
X128025100Y-98485124D01*
X128024900Y-98713873D01*
X124527186Y-98713873D01*
X124526137Y-98712823D01*
X124314876Y-98625100D01*
X124086127Y-98624900D01*
X123874714Y-98712254D01*
X123712823Y-98873863D01*
X123625100Y-99085124D01*
X123624900Y-99313873D01*
X122774900Y-99313873D01*
X122775100Y-99086127D01*
X122687746Y-98874714D01*
X122526137Y-98712823D01*
X122314876Y-98625100D01*
X122086127Y-98624900D01*
X121874714Y-98712254D01*
X121712823Y-98873863D01*
X121625100Y-99085124D01*
X121624900Y-99313873D01*
X118927186Y-99313873D01*
X118926137Y-99312823D01*
X118714876Y-99225100D01*
X118486127Y-99224900D01*
X118274714Y-99312254D01*
X118112823Y-99473863D01*
X118025100Y-99685124D01*
X118024900Y-99913873D01*
X88025000Y-99913873D01*
X88025000Y-98713873D01*
X109224900Y-98713873D01*
X109312254Y-98925286D01*
X109473863Y-99087177D01*
X109685124Y-99174900D01*
X109913873Y-99175100D01*
X110062053Y-99113873D01*
X115424900Y-99113873D01*
X115512254Y-99325286D01*
X115673863Y-99487177D01*
X115885124Y-99574900D01*
X116113873Y-99575100D01*
X116325286Y-99487746D01*
X116487177Y-99326137D01*
X116574900Y-99114876D01*
X116575100Y-98886127D01*
X116487746Y-98674714D01*
X116326137Y-98512823D01*
X116114876Y-98425100D01*
X115886127Y-98424900D01*
X115674714Y-98512254D01*
X115512823Y-98673863D01*
X115425100Y-98885124D01*
X115424900Y-99113873D01*
X110062053Y-99113873D01*
X110125286Y-99087746D01*
X110287177Y-98926137D01*
X110374900Y-98714876D01*
X110375100Y-98486127D01*
X110326986Y-98369682D01*
X110525286Y-98287746D01*
X110687177Y-98126137D01*
X110774900Y-97914876D01*
X110775100Y-97686127D01*
X110726986Y-97569682D01*
X110925286Y-97487746D01*
X111087177Y-97326137D01*
X111174900Y-97114876D01*
X111174900Y-97113873D01*
X115424900Y-97113873D01*
X115512254Y-97325286D01*
X115673863Y-97487177D01*
X115885124Y-97574900D01*
X116113873Y-97575100D01*
X116325286Y-97487746D01*
X116487177Y-97326137D01*
X116574900Y-97114876D01*
X116575079Y-96910000D01*
X116600000Y-96910000D01*
X116600000Y-97810000D01*
X116760165Y-98315205D01*
X117101472Y-98720661D01*
X117591968Y-98961658D01*
X117800000Y-98850588D01*
X117800000Y-96910000D01*
X118100000Y-96910000D01*
X118100000Y-98850588D01*
X118308032Y-98961658D01*
X118798528Y-98720661D01*
X118804242Y-98713873D01*
X120624900Y-98713873D01*
X120712254Y-98925286D01*
X120873863Y-99087177D01*
X121085124Y-99174900D01*
X121313873Y-99175100D01*
X121525286Y-99087746D01*
X121687177Y-98926137D01*
X121774900Y-98714876D01*
X121775100Y-98486127D01*
X121687746Y-98274714D01*
X121526137Y-98112823D01*
X121314876Y-98025100D01*
X121086127Y-98024900D01*
X120874714Y-98112254D01*
X120712823Y-98273863D01*
X120625100Y-98485124D01*
X120624900Y-98713873D01*
X118804242Y-98713873D01*
X119139835Y-98315205D01*
X119300000Y-97810000D01*
X119300000Y-96910000D01*
X131100000Y-96910000D01*
X131100000Y-97810000D01*
X131260165Y-98315205D01*
X131601472Y-98720661D01*
X132091968Y-98961658D01*
X132300000Y-98850588D01*
X132300000Y-96910000D01*
X132600000Y-96910000D01*
X132600000Y-98850588D01*
X132808032Y-98961658D01*
X133298528Y-98720661D01*
X133472599Y-98513873D01*
X137424900Y-98513873D01*
X137512254Y-98725286D01*
X137673863Y-98887177D01*
X137885124Y-98974900D01*
X138113873Y-98975100D01*
X138325286Y-98887746D01*
X138405928Y-98807244D01*
X168258117Y-98807244D01*
X168283881Y-99642278D01*
X168553869Y-100294087D01*
X168859985Y-100457882D01*
X170157868Y-99160000D01*
X170582132Y-99160000D01*
X171880015Y-100457882D01*
X172186131Y-100294087D01*
X172481883Y-99512756D01*
X172456119Y-98677722D01*
X172186131Y-98025913D01*
X171880015Y-97862118D01*
X170582132Y-99160000D01*
X170157868Y-99160000D01*
X168859985Y-97862118D01*
X168553869Y-98025913D01*
X168258117Y-98807244D01*
X138405928Y-98807244D01*
X138487177Y-98726137D01*
X138574900Y-98514876D01*
X138574935Y-98475066D01*
X138613873Y-98475100D01*
X138825286Y-98387746D01*
X138975927Y-98237368D01*
X139012254Y-98325286D01*
X139173863Y-98487177D01*
X139385124Y-98574900D01*
X139613873Y-98575100D01*
X139825286Y-98487746D01*
X139987177Y-98326137D01*
X140049916Y-98175044D01*
X140113873Y-98175100D01*
X140325286Y-98087746D01*
X140487177Y-97926137D01*
X140574900Y-97714876D01*
X140574956Y-97649985D01*
X169072118Y-97649985D01*
X170370000Y-98947868D01*
X171667882Y-97649985D01*
X171504087Y-97343869D01*
X170722756Y-97048117D01*
X169887722Y-97073881D01*
X169235913Y-97343869D01*
X169072118Y-97649985D01*
X140574956Y-97649985D01*
X140575100Y-97486127D01*
X140487746Y-97274714D01*
X140326137Y-97112823D01*
X140114876Y-97025100D01*
X139886127Y-97024900D01*
X139674714Y-97112254D01*
X139512823Y-97273863D01*
X139450084Y-97424956D01*
X139386127Y-97424900D01*
X139174714Y-97512254D01*
X139024073Y-97662632D01*
X138987746Y-97574714D01*
X138826137Y-97412823D01*
X138614876Y-97325100D01*
X138386127Y-97324900D01*
X138174714Y-97412254D01*
X138012823Y-97573863D01*
X137925100Y-97785124D01*
X137925065Y-97824934D01*
X137886127Y-97824900D01*
X137674714Y-97912254D01*
X137512823Y-98073863D01*
X137425100Y-98285124D01*
X137424900Y-98513873D01*
X133472599Y-98513873D01*
X133639835Y-98315205D01*
X133800000Y-97810000D01*
X133800000Y-96910000D01*
X132600000Y-96910000D01*
X132300000Y-96910000D01*
X131100000Y-96910000D01*
X119300000Y-96910000D01*
X118100000Y-96910000D01*
X117800000Y-96910000D01*
X116600000Y-96910000D01*
X116575079Y-96910000D01*
X116575100Y-96886127D01*
X116487746Y-96674714D01*
X116326137Y-96512823D01*
X116114876Y-96425100D01*
X115886127Y-96424900D01*
X115674714Y-96512254D01*
X115512823Y-96673863D01*
X115425100Y-96885124D01*
X115424900Y-97113873D01*
X111174900Y-97113873D01*
X111175100Y-96886127D01*
X111087746Y-96674714D01*
X110926137Y-96512823D01*
X110714876Y-96425100D01*
X110486127Y-96424900D01*
X110274714Y-96512254D01*
X110112823Y-96673863D01*
X110025100Y-96885124D01*
X110024900Y-97113873D01*
X110073014Y-97230318D01*
X109874714Y-97312254D01*
X109712823Y-97473863D01*
X109625100Y-97685124D01*
X109624900Y-97913873D01*
X109673014Y-98030318D01*
X109474714Y-98112254D01*
X109312823Y-98273863D01*
X109225100Y-98485124D01*
X109224900Y-98713873D01*
X88025000Y-98713873D01*
X88025000Y-95710000D01*
X116600000Y-95710000D01*
X116600000Y-96610000D01*
X117800000Y-96610000D01*
X117800000Y-94669412D01*
X118100000Y-94669412D01*
X118100000Y-96610000D01*
X119300000Y-96610000D01*
X119300000Y-95710000D01*
X131100000Y-95710000D01*
X131100000Y-96610000D01*
X132300000Y-96610000D01*
X132300000Y-94669412D01*
X132600000Y-94669412D01*
X132600000Y-96610000D01*
X133800000Y-96610000D01*
X133800000Y-95817844D01*
X166599810Y-95817844D01*
X166766922Y-96222286D01*
X167076087Y-96531991D01*
X167480237Y-96699808D01*
X167917844Y-96700190D01*
X168322286Y-96533078D01*
X168631991Y-96223913D01*
X168799808Y-95819763D01*
X168800190Y-95382156D01*
X168633078Y-94977714D01*
X168323913Y-94668009D01*
X167919763Y-94500192D01*
X167482156Y-94499810D01*
X167077714Y-94666922D01*
X166768009Y-94976087D01*
X166600192Y-95380237D01*
X166599810Y-95817844D01*
X133800000Y-95817844D01*
X133800000Y-95710000D01*
X133639835Y-95204795D01*
X133298528Y-94799339D01*
X132808032Y-94558342D01*
X132600000Y-94669412D01*
X132300000Y-94669412D01*
X132091968Y-94558342D01*
X131601472Y-94799339D01*
X131260165Y-95204795D01*
X131100000Y-95710000D01*
X119300000Y-95710000D01*
X119139835Y-95204795D01*
X118798528Y-94799339D01*
X118308032Y-94558342D01*
X118100000Y-94669412D01*
X117800000Y-94669412D01*
X117591968Y-94558342D01*
X117101472Y-94799339D01*
X116760165Y-95204795D01*
X116600000Y-95710000D01*
X88025000Y-95710000D01*
X88025000Y-91113873D01*
X101324900Y-91113873D01*
X101412254Y-91325286D01*
X101573863Y-91487177D01*
X101785124Y-91574900D01*
X102013873Y-91575100D01*
X102225286Y-91487746D01*
X102299989Y-91413174D01*
X102373863Y-91487177D01*
X102585124Y-91574900D01*
X102813873Y-91575100D01*
X103025286Y-91487746D01*
X103187177Y-91326137D01*
X103274900Y-91114876D01*
X103275100Y-90886127D01*
X103187746Y-90674714D01*
X103027186Y-90513873D01*
X104624900Y-90513873D01*
X104712254Y-90725286D01*
X104873863Y-90887177D01*
X105085124Y-90974900D01*
X105313873Y-90975100D01*
X105525286Y-90887746D01*
X105687177Y-90726137D01*
X105774900Y-90514876D01*
X105775075Y-90313873D01*
X114224900Y-90313873D01*
X114312254Y-90525286D01*
X114473863Y-90687177D01*
X114685124Y-90774900D01*
X114913873Y-90775100D01*
X115125286Y-90687746D01*
X115287177Y-90526137D01*
X115374900Y-90314876D01*
X115375100Y-90086127D01*
X115303927Y-89913873D01*
X148424900Y-89913873D01*
X148512254Y-90125286D01*
X148673863Y-90287177D01*
X148885124Y-90374900D01*
X149050175Y-90375044D01*
X149112254Y-90525286D01*
X149273863Y-90687177D01*
X149485124Y-90774900D01*
X149650175Y-90775044D01*
X149712254Y-90925286D01*
X149873863Y-91087177D01*
X150085124Y-91174900D01*
X150203739Y-91175004D01*
X150191369Y-91180115D01*
X150029478Y-91341724D01*
X149941767Y-91552956D01*
X149731751Y-91639733D01*
X149569860Y-91801342D01*
X149482137Y-92012603D01*
X149481937Y-92241352D01*
X149569291Y-92452765D01*
X149730900Y-92614656D01*
X149942161Y-92702379D01*
X150170910Y-92702579D01*
X150312989Y-92643873D01*
X165954900Y-92643873D01*
X166042254Y-92855286D01*
X166203863Y-93017177D01*
X166415124Y-93104900D01*
X166599961Y-93105062D01*
X166599810Y-93277844D01*
X166766922Y-93682286D01*
X167076087Y-93991991D01*
X167480237Y-94159808D01*
X167917844Y-94160190D01*
X168322286Y-93993078D01*
X168631991Y-93683913D01*
X168799808Y-93279763D01*
X168800190Y-92842156D01*
X168633078Y-92437714D01*
X168323913Y-92128009D01*
X168124012Y-92045003D01*
X168322286Y-91963078D01*
X168631991Y-91653913D01*
X168799808Y-91249763D01*
X168800190Y-90812156D01*
X168633078Y-90407714D01*
X168323913Y-90098009D01*
X167919763Y-89930192D01*
X167482156Y-89929810D01*
X167077714Y-90096922D01*
X166768009Y-90406087D01*
X166600192Y-90810237D01*
X166599810Y-91247844D01*
X166766922Y-91652286D01*
X167076087Y-91961991D01*
X167275988Y-92044997D01*
X167077714Y-92126922D01*
X167008782Y-92195734D01*
X166856137Y-92042823D01*
X166644876Y-91955100D01*
X166416127Y-91954900D01*
X166204714Y-92042254D01*
X166042823Y-92203863D01*
X165955100Y-92415124D01*
X165954900Y-92643873D01*
X150312989Y-92643873D01*
X150382323Y-92615225D01*
X150544214Y-92453616D01*
X150631925Y-92242384D01*
X150841941Y-92155607D01*
X151003832Y-91993998D01*
X151091555Y-91782737D01*
X151091755Y-91553988D01*
X151004401Y-91342575D01*
X150842792Y-91180684D01*
X150631531Y-91092961D01*
X150512916Y-91092857D01*
X150525286Y-91087746D01*
X150687177Y-90926137D01*
X150774900Y-90714876D01*
X150775100Y-90486127D01*
X150687746Y-90274714D01*
X150526137Y-90112823D01*
X150314876Y-90025100D01*
X150149825Y-90024956D01*
X150087746Y-89874714D01*
X149926137Y-89712823D01*
X149714876Y-89625100D01*
X149549825Y-89624956D01*
X149487746Y-89474714D01*
X149469849Y-89456785D01*
X166945347Y-89456785D01*
X167017116Y-89685105D01*
X167526444Y-89855462D01*
X168062196Y-89817939D01*
X168382884Y-89685105D01*
X168454653Y-89456785D01*
X167700000Y-88702132D01*
X166945347Y-89456785D01*
X149469849Y-89456785D01*
X149326137Y-89312823D01*
X149114876Y-89225100D01*
X148886127Y-89224900D01*
X148674714Y-89312254D01*
X148512823Y-89473863D01*
X148425100Y-89685124D01*
X148424900Y-89913873D01*
X115303927Y-89913873D01*
X115287746Y-89874714D01*
X115126137Y-89712823D01*
X114914876Y-89625100D01*
X114686127Y-89624900D01*
X114474714Y-89712254D01*
X114312823Y-89873863D01*
X114225100Y-90085124D01*
X114224900Y-90313873D01*
X105775075Y-90313873D01*
X105775100Y-90286127D01*
X105687746Y-90074714D01*
X105526137Y-89912823D01*
X105314876Y-89825100D01*
X105086127Y-89824900D01*
X104874714Y-89912254D01*
X104712823Y-90073863D01*
X104625100Y-90285124D01*
X104624900Y-90513873D01*
X103027186Y-90513873D01*
X103026137Y-90512823D01*
X102814876Y-90425100D01*
X102586127Y-90424900D01*
X102374714Y-90512254D01*
X102300011Y-90586826D01*
X102226137Y-90512823D01*
X102014876Y-90425100D01*
X101786127Y-90424900D01*
X101574714Y-90512254D01*
X101412823Y-90673863D01*
X101325100Y-90885124D01*
X101324900Y-91113873D01*
X88025000Y-91113873D01*
X88025000Y-88213873D01*
X105824900Y-88213873D01*
X105912254Y-88425286D01*
X106073863Y-88587177D01*
X106285124Y-88674900D01*
X106513873Y-88675100D01*
X106725286Y-88587746D01*
X106887177Y-88426137D01*
X106974900Y-88214876D01*
X106975100Y-87986127D01*
X106945246Y-87913873D01*
X108824900Y-87913873D01*
X108912254Y-88125286D01*
X109073863Y-88287177D01*
X109285124Y-88374900D01*
X109513873Y-88375100D01*
X109662053Y-88313873D01*
X157624900Y-88313873D01*
X157712254Y-88525286D01*
X157873863Y-88687177D01*
X158085124Y-88774900D01*
X158313873Y-88775100D01*
X158525286Y-88687746D01*
X158687177Y-88526137D01*
X158774248Y-88316444D01*
X166334538Y-88316444D01*
X166372061Y-88852196D01*
X166504895Y-89172884D01*
X166733215Y-89244653D01*
X167487868Y-88490000D01*
X167912132Y-88490000D01*
X168666785Y-89244653D01*
X168895105Y-89172884D01*
X169065462Y-88663556D01*
X169027939Y-88127804D01*
X168895105Y-87807116D01*
X168666785Y-87735347D01*
X167912132Y-88490000D01*
X167487868Y-88490000D01*
X166733215Y-87735347D01*
X166504895Y-87807116D01*
X166334538Y-88316444D01*
X158774248Y-88316444D01*
X158774900Y-88314876D01*
X158775100Y-88086127D01*
X158687746Y-87874714D01*
X158526137Y-87712823D01*
X158314876Y-87625100D01*
X158086127Y-87624900D01*
X157874714Y-87712254D01*
X157712823Y-87873863D01*
X157625100Y-88085124D01*
X157624900Y-88313873D01*
X109662053Y-88313873D01*
X109725286Y-88287746D01*
X109887177Y-88126137D01*
X109974900Y-87914876D01*
X109975100Y-87686127D01*
X109907787Y-87523215D01*
X166945347Y-87523215D01*
X167700000Y-88277868D01*
X168454653Y-87523215D01*
X168382884Y-87294895D01*
X167873556Y-87124538D01*
X167337804Y-87162061D01*
X167017116Y-87294895D01*
X166945347Y-87523215D01*
X109907787Y-87523215D01*
X109887746Y-87474714D01*
X109726137Y-87312823D01*
X109514876Y-87225100D01*
X109286127Y-87224900D01*
X109074714Y-87312254D01*
X108912823Y-87473863D01*
X108825100Y-87685124D01*
X108824900Y-87913873D01*
X106945246Y-87913873D01*
X106887746Y-87774714D01*
X106726137Y-87612823D01*
X106514876Y-87525100D01*
X106286127Y-87524900D01*
X106074714Y-87612254D01*
X105912823Y-87773863D01*
X105825100Y-87985124D01*
X105824900Y-88213873D01*
X88025000Y-88213873D01*
X88025000Y-86613873D01*
X94524900Y-86613873D01*
X94612254Y-86825286D01*
X94773863Y-86987177D01*
X94985124Y-87074900D01*
X95213873Y-87075100D01*
X95425286Y-86987746D01*
X95449901Y-86963174D01*
X95473863Y-86987177D01*
X95685124Y-87074900D01*
X95913873Y-87075100D01*
X96125286Y-86987746D01*
X96287177Y-86826137D01*
X96350046Y-86674731D01*
X96412254Y-86825286D01*
X96573863Y-86987177D01*
X96785124Y-87074900D01*
X97013873Y-87075100D01*
X97225286Y-86987746D01*
X97249901Y-86963174D01*
X97273863Y-86987177D01*
X97485124Y-87074900D01*
X97713873Y-87075100D01*
X97925286Y-86987746D01*
X98087177Y-86826137D01*
X98150046Y-86674731D01*
X98212254Y-86825286D01*
X98373863Y-86987177D01*
X98585124Y-87074900D01*
X98813873Y-87075100D01*
X99025286Y-86987746D01*
X99049901Y-86963174D01*
X99073863Y-86987177D01*
X99285124Y-87074900D01*
X99513873Y-87075100D01*
X99725286Y-86987746D01*
X99887177Y-86826137D01*
X99950046Y-86674731D01*
X100012254Y-86825286D01*
X100173863Y-86987177D01*
X100385124Y-87074900D01*
X100613873Y-87075100D01*
X100825286Y-86987746D01*
X100849901Y-86963174D01*
X100873863Y-86987177D01*
X101085124Y-87074900D01*
X101313873Y-87075100D01*
X101525286Y-86987746D01*
X101599989Y-86913174D01*
X101673863Y-86987177D01*
X101885124Y-87074900D01*
X102113873Y-87075100D01*
X102325286Y-86987746D01*
X102487177Y-86826137D01*
X102508444Y-86774920D01*
X102713873Y-86775100D01*
X102925286Y-86687746D01*
X103087177Y-86526137D01*
X103133792Y-86413873D01*
X103824900Y-86413873D01*
X103912254Y-86625286D01*
X104073863Y-86787177D01*
X104285124Y-86874900D01*
X104513873Y-86875100D01*
X104725286Y-86787746D01*
X104887177Y-86626137D01*
X104892269Y-86613873D01*
X110724900Y-86613873D01*
X110812254Y-86825286D01*
X110973863Y-86987177D01*
X111185124Y-87074900D01*
X111413873Y-87075100D01*
X111625286Y-86987746D01*
X111649901Y-86963174D01*
X111673863Y-86987177D01*
X111885124Y-87074900D01*
X112113873Y-87075100D01*
X112325286Y-86987746D01*
X112487177Y-86826137D01*
X112550046Y-86674731D01*
X112612254Y-86825286D01*
X112773863Y-86987177D01*
X112985124Y-87074900D01*
X113213873Y-87075100D01*
X113425286Y-86987746D01*
X113449901Y-86963174D01*
X113473863Y-86987177D01*
X113685124Y-87074900D01*
X113913873Y-87075100D01*
X114125286Y-86987746D01*
X114287177Y-86826137D01*
X114350046Y-86674731D01*
X114412254Y-86825286D01*
X114573863Y-86987177D01*
X114785124Y-87074900D01*
X115013873Y-87075100D01*
X115225286Y-86987746D01*
X115249901Y-86963174D01*
X115273863Y-86987177D01*
X115485124Y-87074900D01*
X115713873Y-87075100D01*
X115925286Y-86987746D01*
X116087177Y-86826137D01*
X116150046Y-86674731D01*
X116212254Y-86825286D01*
X116373863Y-86987177D01*
X116585124Y-87074900D01*
X116813873Y-87075100D01*
X117025286Y-86987746D01*
X117049901Y-86963174D01*
X117073863Y-86987177D01*
X117285124Y-87074900D01*
X117513873Y-87075100D01*
X117725286Y-86987746D01*
X117887177Y-86826137D01*
X117974900Y-86614876D01*
X117974900Y-86613873D01*
X119724900Y-86613873D01*
X119812254Y-86825286D01*
X119973863Y-86987177D01*
X120185124Y-87074900D01*
X120413873Y-87075100D01*
X120625286Y-86987746D01*
X120649901Y-86963174D01*
X120673863Y-86987177D01*
X120885124Y-87074900D01*
X121113873Y-87075100D01*
X121325286Y-86987746D01*
X121487177Y-86826137D01*
X121499923Y-86795442D01*
X121512254Y-86825286D01*
X121673863Y-86987177D01*
X121885124Y-87074900D01*
X122113873Y-87075100D01*
X122325286Y-86987746D01*
X122399989Y-86913174D01*
X122473863Y-86987177D01*
X122685124Y-87074900D01*
X122913873Y-87075100D01*
X123125286Y-86987746D01*
X123287177Y-86826137D01*
X123374900Y-86614876D01*
X123374900Y-86613873D01*
X124024900Y-86613873D01*
X124112254Y-86825286D01*
X124273863Y-86987177D01*
X124485124Y-87074900D01*
X124713873Y-87075100D01*
X124925286Y-86987746D01*
X125087177Y-86826137D01*
X125133792Y-86713873D01*
X152224900Y-86713873D01*
X152312254Y-86925286D01*
X152473863Y-87087177D01*
X152685124Y-87174900D01*
X152913873Y-87175100D01*
X153125286Y-87087746D01*
X153287177Y-86926137D01*
X153374900Y-86714876D01*
X153374900Y-86713873D01*
X154024900Y-86713873D01*
X154112254Y-86925286D01*
X154273863Y-87087177D01*
X154485124Y-87174900D01*
X154713873Y-87175100D01*
X154925286Y-87087746D01*
X154999989Y-87013174D01*
X155073863Y-87087177D01*
X155285124Y-87174900D01*
X155513873Y-87175100D01*
X155725286Y-87087746D01*
X155863257Y-86950015D01*
X169072118Y-86950015D01*
X169235913Y-87256131D01*
X170017244Y-87551883D01*
X170852278Y-87526119D01*
X171504087Y-87256131D01*
X171667882Y-86950015D01*
X170370000Y-85652132D01*
X169072118Y-86950015D01*
X155863257Y-86950015D01*
X155887177Y-86926137D01*
X155974900Y-86714876D01*
X155975100Y-86486127D01*
X155887746Y-86274714D01*
X155726137Y-86112823D01*
X155514876Y-86025100D01*
X155286127Y-86024900D01*
X155074714Y-86112254D01*
X155000011Y-86186826D01*
X154926137Y-86112823D01*
X154714876Y-86025100D01*
X154486127Y-86024900D01*
X154274714Y-86112254D01*
X154112823Y-86273863D01*
X154025100Y-86485124D01*
X154024900Y-86713873D01*
X153374900Y-86713873D01*
X153375100Y-86486127D01*
X153287746Y-86274714D01*
X153126137Y-86112823D01*
X152914876Y-86025100D01*
X152686127Y-86024900D01*
X152474714Y-86112254D01*
X152312823Y-86273863D01*
X152225100Y-86485124D01*
X152224900Y-86713873D01*
X125133792Y-86713873D01*
X125174900Y-86614876D01*
X125175100Y-86386127D01*
X125087824Y-86174902D01*
X125313873Y-86175100D01*
X125525286Y-86087746D01*
X125687177Y-85926137D01*
X125774900Y-85714876D01*
X125775100Y-85486127D01*
X125687746Y-85274714D01*
X125526137Y-85112823D01*
X125464536Y-85087244D01*
X168258117Y-85087244D01*
X168283881Y-85922278D01*
X168553869Y-86574087D01*
X168859985Y-86737882D01*
X170157868Y-85440000D01*
X170582132Y-85440000D01*
X171880015Y-86737882D01*
X172186131Y-86574087D01*
X172481883Y-85792756D01*
X172456119Y-84957722D01*
X172186131Y-84305913D01*
X171880015Y-84142118D01*
X170582132Y-85440000D01*
X170157868Y-85440000D01*
X168859985Y-84142118D01*
X168553869Y-84305913D01*
X168258117Y-85087244D01*
X125464536Y-85087244D01*
X125314876Y-85025100D01*
X125086127Y-85024900D01*
X124874714Y-85112254D01*
X124712823Y-85273863D01*
X124625100Y-85485124D01*
X124624900Y-85713873D01*
X124712176Y-85925098D01*
X124486127Y-85924900D01*
X124274714Y-86012254D01*
X124112823Y-86173863D01*
X124025100Y-86385124D01*
X124024900Y-86613873D01*
X123374900Y-86613873D01*
X123375100Y-86386127D01*
X123287746Y-86174714D01*
X123126137Y-86012823D01*
X122914876Y-85925100D01*
X122686127Y-85924900D01*
X122474714Y-86012254D01*
X122400011Y-86086826D01*
X122326137Y-86012823D01*
X122114876Y-85925100D01*
X121886127Y-85924900D01*
X121674714Y-86012254D01*
X121512823Y-86173863D01*
X121500077Y-86204558D01*
X121487746Y-86174714D01*
X121326137Y-86012823D01*
X121114876Y-85925100D01*
X120886127Y-85924900D01*
X120674714Y-86012254D01*
X120650099Y-86036826D01*
X120626137Y-86012823D01*
X120414876Y-85925100D01*
X120186127Y-85924900D01*
X119974714Y-86012254D01*
X119812823Y-86173863D01*
X119725100Y-86385124D01*
X119724900Y-86613873D01*
X117974900Y-86613873D01*
X117974975Y-86529162D01*
X118085124Y-86574900D01*
X118313873Y-86575100D01*
X118525286Y-86487746D01*
X118687177Y-86326137D01*
X118774900Y-86114876D01*
X118774935Y-86075066D01*
X118813873Y-86075100D01*
X119025286Y-85987746D01*
X119187177Y-85826137D01*
X119274900Y-85614876D01*
X119275100Y-85386127D01*
X119187746Y-85174714D01*
X119026137Y-85012823D01*
X118814876Y-84925100D01*
X118586127Y-84924900D01*
X118374714Y-85012254D01*
X118212823Y-85173863D01*
X118125100Y-85385124D01*
X118125065Y-85424934D01*
X118086127Y-85424900D01*
X117874714Y-85512254D01*
X117712823Y-85673863D01*
X117625100Y-85885124D01*
X117625025Y-85970838D01*
X117514876Y-85925100D01*
X117286127Y-85924900D01*
X117074714Y-86012254D01*
X117050099Y-86036826D01*
X117026137Y-86012823D01*
X116814876Y-85925100D01*
X116586127Y-85924900D01*
X116374714Y-86012254D01*
X116212823Y-86173863D01*
X116149954Y-86325269D01*
X116087746Y-86174714D01*
X115926137Y-86012823D01*
X115714876Y-85925100D01*
X115486127Y-85924900D01*
X115274714Y-86012254D01*
X115250099Y-86036826D01*
X115226137Y-86012823D01*
X115014876Y-85925100D01*
X114786127Y-85924900D01*
X114574714Y-86012254D01*
X114412823Y-86173863D01*
X114349954Y-86325269D01*
X114287746Y-86174714D01*
X114126137Y-86012823D01*
X113914876Y-85925100D01*
X113686127Y-85924900D01*
X113474714Y-86012254D01*
X113450099Y-86036826D01*
X113426137Y-86012823D01*
X113214876Y-85925100D01*
X112986127Y-85924900D01*
X112774714Y-86012254D01*
X112612823Y-86173863D01*
X112549954Y-86325269D01*
X112487746Y-86174714D01*
X112326137Y-86012823D01*
X112114876Y-85925100D01*
X111886127Y-85924900D01*
X111674714Y-86012254D01*
X111650099Y-86036826D01*
X111626137Y-86012823D01*
X111414876Y-85925100D01*
X111186127Y-85924900D01*
X110974714Y-86012254D01*
X110812823Y-86173863D01*
X110725100Y-86385124D01*
X110724900Y-86613873D01*
X104892269Y-86613873D01*
X104974900Y-86414876D01*
X104974957Y-86349861D01*
X105125286Y-86287746D01*
X105287177Y-86126137D01*
X105374900Y-85914876D01*
X105375100Y-85686127D01*
X105287746Y-85474714D01*
X105126137Y-85312823D01*
X104914876Y-85225100D01*
X104686127Y-85224900D01*
X104474714Y-85312254D01*
X104312823Y-85473863D01*
X104225100Y-85685124D01*
X104225043Y-85750139D01*
X104074714Y-85812254D01*
X103912823Y-85973863D01*
X103825100Y-86185124D01*
X103824900Y-86413873D01*
X103133792Y-86413873D01*
X103174900Y-86314876D01*
X103175100Y-86086127D01*
X103087746Y-85874714D01*
X102926137Y-85712823D01*
X102714876Y-85625100D01*
X102486127Y-85624900D01*
X102274714Y-85712254D01*
X102112823Y-85873863D01*
X102091556Y-85925080D01*
X101886127Y-85924900D01*
X101674714Y-86012254D01*
X101600011Y-86086826D01*
X101526137Y-86012823D01*
X101314876Y-85925100D01*
X101086127Y-85924900D01*
X100874714Y-86012254D01*
X100850099Y-86036826D01*
X100826137Y-86012823D01*
X100614876Y-85925100D01*
X100386127Y-85924900D01*
X100174714Y-86012254D01*
X100012823Y-86173863D01*
X99949954Y-86325269D01*
X99887746Y-86174714D01*
X99726137Y-86012823D01*
X99514876Y-85925100D01*
X99286127Y-85924900D01*
X99074714Y-86012254D01*
X99050099Y-86036826D01*
X99026137Y-86012823D01*
X98814876Y-85925100D01*
X98586127Y-85924900D01*
X98374714Y-86012254D01*
X98212823Y-86173863D01*
X98149954Y-86325269D01*
X98087746Y-86174714D01*
X97926137Y-86012823D01*
X97714876Y-85925100D01*
X97486127Y-85924900D01*
X97274714Y-86012254D01*
X97250099Y-86036826D01*
X97226137Y-86012823D01*
X97014876Y-85925100D01*
X96786127Y-85924900D01*
X96574714Y-86012254D01*
X96412823Y-86173863D01*
X96349954Y-86325269D01*
X96287746Y-86174714D01*
X96126137Y-86012823D01*
X95914876Y-85925100D01*
X95686127Y-85924900D01*
X95474714Y-86012254D01*
X95450099Y-86036826D01*
X95426137Y-86012823D01*
X95214876Y-85925100D01*
X94986127Y-85924900D01*
X94774714Y-86012254D01*
X94612823Y-86173863D01*
X94525100Y-86385124D01*
X94524900Y-86613873D01*
X88025000Y-86613873D01*
X88025000Y-84227746D01*
X91649801Y-84227746D01*
X91824509Y-84650572D01*
X92147727Y-84974354D01*
X92570247Y-85149800D01*
X93027746Y-85150199D01*
X93450572Y-84975491D01*
X93774354Y-84652273D01*
X93949800Y-84229753D01*
X93949844Y-84178236D01*
X158699844Y-84178236D01*
X158836572Y-84509143D01*
X159089525Y-84762538D01*
X159420194Y-84899843D01*
X159778236Y-84900156D01*
X160109143Y-84763428D01*
X160362538Y-84510475D01*
X160499843Y-84179806D01*
X160500061Y-83929985D01*
X169072118Y-83929985D01*
X170370000Y-85227868D01*
X171667882Y-83929985D01*
X171504087Y-83623869D01*
X170722756Y-83328117D01*
X169887722Y-83353881D01*
X169235913Y-83623869D01*
X169072118Y-83929985D01*
X160500061Y-83929985D01*
X160500156Y-83821764D01*
X160363428Y-83490857D01*
X160110475Y-83237462D01*
X159779806Y-83100157D01*
X159421764Y-83099844D01*
X159090857Y-83236572D01*
X158837462Y-83489525D01*
X158700157Y-83820194D01*
X158699844Y-84178236D01*
X93949844Y-84178236D01*
X93950199Y-83772254D01*
X93775491Y-83349428D01*
X93452273Y-83025646D01*
X93029753Y-82850200D01*
X92572254Y-82849801D01*
X92149428Y-83024509D01*
X91825646Y-83347727D01*
X91650200Y-83770247D01*
X91649801Y-84227746D01*
X88025000Y-84227746D01*
X88025000Y-82113873D01*
X103824900Y-82113873D01*
X103912254Y-82325286D01*
X104073863Y-82487177D01*
X104285124Y-82574900D01*
X104513873Y-82575100D01*
X104725286Y-82487746D01*
X104749901Y-82463174D01*
X104773863Y-82487177D01*
X104985124Y-82574900D01*
X105213873Y-82575100D01*
X105362053Y-82513873D01*
X122424900Y-82513873D01*
X122512254Y-82725286D01*
X122673863Y-82887177D01*
X122885124Y-82974900D01*
X123113873Y-82975100D01*
X123325286Y-82887746D01*
X123487177Y-82726137D01*
X123574900Y-82514876D01*
X123575100Y-82286127D01*
X123487746Y-82074714D01*
X123326137Y-81912823D01*
X123114876Y-81825100D01*
X122886127Y-81824900D01*
X122674714Y-81912254D01*
X122512823Y-82073863D01*
X122425100Y-82285124D01*
X122424900Y-82513873D01*
X105362053Y-82513873D01*
X105425286Y-82487746D01*
X105587177Y-82326137D01*
X105674900Y-82114876D01*
X105675100Y-81886127D01*
X105587746Y-81674714D01*
X105427186Y-81513873D01*
X106224900Y-81513873D01*
X106312254Y-81725286D01*
X106473863Y-81887177D01*
X106685124Y-81974900D01*
X106913873Y-81975100D01*
X107125286Y-81887746D01*
X107287177Y-81726137D01*
X107374900Y-81514876D01*
X107374900Y-81513873D01*
X109224900Y-81513873D01*
X109312254Y-81725286D01*
X109473863Y-81887177D01*
X109685124Y-81974900D01*
X109913873Y-81975100D01*
X110125286Y-81887746D01*
X110287177Y-81726137D01*
X110374900Y-81514876D01*
X110374900Y-81513873D01*
X124424900Y-81513873D01*
X124512254Y-81725286D01*
X124673863Y-81887177D01*
X124885124Y-81974900D01*
X125113873Y-81975100D01*
X125325286Y-81887746D01*
X125487177Y-81726137D01*
X125574900Y-81514876D01*
X125574900Y-81513873D01*
X147824900Y-81513873D01*
X147912254Y-81725286D01*
X148073863Y-81887177D01*
X148285124Y-81974900D01*
X148513873Y-81975100D01*
X148725286Y-81887746D01*
X148887177Y-81726137D01*
X148974900Y-81514876D01*
X148974900Y-81513873D01*
X152524900Y-81513873D01*
X152612254Y-81725286D01*
X152773863Y-81887177D01*
X152985124Y-81974900D01*
X153213873Y-81975100D01*
X153425286Y-81887746D01*
X153587177Y-81726137D01*
X153674900Y-81514876D01*
X153674900Y-81513873D01*
X154424900Y-81513873D01*
X154512254Y-81725286D01*
X154673863Y-81887177D01*
X154885124Y-81974900D01*
X155113873Y-81975100D01*
X155325286Y-81887746D01*
X155399989Y-81813174D01*
X155473863Y-81887177D01*
X155685124Y-81974900D01*
X155913873Y-81975100D01*
X156125286Y-81887746D01*
X156287177Y-81726137D01*
X156374900Y-81514876D01*
X156375100Y-81286127D01*
X156287746Y-81074714D01*
X156126137Y-80912823D01*
X155914876Y-80825100D01*
X155686127Y-80824900D01*
X155474714Y-80912254D01*
X155400011Y-80986826D01*
X155326137Y-80912823D01*
X155114876Y-80825100D01*
X154886127Y-80824900D01*
X154674714Y-80912254D01*
X154512823Y-81073863D01*
X154425100Y-81285124D01*
X154424900Y-81513873D01*
X153674900Y-81513873D01*
X153675100Y-81286127D01*
X153587746Y-81074714D01*
X153426137Y-80912823D01*
X153214876Y-80825100D01*
X152986127Y-80824900D01*
X152774714Y-80912254D01*
X152612823Y-81073863D01*
X152525100Y-81285124D01*
X152524900Y-81513873D01*
X148974900Y-81513873D01*
X148975100Y-81286127D01*
X148887746Y-81074714D01*
X148726137Y-80912823D01*
X148514876Y-80825100D01*
X148286127Y-80824900D01*
X148074714Y-80912254D01*
X147912823Y-81073863D01*
X147825100Y-81285124D01*
X147824900Y-81513873D01*
X125574900Y-81513873D01*
X125575100Y-81286127D01*
X125487746Y-81074714D01*
X125326137Y-80912823D01*
X125114876Y-80825100D01*
X124886127Y-80824900D01*
X124674714Y-80912254D01*
X124512823Y-81073863D01*
X124425100Y-81285124D01*
X124424900Y-81513873D01*
X110374900Y-81513873D01*
X110375100Y-81286127D01*
X110287746Y-81074714D01*
X110126137Y-80912823D01*
X109914876Y-80825100D01*
X109686127Y-80824900D01*
X109474714Y-80912254D01*
X109312823Y-81073863D01*
X109225100Y-81285124D01*
X109224900Y-81513873D01*
X107374900Y-81513873D01*
X107375100Y-81286127D01*
X107287746Y-81074714D01*
X107126137Y-80912823D01*
X106914876Y-80825100D01*
X106686127Y-80824900D01*
X106474714Y-80912254D01*
X106312823Y-81073863D01*
X106225100Y-81285124D01*
X106224900Y-81513873D01*
X105427186Y-81513873D01*
X105426137Y-81512823D01*
X105214876Y-81425100D01*
X104986127Y-81424900D01*
X104774714Y-81512254D01*
X104750099Y-81536826D01*
X104726137Y-81512823D01*
X104514876Y-81425100D01*
X104286127Y-81424900D01*
X104074714Y-81512254D01*
X103912823Y-81673863D01*
X103825100Y-81885124D01*
X103824900Y-82113873D01*
X88025000Y-82113873D01*
X88025000Y-79913873D01*
X157924900Y-79913873D01*
X158012254Y-80125286D01*
X158173863Y-80287177D01*
X158385124Y-80374900D01*
X158613873Y-80375100D01*
X158825286Y-80287746D01*
X158987177Y-80126137D01*
X159074900Y-79914876D01*
X159075100Y-79686127D01*
X158987746Y-79474714D01*
X158826137Y-79312823D01*
X158614876Y-79225100D01*
X158386127Y-79224900D01*
X158174714Y-79312254D01*
X158012823Y-79473863D01*
X157925100Y-79685124D01*
X157924900Y-79913873D01*
X88025000Y-79913873D01*
X88025000Y-78513873D01*
X102024900Y-78513873D01*
X102112254Y-78725286D01*
X102273863Y-78887177D01*
X102485124Y-78974900D01*
X102713873Y-78975100D01*
X102925286Y-78887746D01*
X102949901Y-78863174D01*
X102973863Y-78887177D01*
X103185124Y-78974900D01*
X103413873Y-78975100D01*
X103625286Y-78887746D01*
X103787177Y-78726137D01*
X103874900Y-78514876D01*
X103874900Y-78513873D01*
X121824900Y-78513873D01*
X121912254Y-78725286D01*
X122073863Y-78887177D01*
X122285124Y-78974900D01*
X122513873Y-78975100D01*
X122725286Y-78887746D01*
X122749901Y-78863174D01*
X122773863Y-78887177D01*
X122985124Y-78974900D01*
X123213873Y-78975100D01*
X123425286Y-78887746D01*
X123587177Y-78726137D01*
X123674900Y-78514876D01*
X123675075Y-78313873D01*
X154224900Y-78313873D01*
X154312254Y-78525286D01*
X154473863Y-78687177D01*
X154685124Y-78774900D01*
X154913873Y-78775100D01*
X155100198Y-78698112D01*
X155285124Y-78774900D01*
X155513873Y-78775100D01*
X155725286Y-78687746D01*
X155794528Y-78618624D01*
X176622156Y-78618624D01*
X176626331Y-78680314D01*
X176851696Y-79052673D01*
X177202402Y-79310444D01*
X177625057Y-79414384D01*
X177800000Y-79258477D01*
X177800000Y-78450000D01*
X178100000Y-78450000D01*
X178100000Y-79258477D01*
X178274943Y-79414384D01*
X178697598Y-79310444D01*
X179048304Y-79052673D01*
X179273669Y-78680314D01*
X179277844Y-78618624D01*
X179163083Y-78450000D01*
X178100000Y-78450000D01*
X177800000Y-78450000D01*
X176736917Y-78450000D01*
X176622156Y-78618624D01*
X155794528Y-78618624D01*
X155887177Y-78526137D01*
X155974900Y-78314876D01*
X155975100Y-78086127D01*
X155887746Y-77874714D01*
X155742013Y-77728726D01*
X167599888Y-77728726D01*
X167698636Y-77967714D01*
X167881324Y-78150722D01*
X168120140Y-78249887D01*
X168378726Y-78250112D01*
X168617714Y-78151364D01*
X168725027Y-78044239D01*
X168831324Y-78150722D01*
X169070140Y-78249887D01*
X169328726Y-78250112D01*
X169567714Y-78151364D01*
X169750722Y-77968676D01*
X169849887Y-77729860D01*
X169849984Y-77618167D01*
X174188235Y-77618167D01*
X174333412Y-78011686D01*
X174618131Y-78319693D01*
X174935325Y-78477912D01*
X175100000Y-78362757D01*
X175100000Y-77450000D01*
X175400000Y-77450000D01*
X175400000Y-78362757D01*
X175564675Y-78477912D01*
X175881869Y-78319693D01*
X176166588Y-78011686D01*
X176177769Y-77981376D01*
X176622156Y-77981376D01*
X176736917Y-78150000D01*
X177800000Y-78150000D01*
X177800000Y-77341523D01*
X178100000Y-77341523D01*
X178100000Y-78150000D01*
X179163083Y-78150000D01*
X179277844Y-77981376D01*
X179273669Y-77919686D01*
X179048304Y-77547327D01*
X178697598Y-77289556D01*
X178274943Y-77185616D01*
X178100000Y-77341523D01*
X177800000Y-77341523D01*
X177625057Y-77185616D01*
X177202402Y-77289556D01*
X176851696Y-77547327D01*
X176626331Y-77919686D01*
X176622156Y-77981376D01*
X176177769Y-77981376D01*
X176311765Y-77618167D01*
X176175000Y-77450000D01*
X175400000Y-77450000D01*
X175100000Y-77450000D01*
X174325000Y-77450000D01*
X174188235Y-77618167D01*
X169849984Y-77618167D01*
X169850112Y-77471274D01*
X169751364Y-77232286D01*
X169568676Y-77049278D01*
X169406251Y-76981833D01*
X174188235Y-76981833D01*
X174325000Y-77150000D01*
X175100000Y-77150000D01*
X175100000Y-76237243D01*
X175400000Y-76237243D01*
X175400000Y-77150000D01*
X176175000Y-77150000D01*
X176311765Y-76981833D01*
X176166588Y-76588314D01*
X175881869Y-76280307D01*
X175564675Y-76122088D01*
X175400000Y-76237243D01*
X175100000Y-76237243D01*
X174935325Y-76122088D01*
X174618131Y-76280307D01*
X174333412Y-76588314D01*
X174188235Y-76981833D01*
X169406251Y-76981833D01*
X169329860Y-76950113D01*
X169071274Y-76949888D01*
X168832286Y-77048636D01*
X168724973Y-77155761D01*
X168618676Y-77049278D01*
X168379860Y-76950113D01*
X168121274Y-76949888D01*
X167882286Y-77048636D01*
X167699278Y-77231324D01*
X167600113Y-77470140D01*
X167599888Y-77728726D01*
X155742013Y-77728726D01*
X155726137Y-77712823D01*
X155514876Y-77625100D01*
X155286127Y-77624900D01*
X155099802Y-77701888D01*
X154914876Y-77625100D01*
X154686127Y-77624900D01*
X154474714Y-77712254D01*
X154312823Y-77873863D01*
X154225100Y-78085124D01*
X154224900Y-78313873D01*
X123675075Y-78313873D01*
X123675100Y-78286127D01*
X123587746Y-78074714D01*
X123426137Y-77912823D01*
X123214876Y-77825100D01*
X122986127Y-77824900D01*
X122774714Y-77912254D01*
X122750099Y-77936826D01*
X122726137Y-77912823D01*
X122514876Y-77825100D01*
X122286127Y-77824900D01*
X122074714Y-77912254D01*
X121912823Y-78073863D01*
X121825100Y-78285124D01*
X121824900Y-78513873D01*
X103874900Y-78513873D01*
X103875100Y-78286127D01*
X103787746Y-78074714D01*
X103626137Y-77912823D01*
X103414876Y-77825100D01*
X103186127Y-77824900D01*
X102974714Y-77912254D01*
X102950099Y-77936826D01*
X102926137Y-77912823D01*
X102714876Y-77825100D01*
X102486127Y-77824900D01*
X102274714Y-77912254D01*
X102112823Y-78073863D01*
X102025100Y-78285124D01*
X102024900Y-78513873D01*
X88025000Y-78513873D01*
X88025000Y-76313873D01*
X105324900Y-76313873D01*
X105412254Y-76525286D01*
X105573863Y-76687177D01*
X105785124Y-76774900D01*
X106013873Y-76775100D01*
X106082573Y-76746714D01*
X106025100Y-76885124D01*
X106024900Y-77113873D01*
X106112254Y-77325286D01*
X106273863Y-77487177D01*
X106485124Y-77574900D01*
X106713873Y-77575100D01*
X106925286Y-77487746D01*
X107087177Y-77326137D01*
X107174900Y-77114876D01*
X107175100Y-76886127D01*
X107087746Y-76674714D01*
X106926137Y-76512823D01*
X106714876Y-76425100D01*
X106486127Y-76424900D01*
X106417427Y-76453286D01*
X106474900Y-76314876D01*
X106475100Y-76086127D01*
X106387746Y-75874714D01*
X106226137Y-75712823D01*
X106014876Y-75625100D01*
X105786127Y-75624900D01*
X105574714Y-75712254D01*
X105412823Y-75873863D01*
X105325100Y-76085124D01*
X105324900Y-76313873D01*
X88025000Y-76313873D01*
X88025000Y-72713873D01*
X121024900Y-72713873D01*
X121112254Y-72925286D01*
X121273863Y-73087177D01*
X121485124Y-73174900D01*
X121713873Y-73175100D01*
X121925286Y-73087746D01*
X122087177Y-72926137D01*
X122174900Y-72714876D01*
X122174984Y-72618167D01*
X174188235Y-72618167D01*
X174333412Y-73011686D01*
X174618131Y-73319693D01*
X174935325Y-73477912D01*
X175100000Y-73362757D01*
X175100000Y-72450000D01*
X175400000Y-72450000D01*
X175400000Y-73362757D01*
X175564675Y-73477912D01*
X175881869Y-73319693D01*
X176166588Y-73011686D01*
X176311765Y-72618167D01*
X176175000Y-72450000D01*
X175400000Y-72450000D01*
X175100000Y-72450000D01*
X174325000Y-72450000D01*
X174188235Y-72618167D01*
X122174984Y-72618167D01*
X122175100Y-72486127D01*
X122087746Y-72274714D01*
X121926137Y-72112823D01*
X121714876Y-72025100D01*
X121486127Y-72024900D01*
X121274714Y-72112254D01*
X121112823Y-72273863D01*
X121025100Y-72485124D01*
X121024900Y-72713873D01*
X88025000Y-72713873D01*
X88025000Y-71981833D01*
X174188235Y-71981833D01*
X174325000Y-72150000D01*
X175100000Y-72150000D01*
X175100000Y-71237243D01*
X175400000Y-71237243D01*
X175400000Y-72150000D01*
X176175000Y-72150000D01*
X176311765Y-71981833D01*
X176177770Y-71618624D01*
X176622156Y-71618624D01*
X176626331Y-71680314D01*
X176851696Y-72052673D01*
X177202402Y-72310444D01*
X177625057Y-72414384D01*
X177800000Y-72258477D01*
X177800000Y-71450000D01*
X178100000Y-71450000D01*
X178100000Y-72258477D01*
X178274943Y-72414384D01*
X178697598Y-72310444D01*
X179048304Y-72052673D01*
X179273669Y-71680314D01*
X179277844Y-71618624D01*
X179163083Y-71450000D01*
X178100000Y-71450000D01*
X177800000Y-71450000D01*
X176736917Y-71450000D01*
X176622156Y-71618624D01*
X176177770Y-71618624D01*
X176166588Y-71588314D01*
X175881869Y-71280307D01*
X175564675Y-71122088D01*
X175400000Y-71237243D01*
X175100000Y-71237243D01*
X174935325Y-71122088D01*
X174618131Y-71280307D01*
X174333412Y-71588314D01*
X174188235Y-71981833D01*
X88025000Y-71981833D01*
X88025000Y-70913873D01*
X121824900Y-70913873D01*
X121912254Y-71125286D01*
X122073863Y-71287177D01*
X122285124Y-71374900D01*
X122513873Y-71375100D01*
X122725286Y-71287746D01*
X122887177Y-71126137D01*
X122899923Y-71095442D01*
X122912254Y-71125286D01*
X123073863Y-71287177D01*
X123285124Y-71374900D01*
X123513873Y-71375100D01*
X123725286Y-71287746D01*
X123887177Y-71126137D01*
X123947286Y-70981376D01*
X176622156Y-70981376D01*
X176736917Y-71150000D01*
X177800000Y-71150000D01*
X177800000Y-70341523D01*
X178100000Y-70341523D01*
X178100000Y-71150000D01*
X179163083Y-71150000D01*
X179277844Y-70981376D01*
X179273669Y-70919686D01*
X179048304Y-70547327D01*
X178697598Y-70289556D01*
X178274943Y-70185616D01*
X178100000Y-70341523D01*
X177800000Y-70341523D01*
X177625057Y-70185616D01*
X177202402Y-70289556D01*
X176851696Y-70547327D01*
X176626331Y-70919686D01*
X176622156Y-70981376D01*
X123947286Y-70981376D01*
X123974900Y-70914876D01*
X123975100Y-70686127D01*
X123887746Y-70474714D01*
X123726137Y-70312823D01*
X123514876Y-70225100D01*
X123286127Y-70224900D01*
X123074714Y-70312254D01*
X122912823Y-70473863D01*
X122900077Y-70504558D01*
X122887746Y-70474714D01*
X122726137Y-70312823D01*
X122514876Y-70225100D01*
X122286127Y-70224900D01*
X122074714Y-70312254D01*
X121912823Y-70473863D01*
X121825100Y-70685124D01*
X121824900Y-70913873D01*
X88025000Y-70913873D01*
X88025000Y-69163873D01*
X112324900Y-69163873D01*
X112412254Y-69375286D01*
X112573863Y-69537177D01*
X112785124Y-69624900D01*
X113013873Y-69625100D01*
X113225286Y-69537746D01*
X113387177Y-69376137D01*
X113474900Y-69164876D01*
X113474979Y-69074979D01*
X113613873Y-69075100D01*
X113825286Y-68987746D01*
X113987177Y-68826137D01*
X114074900Y-68614876D01*
X114074900Y-68613873D01*
X114124900Y-68613873D01*
X114212254Y-68825286D01*
X114373863Y-68987177D01*
X114585124Y-69074900D01*
X114813873Y-69075100D01*
X115025286Y-68987746D01*
X115187177Y-68826137D01*
X115208444Y-68774920D01*
X115413873Y-68775100D01*
X115625286Y-68687746D01*
X115787177Y-68526137D01*
X115874900Y-68314876D01*
X115875100Y-68086127D01*
X115787746Y-67874714D01*
X115626137Y-67712823D01*
X115414876Y-67625100D01*
X115186127Y-67624900D01*
X114974714Y-67712254D01*
X114812823Y-67873863D01*
X114791556Y-67925080D01*
X114586127Y-67924900D01*
X114374714Y-68012254D01*
X114212823Y-68173863D01*
X114125100Y-68385124D01*
X114124900Y-68613873D01*
X114074900Y-68613873D01*
X114075100Y-68386127D01*
X113987746Y-68174714D01*
X113826137Y-68012823D01*
X113614876Y-67925100D01*
X113386127Y-67924900D01*
X113174714Y-68012254D01*
X113012823Y-68173863D01*
X112925100Y-68385124D01*
X112925021Y-68475021D01*
X112786127Y-68474900D01*
X112574714Y-68562254D01*
X112412823Y-68723863D01*
X112325100Y-68935124D01*
X112324900Y-69163873D01*
X88025000Y-69163873D01*
X88025000Y-67613873D01*
X117224900Y-67613873D01*
X117312254Y-67825286D01*
X117473863Y-67987177D01*
X117685124Y-68074900D01*
X117913873Y-68075100D01*
X118125286Y-67987746D01*
X118287177Y-67826137D01*
X118374900Y-67614876D01*
X118375026Y-67470707D01*
X118385124Y-67474900D01*
X118613873Y-67475100D01*
X118825286Y-67387746D01*
X118987177Y-67226137D01*
X119074900Y-67014876D01*
X119074935Y-66975066D01*
X119113873Y-66975100D01*
X119325286Y-66887746D01*
X119349901Y-66863174D01*
X119373863Y-66887177D01*
X119585124Y-66974900D01*
X119813873Y-66975100D01*
X120025286Y-66887746D01*
X120049901Y-66863174D01*
X120073863Y-66887177D01*
X120285124Y-66974900D01*
X120513873Y-66975100D01*
X120725286Y-66887746D01*
X120887177Y-66726137D01*
X120974900Y-66514876D01*
X120975100Y-66286127D01*
X120887746Y-66074714D01*
X120726137Y-65912823D01*
X120514876Y-65825100D01*
X120286127Y-65824900D01*
X120074714Y-65912254D01*
X120050099Y-65936826D01*
X120026137Y-65912823D01*
X119814876Y-65825100D01*
X119586127Y-65824900D01*
X119374714Y-65912254D01*
X119350099Y-65936826D01*
X119326137Y-65912823D01*
X119114876Y-65825100D01*
X118886127Y-65824900D01*
X118674714Y-65912254D01*
X118512823Y-66073863D01*
X118425100Y-66285124D01*
X118425065Y-66324934D01*
X118386127Y-66324900D01*
X118174714Y-66412254D01*
X118012823Y-66573863D01*
X117925100Y-66785124D01*
X117924974Y-66929293D01*
X117914876Y-66925100D01*
X117686127Y-66924900D01*
X117474714Y-67012254D01*
X117312823Y-67173863D01*
X117225100Y-67385124D01*
X117224900Y-67613873D01*
X88025000Y-67613873D01*
X88025000Y-63813873D01*
X107324900Y-63813873D01*
X107412254Y-64025286D01*
X107573863Y-64187177D01*
X107785124Y-64274900D01*
X108013873Y-64275100D01*
X108225286Y-64187746D01*
X108387177Y-64026137D01*
X108474900Y-63814876D01*
X108474935Y-63775066D01*
X108513873Y-63775100D01*
X108725286Y-63687746D01*
X108887177Y-63526137D01*
X108974900Y-63314876D01*
X108974935Y-63275066D01*
X109013873Y-63275100D01*
X109225286Y-63187746D01*
X109387177Y-63026137D01*
X109474900Y-62814876D01*
X109474957Y-62749861D01*
X109625286Y-62687746D01*
X109787177Y-62526137D01*
X109869148Y-62328726D01*
X168849888Y-62328726D01*
X168948636Y-62567714D01*
X169131324Y-62750722D01*
X169370140Y-62849887D01*
X169628726Y-62850112D01*
X169701056Y-62820226D01*
X169831324Y-62950722D01*
X170070140Y-63049887D01*
X170328726Y-63050112D01*
X170567714Y-62951364D01*
X170750722Y-62768676D01*
X170849887Y-62529860D01*
X170850112Y-62271274D01*
X170751364Y-62032286D01*
X170568676Y-61849278D01*
X170329860Y-61750113D01*
X170071274Y-61749888D01*
X169998944Y-61779774D01*
X169868676Y-61649278D01*
X169629860Y-61550113D01*
X169371274Y-61549888D01*
X169132286Y-61648636D01*
X168949278Y-61831324D01*
X168850113Y-62070140D01*
X168849888Y-62328726D01*
X109869148Y-62328726D01*
X109874900Y-62314876D01*
X109875100Y-62086127D01*
X109787746Y-61874714D01*
X109626137Y-61712823D01*
X109414876Y-61625100D01*
X109186127Y-61624900D01*
X108974714Y-61712254D01*
X108812823Y-61873863D01*
X108725100Y-62085124D01*
X108725043Y-62150139D01*
X108574714Y-62212254D01*
X108412823Y-62373863D01*
X108325100Y-62585124D01*
X108325065Y-62624934D01*
X108286127Y-62624900D01*
X108074714Y-62712254D01*
X107912823Y-62873863D01*
X107825100Y-63085124D01*
X107825065Y-63124934D01*
X107786127Y-63124900D01*
X107574714Y-63212254D01*
X107412823Y-63373863D01*
X107325100Y-63585124D01*
X107324900Y-63813873D01*
X88025000Y-63813873D01*
X88025000Y-60713873D01*
X110424900Y-60713873D01*
X110512254Y-60925286D01*
X110673863Y-61087177D01*
X110885124Y-61174900D01*
X111113873Y-61175100D01*
X111325286Y-61087746D01*
X111487177Y-60926137D01*
X111574900Y-60714876D01*
X111575022Y-60574979D01*
X111713873Y-60575100D01*
X111925286Y-60487746D01*
X112087177Y-60326137D01*
X112174900Y-60114876D01*
X112175022Y-59974979D01*
X112313873Y-59975100D01*
X112525286Y-59887746D01*
X112687177Y-59726137D01*
X112774900Y-59514876D01*
X112774900Y-59513873D01*
X115124900Y-59513873D01*
X115212254Y-59725286D01*
X115373863Y-59887177D01*
X115585124Y-59974900D01*
X115813873Y-59975100D01*
X116025286Y-59887746D01*
X116113185Y-59800000D01*
X170849042Y-59800000D01*
X170921356Y-60163549D01*
X171127291Y-60471751D01*
X171435493Y-60677686D01*
X171799042Y-60750000D01*
X172600958Y-60750000D01*
X172964507Y-60677686D01*
X173272709Y-60471751D01*
X173478644Y-60163549D01*
X173517474Y-59968334D01*
X176349853Y-59968334D01*
X176478985Y-60280857D01*
X176717885Y-60520174D01*
X177030183Y-60649852D01*
X177368334Y-60650147D01*
X177680857Y-60521015D01*
X177920174Y-60282115D01*
X178049852Y-59969817D01*
X178050147Y-59631666D01*
X177921015Y-59319143D01*
X177682115Y-59079826D01*
X177369817Y-58950148D01*
X177031666Y-58949853D01*
X176719143Y-59078985D01*
X176479826Y-59317885D01*
X176350148Y-59630183D01*
X176349853Y-59968334D01*
X173517474Y-59968334D01*
X173550958Y-59800000D01*
X173478644Y-59436451D01*
X173272709Y-59128249D01*
X172964507Y-58922314D01*
X172600958Y-58850000D01*
X171799042Y-58850000D01*
X171435493Y-58922314D01*
X171127291Y-59128249D01*
X170921356Y-59436451D01*
X170849042Y-59800000D01*
X116113185Y-59800000D01*
X116187177Y-59726137D01*
X116274900Y-59514876D01*
X116275100Y-59286127D01*
X116187746Y-59074714D01*
X116026137Y-58912823D01*
X115814876Y-58825100D01*
X115586127Y-58824900D01*
X115374714Y-58912254D01*
X115212823Y-59073863D01*
X115125100Y-59285124D01*
X115124900Y-59513873D01*
X112774900Y-59513873D01*
X112775022Y-59374979D01*
X112913873Y-59375100D01*
X113125286Y-59287746D01*
X113287177Y-59126137D01*
X113374900Y-58914876D01*
X113375100Y-58686127D01*
X113287746Y-58474714D01*
X113126137Y-58312823D01*
X112914876Y-58225100D01*
X112686127Y-58224900D01*
X112474714Y-58312254D01*
X112312823Y-58473863D01*
X112225100Y-58685124D01*
X112224978Y-58825021D01*
X112086127Y-58824900D01*
X111874714Y-58912254D01*
X111712823Y-59073863D01*
X111625100Y-59285124D01*
X111624978Y-59425021D01*
X111486127Y-59424900D01*
X111274714Y-59512254D01*
X111112823Y-59673863D01*
X111025100Y-59885124D01*
X111024978Y-60025021D01*
X110886127Y-60024900D01*
X110674714Y-60112254D01*
X110512823Y-60273863D01*
X110425100Y-60485124D01*
X110424900Y-60713873D01*
X88025000Y-60713873D01*
X88025000Y-57713873D01*
X123724900Y-57713873D01*
X123812254Y-57925286D01*
X123936826Y-58050076D01*
X123812823Y-58173863D01*
X123725100Y-58385124D01*
X123724900Y-58613873D01*
X123812254Y-58825286D01*
X123973863Y-58987177D01*
X124185124Y-59074900D01*
X124413873Y-59075100D01*
X124625286Y-58987746D01*
X124787177Y-58826137D01*
X124874900Y-58614876D01*
X124875100Y-58386127D01*
X124787746Y-58174714D01*
X124663174Y-58049924D01*
X124787177Y-57926137D01*
X124874900Y-57714876D01*
X124874935Y-57675066D01*
X124913873Y-57675100D01*
X125125286Y-57587746D01*
X125287177Y-57426137D01*
X125339553Y-57300000D01*
X170849042Y-57300000D01*
X170921356Y-57663549D01*
X171127291Y-57971751D01*
X171435493Y-58177686D01*
X171799042Y-58250000D01*
X172600958Y-58250000D01*
X172964507Y-58177686D01*
X173272709Y-57971751D01*
X173478644Y-57663549D01*
X173550958Y-57300000D01*
X173478644Y-56936451D01*
X173272709Y-56628249D01*
X172964507Y-56422314D01*
X172600958Y-56350000D01*
X171799042Y-56350000D01*
X171435493Y-56422314D01*
X171127291Y-56628249D01*
X170921356Y-56936451D01*
X170849042Y-57300000D01*
X125339553Y-57300000D01*
X125374900Y-57214876D01*
X125375100Y-56986127D01*
X125287746Y-56774714D01*
X125126137Y-56612823D01*
X124914876Y-56525100D01*
X124686127Y-56524900D01*
X124474714Y-56612254D01*
X124312823Y-56773863D01*
X124225100Y-56985124D01*
X124225065Y-57024934D01*
X124186127Y-57024900D01*
X123974714Y-57112254D01*
X123812823Y-57273863D01*
X123725100Y-57485124D01*
X123724900Y-57713873D01*
X88025000Y-57713873D01*
X88025000Y-57113873D01*
X119624900Y-57113873D01*
X119712254Y-57325286D01*
X119873863Y-57487177D01*
X120085124Y-57574900D01*
X120313873Y-57575100D01*
X120525286Y-57487746D01*
X120687177Y-57326137D01*
X120774900Y-57114876D01*
X120775100Y-56886127D01*
X120687746Y-56674714D01*
X120526137Y-56512823D01*
X120314876Y-56425100D01*
X120086127Y-56424900D01*
X119874714Y-56512254D01*
X119712823Y-56673863D01*
X119625100Y-56885124D01*
X119624900Y-57113873D01*
X88025000Y-57113873D01*
X88025000Y-55913873D01*
X124624900Y-55913873D01*
X124712254Y-56125286D01*
X124873863Y-56287177D01*
X125085124Y-56374900D01*
X125313873Y-56375100D01*
X125525286Y-56287746D01*
X125687177Y-56126137D01*
X125774900Y-55914876D01*
X125775100Y-55686127D01*
X125687746Y-55474714D01*
X125526137Y-55312823D01*
X125314876Y-55225100D01*
X125086127Y-55224900D01*
X124874714Y-55312254D01*
X124712823Y-55473863D01*
X124625100Y-55685124D01*
X124624900Y-55913873D01*
X88025000Y-55913873D01*
X88025000Y-55313873D01*
X109824900Y-55313873D01*
X109912254Y-55525286D01*
X110073863Y-55687177D01*
X110285124Y-55774900D01*
X110513873Y-55775100D01*
X110725286Y-55687746D01*
X110887177Y-55526137D01*
X110974900Y-55314876D01*
X110974900Y-55313873D01*
X120424900Y-55313873D01*
X120512254Y-55525286D01*
X120673863Y-55687177D01*
X120885124Y-55774900D01*
X121113873Y-55775100D01*
X121325286Y-55687746D01*
X121487177Y-55526137D01*
X121549916Y-55375044D01*
X121613873Y-55375100D01*
X121825286Y-55287746D01*
X121987177Y-55126137D01*
X122052702Y-54968334D01*
X171349853Y-54968334D01*
X171478985Y-55280857D01*
X171717885Y-55520174D01*
X172030183Y-55649852D01*
X172368334Y-55650147D01*
X172680857Y-55521015D01*
X172920174Y-55282115D01*
X173049852Y-54969817D01*
X173049869Y-54950000D01*
X176000000Y-54950000D01*
X176000000Y-55325000D01*
X176148747Y-55772802D01*
X176457538Y-56129594D01*
X176865598Y-56327465D01*
X177050000Y-56214230D01*
X177050000Y-54950000D01*
X177350000Y-54950000D01*
X177350000Y-56214230D01*
X177534402Y-56327465D01*
X177942462Y-56129594D01*
X178251253Y-55772802D01*
X178400000Y-55325000D01*
X178400000Y-54950000D01*
X177350000Y-54950000D01*
X177050000Y-54950000D01*
X176000000Y-54950000D01*
X173049869Y-54950000D01*
X173050147Y-54631666D01*
X172921015Y-54319143D01*
X172876949Y-54275000D01*
X176000000Y-54275000D01*
X176000000Y-54650000D01*
X177050000Y-54650000D01*
X177050000Y-53385770D01*
X177350000Y-53385770D01*
X177350000Y-54650000D01*
X178400000Y-54650000D01*
X178400000Y-54275000D01*
X178251253Y-53827198D01*
X177942462Y-53470406D01*
X177534402Y-53272535D01*
X177350000Y-53385770D01*
X177050000Y-53385770D01*
X176865598Y-53272535D01*
X176457538Y-53470406D01*
X176148747Y-53827198D01*
X176000000Y-54275000D01*
X172876949Y-54275000D01*
X172682115Y-54079826D01*
X172369817Y-53950148D01*
X172031666Y-53949853D01*
X171719143Y-54078985D01*
X171479826Y-54317885D01*
X171350148Y-54630183D01*
X171349853Y-54968334D01*
X122052702Y-54968334D01*
X122074900Y-54914876D01*
X122074935Y-54875066D01*
X122113873Y-54875100D01*
X122325286Y-54787746D01*
X122487177Y-54626137D01*
X122574900Y-54414876D01*
X122575100Y-54186127D01*
X122487746Y-53974714D01*
X122326137Y-53812823D01*
X122114876Y-53725100D01*
X121886127Y-53724900D01*
X121674714Y-53812254D01*
X121512823Y-53973863D01*
X121425100Y-54185124D01*
X121425065Y-54224934D01*
X121386127Y-54224900D01*
X121174714Y-54312254D01*
X121012823Y-54473863D01*
X120950084Y-54624956D01*
X120886127Y-54624900D01*
X120674714Y-54712254D01*
X120512823Y-54873863D01*
X120425100Y-55085124D01*
X120424900Y-55313873D01*
X110974900Y-55313873D01*
X110975100Y-55086127D01*
X110887746Y-54874714D01*
X110726137Y-54712823D01*
X110514876Y-54625100D01*
X110286127Y-54624900D01*
X110074714Y-54712254D01*
X109912823Y-54873863D01*
X109825100Y-55085124D01*
X109824900Y-55313873D01*
X88025000Y-55313873D01*
X88025000Y-53713873D01*
X117624900Y-53713873D01*
X117712254Y-53925286D01*
X117873863Y-54087177D01*
X118085124Y-54174900D01*
X118313873Y-54175100D01*
X118525286Y-54087746D01*
X118687177Y-53926137D01*
X118774900Y-53714876D01*
X118775100Y-53486127D01*
X118687746Y-53274714D01*
X118526137Y-53112823D01*
X118314876Y-53025100D01*
X118086127Y-53024900D01*
X117874714Y-53112254D01*
X117712823Y-53273863D01*
X117625100Y-53485124D01*
X117624900Y-53713873D01*
X88025000Y-53713873D01*
X88025000Y-52613873D01*
X135424900Y-52613873D01*
X135512254Y-52825286D01*
X135673863Y-52987177D01*
X135885124Y-53074900D01*
X136113873Y-53075100D01*
X136325286Y-52987746D01*
X136487177Y-52826137D01*
X136574900Y-52614876D01*
X136575100Y-52386127D01*
X136539514Y-52300000D01*
X170849042Y-52300000D01*
X170921356Y-52663549D01*
X171127291Y-52971751D01*
X171435493Y-53177686D01*
X171799042Y-53250000D01*
X172600958Y-53250000D01*
X172964507Y-53177686D01*
X173272709Y-52971751D01*
X173478644Y-52663549D01*
X173550958Y-52300000D01*
X173478644Y-51936451D01*
X173272709Y-51628249D01*
X172964507Y-51422314D01*
X172600958Y-51350000D01*
X171799042Y-51350000D01*
X171435493Y-51422314D01*
X171127291Y-51628249D01*
X170921356Y-51936451D01*
X170849042Y-52300000D01*
X136539514Y-52300000D01*
X136487746Y-52174714D01*
X136326137Y-52012823D01*
X136114876Y-51925100D01*
X135886127Y-51924900D01*
X135674714Y-52012254D01*
X135512823Y-52173863D01*
X135425100Y-52385124D01*
X135424900Y-52613873D01*
X88025000Y-52613873D01*
X88025000Y-51613873D01*
X117624900Y-51613873D01*
X117712254Y-51825286D01*
X117873863Y-51987177D01*
X118085124Y-52074900D01*
X118313873Y-52075100D01*
X118525286Y-51987746D01*
X118687177Y-51826137D01*
X118733792Y-51713873D01*
X167024900Y-51713873D01*
X167112254Y-51925286D01*
X167273863Y-52087177D01*
X167485124Y-52174900D01*
X167713873Y-52175100D01*
X167925286Y-52087746D01*
X168087177Y-51926137D01*
X168174900Y-51714876D01*
X168175100Y-51486127D01*
X168087746Y-51274714D01*
X167926137Y-51112823D01*
X167714876Y-51025100D01*
X167486127Y-51024900D01*
X167274714Y-51112254D01*
X167112823Y-51273863D01*
X167025100Y-51485124D01*
X167024900Y-51713873D01*
X118733792Y-51713873D01*
X118774900Y-51614876D01*
X118775100Y-51386127D01*
X118687746Y-51174714D01*
X118526137Y-51012823D01*
X118314876Y-50925100D01*
X118086127Y-50924900D01*
X117874714Y-51012254D01*
X117712823Y-51173863D01*
X117625100Y-51385124D01*
X117624900Y-51613873D01*
X88025000Y-51613873D01*
X88025000Y-50713873D01*
X118424900Y-50713873D01*
X118512254Y-50925286D01*
X118673863Y-51087177D01*
X118885124Y-51174900D01*
X119113873Y-51175100D01*
X119262053Y-51113873D01*
X124624900Y-51113873D01*
X124712254Y-51325286D01*
X124873863Y-51487177D01*
X125085124Y-51574900D01*
X125313873Y-51575100D01*
X125525286Y-51487746D01*
X125687177Y-51326137D01*
X125774900Y-51114876D01*
X125775100Y-50886127D01*
X125687746Y-50674714D01*
X125526137Y-50512823D01*
X125314876Y-50425100D01*
X125086127Y-50424900D01*
X124874714Y-50512254D01*
X124712823Y-50673863D01*
X124625100Y-50885124D01*
X124624900Y-51113873D01*
X119262053Y-51113873D01*
X119325286Y-51087746D01*
X119487177Y-50926137D01*
X119574900Y-50714876D01*
X119575100Y-50486127D01*
X119487746Y-50274714D01*
X119326137Y-50112823D01*
X119114876Y-50025100D01*
X118886127Y-50024900D01*
X118674714Y-50112254D01*
X118512823Y-50273863D01*
X118425100Y-50485124D01*
X118424900Y-50713873D01*
X88025000Y-50713873D01*
X88025000Y-46536667D01*
X88099706Y-46536667D01*
X88357970Y-47161715D01*
X88835770Y-47640350D01*
X89460366Y-47899704D01*
X90136667Y-47900294D01*
X90533321Y-47736400D01*
X92979544Y-47736400D01*
X92979544Y-49463600D01*
X93003949Y-49593302D01*
X93080603Y-49712425D01*
X93197563Y-49792341D01*
X93336400Y-49820456D01*
X95063600Y-49820456D01*
X95193302Y-49796051D01*
X95312425Y-49719397D01*
X95392341Y-49602437D01*
X95420456Y-49463600D01*
X95420456Y-48576224D01*
X95526400Y-48576224D01*
X95526400Y-48623776D01*
X95618780Y-49088201D01*
X95881855Y-49481921D01*
X96275575Y-49744996D01*
X96740000Y-49837376D01*
X97204425Y-49744996D01*
X97598145Y-49481921D01*
X97861220Y-49088201D01*
X97953600Y-48623776D01*
X97953600Y-48576224D01*
X97861220Y-48111799D01*
X97598145Y-47718079D01*
X97204425Y-47455004D01*
X96740000Y-47362624D01*
X96275575Y-47455004D01*
X95881855Y-47718079D01*
X95618780Y-48111799D01*
X95526400Y-48576224D01*
X95420456Y-48576224D01*
X95420456Y-47736400D01*
X95396051Y-47606698D01*
X95319397Y-47487575D01*
X95202437Y-47407659D01*
X95063600Y-47379544D01*
X93336400Y-47379544D01*
X93206698Y-47403949D01*
X93087575Y-47480603D01*
X93007659Y-47597563D01*
X92979544Y-47736400D01*
X90533321Y-47736400D01*
X90761715Y-47642030D01*
X91240350Y-47164230D01*
X91499704Y-46539634D01*
X91500143Y-46036224D01*
X92986400Y-46036224D01*
X92986400Y-46083776D01*
X93078780Y-46548201D01*
X93341855Y-46941921D01*
X93735575Y-47204996D01*
X94200000Y-47297376D01*
X94664425Y-47204996D01*
X95058145Y-46941921D01*
X95321220Y-46548201D01*
X95413600Y-46083776D01*
X95413600Y-46036224D01*
X95526400Y-46036224D01*
X95526400Y-46083776D01*
X95618780Y-46548201D01*
X95881855Y-46941921D01*
X96275575Y-47204996D01*
X96740000Y-47297376D01*
X97204425Y-47204996D01*
X97598145Y-46941921D01*
X97861220Y-46548201D01*
X97878343Y-46462117D01*
X98117012Y-46948604D01*
X98545593Y-47326019D01*
X98843571Y-47449435D01*
X98815575Y-47455004D01*
X98421855Y-47718079D01*
X98158780Y-48111799D01*
X98066400Y-48576224D01*
X98066400Y-48623776D01*
X98158780Y-49088201D01*
X98421855Y-49481921D01*
X98815575Y-49744996D01*
X99280000Y-49837376D01*
X99744425Y-49744996D01*
X100138145Y-49481921D01*
X100401220Y-49088201D01*
X100493600Y-48623776D01*
X100493600Y-48576224D01*
X100606400Y-48576224D01*
X100606400Y-48623776D01*
X100698780Y-49088201D01*
X100961855Y-49481921D01*
X101355575Y-49744996D01*
X101820000Y-49837376D01*
X102284425Y-49744996D01*
X102678145Y-49481921D01*
X102941220Y-49088201D01*
X102958343Y-49002117D01*
X103197012Y-49488604D01*
X103625593Y-49866019D01*
X103984095Y-50014503D01*
X104210000Y-49905008D01*
X104210000Y-48750000D01*
X104190000Y-48750000D01*
X104190000Y-48450000D01*
X104210000Y-48450000D01*
X104210000Y-48430000D01*
X104510000Y-48430000D01*
X104510000Y-48450000D01*
X104530000Y-48450000D01*
X104530000Y-48750000D01*
X104510000Y-48750000D01*
X104510000Y-49905008D01*
X104735905Y-50014503D01*
X105094407Y-49866019D01*
X105522988Y-49488604D01*
X105761657Y-49002117D01*
X105778780Y-49088201D01*
X106041855Y-49481921D01*
X106435575Y-49744996D01*
X106900000Y-49837376D01*
X107364425Y-49744996D01*
X107758145Y-49481921D01*
X108021220Y-49088201D01*
X108113600Y-48623776D01*
X108113600Y-48576224D01*
X108021220Y-48111799D01*
X107758145Y-47718079D01*
X107364425Y-47455004D01*
X106900000Y-47362624D01*
X106435575Y-47455004D01*
X106041855Y-47718079D01*
X105778780Y-48111799D01*
X105761657Y-48197883D01*
X105522988Y-47711396D01*
X105094407Y-47333981D01*
X104796429Y-47210565D01*
X104824425Y-47204996D01*
X105218145Y-46941921D01*
X105481220Y-46548201D01*
X105573600Y-46083776D01*
X105573600Y-46036224D01*
X105686400Y-46036224D01*
X105686400Y-46083776D01*
X105778780Y-46548201D01*
X106041855Y-46941921D01*
X106435575Y-47204996D01*
X106900000Y-47297376D01*
X107364425Y-47204996D01*
X107758145Y-46941921D01*
X108021220Y-46548201D01*
X108038343Y-46462117D01*
X108277012Y-46948604D01*
X108705593Y-47326019D01*
X109003571Y-47449435D01*
X108975575Y-47455004D01*
X108581855Y-47718079D01*
X108318780Y-48111799D01*
X108226400Y-48576224D01*
X108226400Y-48623776D01*
X108318780Y-49088201D01*
X108581855Y-49481921D01*
X108975575Y-49744996D01*
X109440000Y-49837376D01*
X109904425Y-49744996D01*
X110298145Y-49481921D01*
X110561220Y-49088201D01*
X110653600Y-48623776D01*
X110653600Y-48576224D01*
X110766400Y-48576224D01*
X110766400Y-48623776D01*
X110858780Y-49088201D01*
X111121855Y-49481921D01*
X111515575Y-49744996D01*
X111980000Y-49837376D01*
X112444425Y-49744996D01*
X112838145Y-49481921D01*
X113101220Y-49088201D01*
X113193600Y-48623776D01*
X113193600Y-48576224D01*
X113306400Y-48576224D01*
X113306400Y-48623776D01*
X113398780Y-49088201D01*
X113661855Y-49481921D01*
X114055575Y-49744996D01*
X114520000Y-49837376D01*
X114984425Y-49744996D01*
X115378145Y-49481921D01*
X115641220Y-49088201D01*
X115733600Y-48623776D01*
X115733600Y-48576224D01*
X115641220Y-48111799D01*
X115378145Y-47718079D01*
X114984425Y-47455004D01*
X114520000Y-47362624D01*
X114055575Y-47455004D01*
X113661855Y-47718079D01*
X113398780Y-48111799D01*
X113306400Y-48576224D01*
X113193600Y-48576224D01*
X113101220Y-48111799D01*
X112838145Y-47718079D01*
X112444425Y-47455004D01*
X111980000Y-47362624D01*
X111515575Y-47455004D01*
X111121855Y-47718079D01*
X110858780Y-48111799D01*
X110766400Y-48576224D01*
X110653600Y-48576224D01*
X110561220Y-48111799D01*
X110298145Y-47718079D01*
X109904425Y-47455004D01*
X109876429Y-47449435D01*
X110174407Y-47326019D01*
X110602988Y-46948604D01*
X110841657Y-46462117D01*
X110858780Y-46548201D01*
X111121855Y-46941921D01*
X111515575Y-47204996D01*
X111980000Y-47297376D01*
X112444425Y-47204996D01*
X112838145Y-46941921D01*
X113101220Y-46548201D01*
X113193600Y-46083776D01*
X113193600Y-46036224D01*
X113306400Y-46036224D01*
X113306400Y-46083776D01*
X113398780Y-46548201D01*
X113661855Y-46941921D01*
X114055575Y-47204996D01*
X114520000Y-47297376D01*
X114984425Y-47204996D01*
X115378145Y-46941921D01*
X115641220Y-46548201D01*
X115658343Y-46462117D01*
X115897012Y-46948604D01*
X116325593Y-47326019D01*
X116623571Y-47449435D01*
X116595575Y-47455004D01*
X116201855Y-47718079D01*
X115938780Y-48111799D01*
X115846400Y-48576224D01*
X115846400Y-48623776D01*
X115938780Y-49088201D01*
X116201855Y-49481921D01*
X116595575Y-49744996D01*
X117060000Y-49837376D01*
X117524425Y-49744996D01*
X117918145Y-49481921D01*
X118181220Y-49088201D01*
X118273600Y-48623776D01*
X118273600Y-48576224D01*
X118386400Y-48576224D01*
X118386400Y-48623776D01*
X118478780Y-49088201D01*
X118741855Y-49481921D01*
X119135575Y-49744996D01*
X119600000Y-49837376D01*
X120064425Y-49744996D01*
X120458145Y-49481921D01*
X120721220Y-49088201D01*
X120813600Y-48623776D01*
X120813600Y-48576224D01*
X120926400Y-48576224D01*
X120926400Y-48623776D01*
X121018780Y-49088201D01*
X121281855Y-49481921D01*
X121675575Y-49744996D01*
X122140000Y-49837376D01*
X122604425Y-49744996D01*
X122998145Y-49481921D01*
X123261220Y-49088201D01*
X123278343Y-49002117D01*
X123517012Y-49488604D01*
X123945593Y-49866019D01*
X124304095Y-50014503D01*
X124530000Y-49905008D01*
X124530000Y-48750000D01*
X124510000Y-48750000D01*
X124510000Y-48450000D01*
X124530000Y-48450000D01*
X124530000Y-48430000D01*
X124830000Y-48430000D01*
X124830000Y-48450000D01*
X124850000Y-48450000D01*
X124850000Y-48750000D01*
X124830000Y-48750000D01*
X124830000Y-49905008D01*
X125055905Y-50014503D01*
X125414407Y-49866019D01*
X125842988Y-49488604D01*
X126081657Y-49002117D01*
X126098780Y-49088201D01*
X126361855Y-49481921D01*
X126755575Y-49744996D01*
X127220000Y-49837376D01*
X127684425Y-49744996D01*
X128078145Y-49481921D01*
X128341220Y-49088201D01*
X128433600Y-48623776D01*
X128433600Y-48576224D01*
X128341220Y-48111799D01*
X128172639Y-47859499D01*
X128225286Y-47837746D01*
X128387177Y-47676137D01*
X128474900Y-47464876D01*
X128475100Y-47236127D01*
X128387746Y-47024714D01*
X128226137Y-46862823D01*
X128151660Y-46831898D01*
X128341220Y-46548201D01*
X128358343Y-46462117D01*
X128597012Y-46948604D01*
X129025593Y-47326019D01*
X129323571Y-47449435D01*
X129295575Y-47455004D01*
X128901855Y-47718079D01*
X128638780Y-48111799D01*
X128546400Y-48576224D01*
X128546400Y-48623776D01*
X128638780Y-49088201D01*
X128901855Y-49481921D01*
X129295575Y-49744996D01*
X129760000Y-49837376D01*
X130224425Y-49744996D01*
X130618145Y-49481921D01*
X130881220Y-49088201D01*
X130973600Y-48623776D01*
X130973600Y-48576224D01*
X131086400Y-48576224D01*
X131086400Y-48623776D01*
X131178780Y-49088201D01*
X131441855Y-49481921D01*
X131835575Y-49744996D01*
X132300000Y-49837376D01*
X132764425Y-49744996D01*
X133158145Y-49481921D01*
X133421220Y-49088201D01*
X133513600Y-48623776D01*
X133513600Y-48576224D01*
X133421220Y-48111799D01*
X133158145Y-47718079D01*
X132764425Y-47455004D01*
X132300000Y-47362624D01*
X131835575Y-47455004D01*
X131441855Y-47718079D01*
X131178780Y-48111799D01*
X131086400Y-48576224D01*
X130973600Y-48576224D01*
X130881220Y-48111799D01*
X130618145Y-47718079D01*
X130224425Y-47455004D01*
X130196429Y-47449435D01*
X130494407Y-47326019D01*
X130922988Y-46948604D01*
X131161657Y-46462117D01*
X131178780Y-46548201D01*
X131441855Y-46941921D01*
X131835575Y-47204996D01*
X132300000Y-47297376D01*
X132764425Y-47204996D01*
X133158145Y-46941921D01*
X133421220Y-46548201D01*
X133438343Y-46462117D01*
X133677012Y-46948604D01*
X134105593Y-47326019D01*
X134403571Y-47449435D01*
X134375575Y-47455004D01*
X133981855Y-47718079D01*
X133718780Y-48111799D01*
X133626400Y-48576224D01*
X133626400Y-48623776D01*
X133718780Y-49088201D01*
X133981855Y-49481921D01*
X134375575Y-49744996D01*
X134840000Y-49837376D01*
X135304425Y-49744996D01*
X135698145Y-49481921D01*
X135961220Y-49088201D01*
X136053600Y-48623776D01*
X136053600Y-48576224D01*
X136166400Y-48576224D01*
X136166400Y-48623776D01*
X136258780Y-49088201D01*
X136521855Y-49481921D01*
X136915575Y-49744996D01*
X137380000Y-49837376D01*
X137844425Y-49744996D01*
X138238145Y-49481921D01*
X138501220Y-49088201D01*
X138593600Y-48623776D01*
X138593600Y-48576224D01*
X138706400Y-48576224D01*
X138706400Y-48623776D01*
X138798780Y-49088201D01*
X139061855Y-49481921D01*
X139455575Y-49744996D01*
X139920000Y-49837376D01*
X140384425Y-49744996D01*
X140778145Y-49481921D01*
X141041220Y-49088201D01*
X141058343Y-49002117D01*
X141297012Y-49488604D01*
X141725593Y-49866019D01*
X142084095Y-50014503D01*
X142310000Y-49905008D01*
X142310000Y-48750000D01*
X142610000Y-48750000D01*
X142610000Y-49905008D01*
X142835905Y-50014503D01*
X143194407Y-49866019D01*
X143367179Y-49713873D01*
X167024900Y-49713873D01*
X167112254Y-49925286D01*
X167273863Y-50087177D01*
X167485124Y-50174900D01*
X167713873Y-50175100D01*
X167925286Y-50087746D01*
X168087177Y-49926137D01*
X168139553Y-49800000D01*
X170849042Y-49800000D01*
X170921356Y-50163549D01*
X171127291Y-50471751D01*
X171435493Y-50677686D01*
X171799042Y-50750000D01*
X172600958Y-50750000D01*
X172964507Y-50677686D01*
X173272709Y-50471751D01*
X173478644Y-50163549D01*
X173517474Y-49968334D01*
X176349853Y-49968334D01*
X176478985Y-50280857D01*
X176717885Y-50520174D01*
X177030183Y-50649852D01*
X177368334Y-50650147D01*
X177680857Y-50521015D01*
X177920174Y-50282115D01*
X178049852Y-49969817D01*
X178050147Y-49631666D01*
X177921015Y-49319143D01*
X177682115Y-49079826D01*
X177369817Y-48950148D01*
X177031666Y-48949853D01*
X176719143Y-49078985D01*
X176479826Y-49317885D01*
X176350148Y-49630183D01*
X176349853Y-49968334D01*
X173517474Y-49968334D01*
X173550958Y-49800000D01*
X173478644Y-49436451D01*
X173272709Y-49128249D01*
X172964507Y-48922314D01*
X172600958Y-48850000D01*
X171799042Y-48850000D01*
X171435493Y-48922314D01*
X171127291Y-49128249D01*
X170921356Y-49436451D01*
X170849042Y-49800000D01*
X168139553Y-49800000D01*
X168174900Y-49714876D01*
X168175100Y-49486127D01*
X168087746Y-49274714D01*
X167926137Y-49112823D01*
X167714876Y-49025100D01*
X167486127Y-49024900D01*
X167274714Y-49112254D01*
X167112823Y-49273863D01*
X167025100Y-49485124D01*
X167024900Y-49713873D01*
X143367179Y-49713873D01*
X143622988Y-49488604D01*
X143874515Y-48975907D01*
X143765905Y-48750000D01*
X142610000Y-48750000D01*
X142310000Y-48750000D01*
X142290000Y-48750000D01*
X142290000Y-48450000D01*
X142310000Y-48450000D01*
X142310000Y-48430000D01*
X142610000Y-48430000D01*
X142610000Y-48450000D01*
X143765905Y-48450000D01*
X143874515Y-48224093D01*
X143624204Y-47713873D01*
X156824900Y-47713873D01*
X156912254Y-47925286D01*
X157073863Y-48087177D01*
X157285124Y-48174900D01*
X157513873Y-48175100D01*
X157725286Y-48087746D01*
X157887177Y-47926137D01*
X157974900Y-47714876D01*
X157975100Y-47486127D01*
X157887746Y-47274714D01*
X157726137Y-47112823D01*
X157514876Y-47025100D01*
X157286127Y-47024900D01*
X157074714Y-47112254D01*
X156912823Y-47273863D01*
X156825100Y-47485124D01*
X156824900Y-47713873D01*
X143624204Y-47713873D01*
X143622988Y-47711396D01*
X143194407Y-47333981D01*
X142896429Y-47210565D01*
X142924425Y-47204996D01*
X143318145Y-46941921D01*
X143581220Y-46548201D01*
X143583514Y-46536667D01*
X176899706Y-46536667D01*
X177157970Y-47161715D01*
X177635770Y-47640350D01*
X178260366Y-47899704D01*
X178936667Y-47900294D01*
X179561715Y-47642030D01*
X180040350Y-47164230D01*
X180299704Y-46539634D01*
X180300294Y-45863333D01*
X180042030Y-45238285D01*
X179564230Y-44759650D01*
X178939634Y-44500296D01*
X178263333Y-44499706D01*
X177638285Y-44757970D01*
X177159650Y-45235770D01*
X176900296Y-45860366D01*
X176899706Y-46536667D01*
X143583514Y-46536667D01*
X143673600Y-46083776D01*
X143673600Y-46036224D01*
X143581220Y-45571799D01*
X143318145Y-45178079D01*
X142924425Y-44915004D01*
X142460000Y-44822624D01*
X141995575Y-44915004D01*
X141601855Y-45178079D01*
X141338780Y-45571799D01*
X141246400Y-46036224D01*
X141246400Y-46083776D01*
X141338780Y-46548201D01*
X141601855Y-46941921D01*
X141995575Y-47204996D01*
X142023571Y-47210565D01*
X141725593Y-47333981D01*
X141297012Y-47711396D01*
X141058343Y-48197883D01*
X141041220Y-48111799D01*
X140778145Y-47718079D01*
X140384425Y-47455004D01*
X139920000Y-47362624D01*
X139455575Y-47455004D01*
X139061855Y-47718079D01*
X138798780Y-48111799D01*
X138706400Y-48576224D01*
X138593600Y-48576224D01*
X138501220Y-48111799D01*
X138238145Y-47718079D01*
X137844425Y-47455004D01*
X137380000Y-47362624D01*
X136915575Y-47455004D01*
X136521855Y-47718079D01*
X136258780Y-48111799D01*
X136166400Y-48576224D01*
X136053600Y-48576224D01*
X135961220Y-48111799D01*
X135698145Y-47718079D01*
X135304425Y-47455004D01*
X135276429Y-47449435D01*
X135574407Y-47326019D01*
X136002988Y-46948604D01*
X136241657Y-46462117D01*
X136258780Y-46548201D01*
X136521855Y-46941921D01*
X136915575Y-47204996D01*
X137380000Y-47297376D01*
X137844425Y-47204996D01*
X138238145Y-46941921D01*
X138501220Y-46548201D01*
X138593600Y-46083776D01*
X138593600Y-46036224D01*
X138706400Y-46036224D01*
X138706400Y-46083776D01*
X138798780Y-46548201D01*
X139061855Y-46941921D01*
X139455575Y-47204996D01*
X139920000Y-47297376D01*
X140384425Y-47204996D01*
X140778145Y-46941921D01*
X141041220Y-46548201D01*
X141133600Y-46083776D01*
X141133600Y-46036224D01*
X141041220Y-45571799D01*
X140778145Y-45178079D01*
X140384425Y-44915004D01*
X139920000Y-44822624D01*
X139455575Y-44915004D01*
X139061855Y-45178079D01*
X138798780Y-45571799D01*
X138706400Y-46036224D01*
X138593600Y-46036224D01*
X138501220Y-45571799D01*
X138238145Y-45178079D01*
X137844425Y-44915004D01*
X137380000Y-44822624D01*
X136915575Y-44915004D01*
X136521855Y-45178079D01*
X136258780Y-45571799D01*
X136241657Y-45657883D01*
X136002988Y-45171396D01*
X135574407Y-44793981D01*
X135215905Y-44645497D01*
X134990000Y-44754992D01*
X134990000Y-45910000D01*
X135010000Y-45910000D01*
X135010000Y-46210000D01*
X134990000Y-46210000D01*
X134990000Y-46230000D01*
X134690000Y-46230000D01*
X134690000Y-46210000D01*
X134670000Y-46210000D01*
X134670000Y-45910000D01*
X134690000Y-45910000D01*
X134690000Y-44754992D01*
X134464095Y-44645497D01*
X134105593Y-44793981D01*
X133677012Y-45171396D01*
X133438343Y-45657883D01*
X133421220Y-45571799D01*
X133158145Y-45178079D01*
X132764425Y-44915004D01*
X132300000Y-44822624D01*
X131835575Y-44915004D01*
X131441855Y-45178079D01*
X131178780Y-45571799D01*
X131161657Y-45657883D01*
X130922988Y-45171396D01*
X130494407Y-44793981D01*
X130135905Y-44645497D01*
X129910000Y-44754992D01*
X129910000Y-45910000D01*
X129930000Y-45910000D01*
X129930000Y-46210000D01*
X129910000Y-46210000D01*
X129910000Y-46230000D01*
X129610000Y-46230000D01*
X129610000Y-46210000D01*
X129590000Y-46210000D01*
X129590000Y-45910000D01*
X129610000Y-45910000D01*
X129610000Y-44754992D01*
X129384095Y-44645497D01*
X129025593Y-44793981D01*
X128597012Y-45171396D01*
X128358343Y-45657883D01*
X128341220Y-45571799D01*
X128078145Y-45178079D01*
X127684425Y-44915004D01*
X127220000Y-44822624D01*
X126755575Y-44915004D01*
X126361855Y-45178079D01*
X126098780Y-45571799D01*
X126006400Y-46036224D01*
X126006400Y-46083776D01*
X126098780Y-46548201D01*
X126361855Y-46941921D01*
X126755575Y-47204996D01*
X127220000Y-47297376D01*
X127325064Y-47276477D01*
X127324970Y-47383504D01*
X127220000Y-47362624D01*
X126755575Y-47455004D01*
X126361855Y-47718079D01*
X126098780Y-48111799D01*
X126081657Y-48197883D01*
X125842988Y-47711396D01*
X125414407Y-47333981D01*
X125116429Y-47210565D01*
X125144425Y-47204996D01*
X125538145Y-46941921D01*
X125801220Y-46548201D01*
X125893600Y-46083776D01*
X125893600Y-46036224D01*
X125801220Y-45571799D01*
X125538145Y-45178079D01*
X125144425Y-44915004D01*
X124680000Y-44822624D01*
X124215575Y-44915004D01*
X123821855Y-45178079D01*
X123558780Y-45571799D01*
X123466400Y-46036224D01*
X123466400Y-46083776D01*
X123558780Y-46548201D01*
X123821855Y-46941921D01*
X124215575Y-47204996D01*
X124243571Y-47210565D01*
X123945593Y-47333981D01*
X123517012Y-47711396D01*
X123278343Y-48197883D01*
X123261220Y-48111799D01*
X122998145Y-47718079D01*
X122604425Y-47455004D01*
X122140000Y-47362624D01*
X121675575Y-47455004D01*
X121281855Y-47718079D01*
X121018780Y-48111799D01*
X120926400Y-48576224D01*
X120813600Y-48576224D01*
X120721220Y-48111799D01*
X120458145Y-47718079D01*
X120064425Y-47455004D01*
X119600000Y-47362624D01*
X119135575Y-47455004D01*
X118741855Y-47718079D01*
X118478780Y-48111799D01*
X118386400Y-48576224D01*
X118273600Y-48576224D01*
X118181220Y-48111799D01*
X117918145Y-47718079D01*
X117524425Y-47455004D01*
X117496429Y-47449435D01*
X117794407Y-47326019D01*
X118222988Y-46948604D01*
X118461657Y-46462117D01*
X118478780Y-46548201D01*
X118741855Y-46941921D01*
X119135575Y-47204996D01*
X119600000Y-47297376D01*
X120064425Y-47204996D01*
X120458145Y-46941921D01*
X120721220Y-46548201D01*
X120813600Y-46083776D01*
X120813600Y-46036224D01*
X120926400Y-46036224D01*
X120926400Y-46083776D01*
X121018780Y-46548201D01*
X121281855Y-46941921D01*
X121675575Y-47204996D01*
X122140000Y-47297376D01*
X122604425Y-47204996D01*
X122998145Y-46941921D01*
X123261220Y-46548201D01*
X123353600Y-46083776D01*
X123353600Y-46036224D01*
X123261220Y-45571799D01*
X122998145Y-45178079D01*
X122604425Y-44915004D01*
X122140000Y-44822624D01*
X121675575Y-44915004D01*
X121281855Y-45178079D01*
X121018780Y-45571799D01*
X120926400Y-46036224D01*
X120813600Y-46036224D01*
X120721220Y-45571799D01*
X120458145Y-45178079D01*
X120064425Y-44915004D01*
X119600000Y-44822624D01*
X119135575Y-44915004D01*
X118741855Y-45178079D01*
X118478780Y-45571799D01*
X118461657Y-45657883D01*
X118222988Y-45171396D01*
X117794407Y-44793981D01*
X117435905Y-44645497D01*
X117210000Y-44754992D01*
X117210000Y-45910000D01*
X117230000Y-45910000D01*
X117230000Y-46210000D01*
X117210000Y-46210000D01*
X117210000Y-46230000D01*
X116910000Y-46230000D01*
X116910000Y-46210000D01*
X116890000Y-46210000D01*
X116890000Y-45910000D01*
X116910000Y-45910000D01*
X116910000Y-44754992D01*
X116684095Y-44645497D01*
X116325593Y-44793981D01*
X115897012Y-45171396D01*
X115658343Y-45657883D01*
X115641220Y-45571799D01*
X115378145Y-45178079D01*
X114984425Y-44915004D01*
X114520000Y-44822624D01*
X114055575Y-44915004D01*
X113661855Y-45178079D01*
X113398780Y-45571799D01*
X113306400Y-46036224D01*
X113193600Y-46036224D01*
X113101220Y-45571799D01*
X112838145Y-45178079D01*
X112444425Y-44915004D01*
X111980000Y-44822624D01*
X111515575Y-44915004D01*
X111121855Y-45178079D01*
X110858780Y-45571799D01*
X110841657Y-45657883D01*
X110602988Y-45171396D01*
X110174407Y-44793981D01*
X109815905Y-44645497D01*
X109590000Y-44754992D01*
X109590000Y-45910000D01*
X109610000Y-45910000D01*
X109610000Y-46210000D01*
X109590000Y-46210000D01*
X109590000Y-46230000D01*
X109290000Y-46230000D01*
X109290000Y-46210000D01*
X109270000Y-46210000D01*
X109270000Y-45910000D01*
X109290000Y-45910000D01*
X109290000Y-44754992D01*
X109064095Y-44645497D01*
X108705593Y-44793981D01*
X108277012Y-45171396D01*
X108038343Y-45657883D01*
X108021220Y-45571799D01*
X107758145Y-45178079D01*
X107364425Y-44915004D01*
X106900000Y-44822624D01*
X106435575Y-44915004D01*
X106041855Y-45178079D01*
X105778780Y-45571799D01*
X105686400Y-46036224D01*
X105573600Y-46036224D01*
X105481220Y-45571799D01*
X105218145Y-45178079D01*
X104824425Y-44915004D01*
X104360000Y-44822624D01*
X103895575Y-44915004D01*
X103501855Y-45178079D01*
X103238780Y-45571799D01*
X103146400Y-46036224D01*
X103146400Y-46083776D01*
X103238780Y-46548201D01*
X103501855Y-46941921D01*
X103895575Y-47204996D01*
X103923571Y-47210565D01*
X103625593Y-47333981D01*
X103197012Y-47711396D01*
X102958343Y-48197883D01*
X102941220Y-48111799D01*
X102678145Y-47718079D01*
X102284425Y-47455004D01*
X101820000Y-47362624D01*
X101355575Y-47455004D01*
X100961855Y-47718079D01*
X100698780Y-48111799D01*
X100606400Y-48576224D01*
X100493600Y-48576224D01*
X100401220Y-48111799D01*
X100138145Y-47718079D01*
X99744425Y-47455004D01*
X99716429Y-47449435D01*
X100014407Y-47326019D01*
X100442988Y-46948604D01*
X100681657Y-46462117D01*
X100698780Y-46548201D01*
X100961855Y-46941921D01*
X101355575Y-47204996D01*
X101820000Y-47297376D01*
X102284425Y-47204996D01*
X102678145Y-46941921D01*
X102941220Y-46548201D01*
X103033600Y-46083776D01*
X103033600Y-46036224D01*
X102941220Y-45571799D01*
X102678145Y-45178079D01*
X102284425Y-44915004D01*
X101820000Y-44822624D01*
X101355575Y-44915004D01*
X100961855Y-45178079D01*
X100698780Y-45571799D01*
X100681657Y-45657883D01*
X100442988Y-45171396D01*
X100014407Y-44793981D01*
X99655905Y-44645497D01*
X99430000Y-44754992D01*
X99430000Y-45910000D01*
X99450000Y-45910000D01*
X99450000Y-46210000D01*
X99430000Y-46210000D01*
X99430000Y-46230000D01*
X99130000Y-46230000D01*
X99130000Y-46210000D01*
X99110000Y-46210000D01*
X99110000Y-45910000D01*
X99130000Y-45910000D01*
X99130000Y-44754992D01*
X98904095Y-44645497D01*
X98545593Y-44793981D01*
X98117012Y-45171396D01*
X97878343Y-45657883D01*
X97861220Y-45571799D01*
X97598145Y-45178079D01*
X97204425Y-44915004D01*
X96740000Y-44822624D01*
X96275575Y-44915004D01*
X95881855Y-45178079D01*
X95618780Y-45571799D01*
X95526400Y-46036224D01*
X95413600Y-46036224D01*
X95321220Y-45571799D01*
X95058145Y-45178079D01*
X94664425Y-44915004D01*
X94200000Y-44822624D01*
X93735575Y-44915004D01*
X93341855Y-45178079D01*
X93078780Y-45571799D01*
X92986400Y-46036224D01*
X91500143Y-46036224D01*
X91500294Y-45863333D01*
X91242030Y-45238285D01*
X90764230Y-44759650D01*
X90139634Y-44500296D01*
X89463333Y-44499706D01*
X88838285Y-44757970D01*
X88359650Y-45235770D01*
X88100296Y-45860366D01*
X88099706Y-46536667D01*
X88025000Y-46536667D01*
X88025000Y-46041860D01*
X88152583Y-45400459D01*
X88492194Y-44892194D01*
X89000460Y-44552582D01*
X89641860Y-44425000D01*
X178758140Y-44425000D01*
X179399541Y-44552583D01*
X179399541Y-44552583D01*
G37*
X179399541Y-44552583D02*
X179907806Y-44892194D01*
X180247418Y-45400460D01*
X180375000Y-46041860D01*
X180375000Y-49273048D01*
X180182115Y-49079826D01*
X179869817Y-48950148D01*
X179531666Y-48949853D01*
X179219143Y-49078985D01*
X178979826Y-49317885D01*
X178850148Y-49630183D01*
X178849853Y-49968334D01*
X178978985Y-50280857D01*
X179217885Y-50520174D01*
X179530183Y-50649852D01*
X179868334Y-50650147D01*
X180180857Y-50521015D01*
X180375000Y-50327210D01*
X180375000Y-59273048D01*
X180182115Y-59079826D01*
X179869817Y-58950148D01*
X179531666Y-58949853D01*
X179219143Y-59078985D01*
X178979826Y-59317885D01*
X178850148Y-59630183D01*
X178849853Y-59968334D01*
X178978985Y-60280857D01*
X179217885Y-60520174D01*
X179530183Y-60649852D01*
X179868334Y-60650147D01*
X180180857Y-60521015D01*
X180375000Y-60327210D01*
X180375000Y-104358140D01*
X180247418Y-104999540D01*
X179907806Y-105507806D01*
X179399541Y-105847417D01*
X178758140Y-105975000D01*
X89641860Y-105975000D01*
X89000460Y-105847418D01*
X88492194Y-105507806D01*
X88152583Y-104999541D01*
X88060512Y-104536667D01*
X88099706Y-104536667D01*
X88357970Y-105161715D01*
X88835770Y-105640350D01*
X89460366Y-105899704D01*
X90136667Y-105900294D01*
X90761715Y-105642030D01*
X91240350Y-105164230D01*
X91427353Y-104713873D01*
X127024900Y-104713873D01*
X127112254Y-104925286D01*
X127273863Y-105087177D01*
X127485124Y-105174900D01*
X127713873Y-105175100D01*
X127925286Y-105087746D01*
X128087177Y-104926137D01*
X128092269Y-104913873D01*
X137824900Y-104913873D01*
X137912254Y-105125286D01*
X138073863Y-105287177D01*
X138285124Y-105374900D01*
X138513873Y-105375100D01*
X138725286Y-105287746D01*
X138887177Y-105126137D01*
X138974900Y-104914876D01*
X138975100Y-104686127D01*
X138913345Y-104536667D01*
X176899706Y-104536667D01*
X177157970Y-105161715D01*
X177635770Y-105640350D01*
X178260366Y-105899704D01*
X178936667Y-105900294D01*
X179561715Y-105642030D01*
X180040350Y-105164230D01*
X180299704Y-104539634D01*
X180300294Y-103863333D01*
X180042030Y-103238285D01*
X179564230Y-102759650D01*
X178939634Y-102500296D01*
X178263333Y-102499706D01*
X177638285Y-102757970D01*
X177159650Y-103235770D01*
X176900296Y-103860366D01*
X176899706Y-104536667D01*
X138913345Y-104536667D01*
X138887746Y-104474714D01*
X138726137Y-104312823D01*
X138514876Y-104225100D01*
X138286127Y-104224900D01*
X138074714Y-104312254D01*
X137912823Y-104473863D01*
X137825100Y-104685124D01*
X137824900Y-104913873D01*
X128092269Y-104913873D01*
X128174900Y-104714876D01*
X128175100Y-104486127D01*
X128087746Y-104274714D01*
X127926137Y-104112823D01*
X127714876Y-104025100D01*
X127486127Y-104024900D01*
X127274714Y-104112254D01*
X127112823Y-104273863D01*
X127025100Y-104485124D01*
X127024900Y-104713873D01*
X91427353Y-104713873D01*
X91499704Y-104539634D01*
X91500294Y-103863333D01*
X91242030Y-103238285D01*
X90874388Y-102870000D01*
X116600000Y-102870000D01*
X116600000Y-103270000D01*
X116760165Y-103775205D01*
X117101472Y-104180661D01*
X117591968Y-104421658D01*
X117800000Y-104310588D01*
X117800000Y-102870000D01*
X118100000Y-102870000D01*
X118100000Y-104310588D01*
X118308032Y-104421658D01*
X118798528Y-104180661D01*
X119139835Y-103775205D01*
X119300000Y-103270000D01*
X119300000Y-102870000D01*
X118100000Y-102870000D01*
X117800000Y-102870000D01*
X116600000Y-102870000D01*
X90874388Y-102870000D01*
X90764230Y-102759650D01*
X90653987Y-102713873D01*
X126624900Y-102713873D01*
X126712254Y-102925286D01*
X126873863Y-103087177D01*
X127085124Y-103174900D01*
X127313873Y-103175100D01*
X127525286Y-103087746D01*
X127687177Y-102926137D01*
X127710487Y-102870000D01*
X131100000Y-102870000D01*
X131100000Y-103270000D01*
X131260165Y-103775205D01*
X131601472Y-104180661D01*
X132091968Y-104421658D01*
X132300000Y-104310588D01*
X132300000Y-102870000D01*
X132600000Y-102870000D01*
X132600000Y-104310588D01*
X132808032Y-104421658D01*
X133298528Y-104180661D01*
X133639835Y-103775205D01*
X133800000Y-103270000D01*
X133800000Y-102870000D01*
X132600000Y-102870000D01*
X132300000Y-102870000D01*
X131100000Y-102870000D01*
X127710487Y-102870000D01*
X127774900Y-102714876D01*
X127775100Y-102486127D01*
X127687746Y-102274714D01*
X127583215Y-102170000D01*
X131100000Y-102170000D01*
X131100000Y-102570000D01*
X132300000Y-102570000D01*
X132300000Y-101129412D01*
X132600000Y-101129412D01*
X132600000Y-102570000D01*
X133800000Y-102570000D01*
X133800000Y-102170000D01*
X133718801Y-101913873D01*
X149624900Y-101913873D01*
X149712254Y-102125286D01*
X149873863Y-102287177D01*
X150085124Y-102374900D01*
X150313873Y-102375100D01*
X150525286Y-102287746D01*
X150687177Y-102126137D01*
X150774900Y-101914876D01*
X150775100Y-101686127D01*
X150687746Y-101474714D01*
X150526137Y-101312823D01*
X150314876Y-101225100D01*
X150086127Y-101224900D01*
X149874714Y-101312254D01*
X149712823Y-101473863D01*
X149625100Y-101685124D01*
X149624900Y-101913873D01*
X133718801Y-101913873D01*
X133639835Y-101664795D01*
X133298528Y-101259339D01*
X132808032Y-101018342D01*
X132600000Y-101129412D01*
X132300000Y-101129412D01*
X132091968Y-101018342D01*
X131601472Y-101259339D01*
X131260165Y-101664795D01*
X131100000Y-102170000D01*
X127583215Y-102170000D01*
X127526137Y-102112823D01*
X127314876Y-102025100D01*
X127086127Y-102024900D01*
X126874714Y-102112254D01*
X126712823Y-102273863D01*
X126625100Y-102485124D01*
X126624900Y-102713873D01*
X90653987Y-102713873D01*
X90139634Y-102500296D01*
X89463333Y-102499706D01*
X88838285Y-102757970D01*
X88359650Y-103235770D01*
X88100296Y-103860366D01*
X88099706Y-104536667D01*
X88060512Y-104536667D01*
X88025000Y-104358140D01*
X88025000Y-102170000D01*
X116600000Y-102170000D01*
X116600000Y-102570000D01*
X117800000Y-102570000D01*
X117800000Y-101129412D01*
X118100000Y-101129412D01*
X118100000Y-102570000D01*
X119300000Y-102570000D01*
X119300000Y-102170000D01*
X119139835Y-101664795D01*
X119012792Y-101513873D01*
X124424900Y-101513873D01*
X124512254Y-101725286D01*
X124673863Y-101887177D01*
X124885124Y-101974900D01*
X125113873Y-101975100D01*
X125325286Y-101887746D01*
X125487177Y-101726137D01*
X125574900Y-101514876D01*
X125575100Y-101286127D01*
X125487746Y-101074714D01*
X125326137Y-100912823D01*
X125114876Y-100825100D01*
X124886127Y-100824900D01*
X124674714Y-100912254D01*
X124512823Y-101073863D01*
X124425100Y-101285124D01*
X124424900Y-101513873D01*
X119012792Y-101513873D01*
X118798528Y-101259339D01*
X118308032Y-101018342D01*
X118100000Y-101129412D01*
X117800000Y-101129412D01*
X117591968Y-101018342D01*
X117101472Y-101259339D01*
X116760165Y-101664795D01*
X116600000Y-102170000D01*
X88025000Y-102170000D01*
X88025000Y-101513873D01*
X113224900Y-101513873D01*
X113312254Y-101725286D01*
X113473863Y-101887177D01*
X113685124Y-101974900D01*
X113913873Y-101975100D01*
X114125286Y-101887746D01*
X114287177Y-101726137D01*
X114374900Y-101514876D01*
X114375100Y-101286127D01*
X114287746Y-101074714D01*
X114126137Y-100912823D01*
X113914876Y-100825100D01*
X113686127Y-100824900D01*
X113474714Y-100912254D01*
X113312823Y-101073863D01*
X113225100Y-101285124D01*
X113224900Y-101513873D01*
X88025000Y-101513873D01*
X88025000Y-99913873D01*
X118024900Y-99913873D01*
X118112254Y-100125286D01*
X118273863Y-100287177D01*
X118485124Y-100374900D01*
X118713873Y-100375100D01*
X118862053Y-100313873D01*
X129624900Y-100313873D01*
X129712254Y-100525286D01*
X129873863Y-100687177D01*
X130085124Y-100774900D01*
X130313873Y-100775100D01*
X130425062Y-100729158D01*
X130424900Y-100913873D01*
X130512254Y-101125286D01*
X130673863Y-101287177D01*
X130885124Y-101374900D01*
X131113873Y-101375100D01*
X131325286Y-101287746D01*
X131487177Y-101126137D01*
X131574900Y-100914876D01*
X131575100Y-100686127D01*
X131568443Y-100670015D01*
X169072118Y-100670015D01*
X169235913Y-100976131D01*
X170017244Y-101271883D01*
X170852278Y-101246119D01*
X171504087Y-100976131D01*
X171667882Y-100670015D01*
X170370000Y-99372132D01*
X169072118Y-100670015D01*
X131568443Y-100670015D01*
X131487746Y-100474714D01*
X131326137Y-100312823D01*
X131114876Y-100225100D01*
X130886127Y-100224900D01*
X130774938Y-100270842D01*
X130775100Y-100086127D01*
X130687746Y-99874714D01*
X130526137Y-99712823D01*
X130314876Y-99625100D01*
X130086127Y-99624900D01*
X129874714Y-99712254D01*
X129712823Y-99873863D01*
X129625100Y-100085124D01*
X129624900Y-100313873D01*
X118862053Y-100313873D01*
X118925286Y-100287746D01*
X119087177Y-100126137D01*
X119174900Y-99914876D01*
X119175100Y-99686127D01*
X119087746Y-99474714D01*
X118927186Y-99313873D01*
X121624900Y-99313873D01*
X121712254Y-99525286D01*
X121873863Y-99687177D01*
X122085124Y-99774900D01*
X122313873Y-99775100D01*
X122525286Y-99687746D01*
X122687177Y-99526137D01*
X122774900Y-99314876D01*
X122774900Y-99313873D01*
X123624900Y-99313873D01*
X123712254Y-99525286D01*
X123873863Y-99687177D01*
X124085124Y-99774900D01*
X124313873Y-99775100D01*
X124525286Y-99687746D01*
X124687177Y-99526137D01*
X124774900Y-99314876D01*
X124775100Y-99086127D01*
X124687746Y-98874714D01*
X124527186Y-98713873D01*
X128024900Y-98713873D01*
X128112254Y-98925286D01*
X128273863Y-99087177D01*
X128485124Y-99174900D01*
X128713873Y-99175100D01*
X128925286Y-99087746D01*
X129087177Y-98926137D01*
X129174900Y-98714876D01*
X129175100Y-98486127D01*
X129087746Y-98274714D01*
X128926137Y-98112823D01*
X128714876Y-98025100D01*
X128486127Y-98024900D01*
X128274714Y-98112254D01*
X128112823Y-98273863D01*
X128025100Y-98485124D01*
X128024900Y-98713873D01*
X124527186Y-98713873D01*
X124526137Y-98712823D01*
X124314876Y-98625100D01*
X124086127Y-98624900D01*
X123874714Y-98712254D01*
X123712823Y-98873863D01*
X123625100Y-99085124D01*
X123624900Y-99313873D01*
X122774900Y-99313873D01*
X122775100Y-99086127D01*
X122687746Y-98874714D01*
X122526137Y-98712823D01*
X122314876Y-98625100D01*
X122086127Y-98624900D01*
X121874714Y-98712254D01*
X121712823Y-98873863D01*
X121625100Y-99085124D01*
X121624900Y-99313873D01*
X118927186Y-99313873D01*
X118926137Y-99312823D01*
X118714876Y-99225100D01*
X118486127Y-99224900D01*
X118274714Y-99312254D01*
X118112823Y-99473863D01*
X118025100Y-99685124D01*
X118024900Y-99913873D01*
X88025000Y-99913873D01*
X88025000Y-98713873D01*
X109224900Y-98713873D01*
X109312254Y-98925286D01*
X109473863Y-99087177D01*
X109685124Y-99174900D01*
X109913873Y-99175100D01*
X110062053Y-99113873D01*
X115424900Y-99113873D01*
X115512254Y-99325286D01*
X115673863Y-99487177D01*
X115885124Y-99574900D01*
X116113873Y-99575100D01*
X116325286Y-99487746D01*
X116487177Y-99326137D01*
X116574900Y-99114876D01*
X116575100Y-98886127D01*
X116487746Y-98674714D01*
X116326137Y-98512823D01*
X116114876Y-98425100D01*
X115886127Y-98424900D01*
X115674714Y-98512254D01*
X115512823Y-98673863D01*
X115425100Y-98885124D01*
X115424900Y-99113873D01*
X110062053Y-99113873D01*
X110125286Y-99087746D01*
X110287177Y-98926137D01*
X110374900Y-98714876D01*
X110375100Y-98486127D01*
X110326986Y-98369682D01*
X110525286Y-98287746D01*
X110687177Y-98126137D01*
X110774900Y-97914876D01*
X110775100Y-97686127D01*
X110726986Y-97569682D01*
X110925286Y-97487746D01*
X111087177Y-97326137D01*
X111174900Y-97114876D01*
X111174900Y-97113873D01*
X115424900Y-97113873D01*
X115512254Y-97325286D01*
X115673863Y-97487177D01*
X115885124Y-97574900D01*
X116113873Y-97575100D01*
X116325286Y-97487746D01*
X116487177Y-97326137D01*
X116574900Y-97114876D01*
X116575079Y-96910000D01*
X116600000Y-96910000D01*
X116600000Y-97810000D01*
X116760165Y-98315205D01*
X117101472Y-98720661D01*
X117591968Y-98961658D01*
X117800000Y-98850588D01*
X117800000Y-96910000D01*
X118100000Y-96910000D01*
X118100000Y-98850588D01*
X118308032Y-98961658D01*
X118798528Y-98720661D01*
X118804242Y-98713873D01*
X120624900Y-98713873D01*
X120712254Y-98925286D01*
X120873863Y-99087177D01*
X121085124Y-99174900D01*
X121313873Y-99175100D01*
X121525286Y-99087746D01*
X121687177Y-98926137D01*
X121774900Y-98714876D01*
X121775100Y-98486127D01*
X121687746Y-98274714D01*
X121526137Y-98112823D01*
X121314876Y-98025100D01*
X121086127Y-98024900D01*
X120874714Y-98112254D01*
X120712823Y-98273863D01*
X120625100Y-98485124D01*
X120624900Y-98713873D01*
X118804242Y-98713873D01*
X119139835Y-98315205D01*
X119300000Y-97810000D01*
X119300000Y-96910000D01*
X131100000Y-96910000D01*
X131100000Y-97810000D01*
X131260165Y-98315205D01*
X131601472Y-98720661D01*
X132091968Y-98961658D01*
X132300000Y-98850588D01*
X132300000Y-96910000D01*
X132600000Y-96910000D01*
X132600000Y-98850588D01*
X132808032Y-98961658D01*
X133298528Y-98720661D01*
X133472599Y-98513873D01*
X137424900Y-98513873D01*
X137512254Y-98725286D01*
X137673863Y-98887177D01*
X137885124Y-98974900D01*
X138113873Y-98975100D01*
X138325286Y-98887746D01*
X138405928Y-98807244D01*
X168258117Y-98807244D01*
X168283881Y-99642278D01*
X168553869Y-100294087D01*
X168859985Y-100457882D01*
X170157868Y-99160000D01*
X170582132Y-99160000D01*
X171880015Y-100457882D01*
X172186131Y-100294087D01*
X172481883Y-99512756D01*
X172456119Y-98677722D01*
X172186131Y-98025913D01*
X171880015Y-97862118D01*
X170582132Y-99160000D01*
X170157868Y-99160000D01*
X168859985Y-97862118D01*
X168553869Y-98025913D01*
X168258117Y-98807244D01*
X138405928Y-98807244D01*
X138487177Y-98726137D01*
X138574900Y-98514876D01*
X138574935Y-98475066D01*
X138613873Y-98475100D01*
X138825286Y-98387746D01*
X138975927Y-98237368D01*
X139012254Y-98325286D01*
X139173863Y-98487177D01*
X139385124Y-98574900D01*
X139613873Y-98575100D01*
X139825286Y-98487746D01*
X139987177Y-98326137D01*
X140049916Y-98175044D01*
X140113873Y-98175100D01*
X140325286Y-98087746D01*
X140487177Y-97926137D01*
X140574900Y-97714876D01*
X140574956Y-97649985D01*
X169072118Y-97649985D01*
X170370000Y-98947868D01*
X171667882Y-97649985D01*
X171504087Y-97343869D01*
X170722756Y-97048117D01*
X169887722Y-97073881D01*
X169235913Y-97343869D01*
X169072118Y-97649985D01*
X140574956Y-97649985D01*
X140575100Y-97486127D01*
X140487746Y-97274714D01*
X140326137Y-97112823D01*
X140114876Y-97025100D01*
X139886127Y-97024900D01*
X139674714Y-97112254D01*
X139512823Y-97273863D01*
X139450084Y-97424956D01*
X139386127Y-97424900D01*
X139174714Y-97512254D01*
X139024073Y-97662632D01*
X138987746Y-97574714D01*
X138826137Y-97412823D01*
X138614876Y-97325100D01*
X138386127Y-97324900D01*
X138174714Y-97412254D01*
X138012823Y-97573863D01*
X137925100Y-97785124D01*
X137925065Y-97824934D01*
X137886127Y-97824900D01*
X137674714Y-97912254D01*
X137512823Y-98073863D01*
X137425100Y-98285124D01*
X137424900Y-98513873D01*
X133472599Y-98513873D01*
X133639835Y-98315205D01*
X133800000Y-97810000D01*
X133800000Y-96910000D01*
X132600000Y-96910000D01*
X132300000Y-96910000D01*
X131100000Y-96910000D01*
X119300000Y-96910000D01*
X118100000Y-96910000D01*
X117800000Y-96910000D01*
X116600000Y-96910000D01*
X116575079Y-96910000D01*
X116575100Y-96886127D01*
X116487746Y-96674714D01*
X116326137Y-96512823D01*
X116114876Y-96425100D01*
X115886127Y-96424900D01*
X115674714Y-96512254D01*
X115512823Y-96673863D01*
X115425100Y-96885124D01*
X115424900Y-97113873D01*
X111174900Y-97113873D01*
X111175100Y-96886127D01*
X111087746Y-96674714D01*
X110926137Y-96512823D01*
X110714876Y-96425100D01*
X110486127Y-96424900D01*
X110274714Y-96512254D01*
X110112823Y-96673863D01*
X110025100Y-96885124D01*
X110024900Y-97113873D01*
X110073014Y-97230318D01*
X109874714Y-97312254D01*
X109712823Y-97473863D01*
X109625100Y-97685124D01*
X109624900Y-97913873D01*
X109673014Y-98030318D01*
X109474714Y-98112254D01*
X109312823Y-98273863D01*
X109225100Y-98485124D01*
X109224900Y-98713873D01*
X88025000Y-98713873D01*
X88025000Y-95710000D01*
X116600000Y-95710000D01*
X116600000Y-96610000D01*
X117800000Y-96610000D01*
X117800000Y-94669412D01*
X118100000Y-94669412D01*
X118100000Y-96610000D01*
X119300000Y-96610000D01*
X119300000Y-95710000D01*
X131100000Y-95710000D01*
X131100000Y-96610000D01*
X132300000Y-96610000D01*
X132300000Y-94669412D01*
X132600000Y-94669412D01*
X132600000Y-96610000D01*
X133800000Y-96610000D01*
X133800000Y-95817844D01*
X166599810Y-95817844D01*
X166766922Y-96222286D01*
X167076087Y-96531991D01*
X167480237Y-96699808D01*
X167917844Y-96700190D01*
X168322286Y-96533078D01*
X168631991Y-96223913D01*
X168799808Y-95819763D01*
X168800190Y-95382156D01*
X168633078Y-94977714D01*
X168323913Y-94668009D01*
X167919763Y-94500192D01*
X167482156Y-94499810D01*
X167077714Y-94666922D01*
X166768009Y-94976087D01*
X166600192Y-95380237D01*
X166599810Y-95817844D01*
X133800000Y-95817844D01*
X133800000Y-95710000D01*
X133639835Y-95204795D01*
X133298528Y-94799339D01*
X132808032Y-94558342D01*
X132600000Y-94669412D01*
X132300000Y-94669412D01*
X132091968Y-94558342D01*
X131601472Y-94799339D01*
X131260165Y-95204795D01*
X131100000Y-95710000D01*
X119300000Y-95710000D01*
X119139835Y-95204795D01*
X118798528Y-94799339D01*
X118308032Y-94558342D01*
X118100000Y-94669412D01*
X117800000Y-94669412D01*
X117591968Y-94558342D01*
X117101472Y-94799339D01*
X116760165Y-95204795D01*
X116600000Y-95710000D01*
X88025000Y-95710000D01*
X88025000Y-91113873D01*
X101324900Y-91113873D01*
X101412254Y-91325286D01*
X101573863Y-91487177D01*
X101785124Y-91574900D01*
X102013873Y-91575100D01*
X102225286Y-91487746D01*
X102299989Y-91413174D01*
X102373863Y-91487177D01*
X102585124Y-91574900D01*
X102813873Y-91575100D01*
X103025286Y-91487746D01*
X103187177Y-91326137D01*
X103274900Y-91114876D01*
X103275100Y-90886127D01*
X103187746Y-90674714D01*
X103027186Y-90513873D01*
X104624900Y-90513873D01*
X104712254Y-90725286D01*
X104873863Y-90887177D01*
X105085124Y-90974900D01*
X105313873Y-90975100D01*
X105525286Y-90887746D01*
X105687177Y-90726137D01*
X105774900Y-90514876D01*
X105775075Y-90313873D01*
X114224900Y-90313873D01*
X114312254Y-90525286D01*
X114473863Y-90687177D01*
X114685124Y-90774900D01*
X114913873Y-90775100D01*
X115125286Y-90687746D01*
X115287177Y-90526137D01*
X115374900Y-90314876D01*
X115375100Y-90086127D01*
X115303927Y-89913873D01*
X148424900Y-89913873D01*
X148512254Y-90125286D01*
X148673863Y-90287177D01*
X148885124Y-90374900D01*
X149050175Y-90375044D01*
X149112254Y-90525286D01*
X149273863Y-90687177D01*
X149485124Y-90774900D01*
X149650175Y-90775044D01*
X149712254Y-90925286D01*
X149873863Y-91087177D01*
X150085124Y-91174900D01*
X150203739Y-91175004D01*
X150191369Y-91180115D01*
X150029478Y-91341724D01*
X149941767Y-91552956D01*
X149731751Y-91639733D01*
X149569860Y-91801342D01*
X149482137Y-92012603D01*
X149481937Y-92241352D01*
X149569291Y-92452765D01*
X149730900Y-92614656D01*
X149942161Y-92702379D01*
X150170910Y-92702579D01*
X150312989Y-92643873D01*
X165954900Y-92643873D01*
X166042254Y-92855286D01*
X166203863Y-93017177D01*
X166415124Y-93104900D01*
X166599961Y-93105062D01*
X166599810Y-93277844D01*
X166766922Y-93682286D01*
X167076087Y-93991991D01*
X167480237Y-94159808D01*
X167917844Y-94160190D01*
X168322286Y-93993078D01*
X168631991Y-93683913D01*
X168799808Y-93279763D01*
X168800190Y-92842156D01*
X168633078Y-92437714D01*
X168323913Y-92128009D01*
X168124012Y-92045003D01*
X168322286Y-91963078D01*
X168631991Y-91653913D01*
X168799808Y-91249763D01*
X168800190Y-90812156D01*
X168633078Y-90407714D01*
X168323913Y-90098009D01*
X167919763Y-89930192D01*
X167482156Y-89929810D01*
X167077714Y-90096922D01*
X166768009Y-90406087D01*
X166600192Y-90810237D01*
X166599810Y-91247844D01*
X166766922Y-91652286D01*
X167076087Y-91961991D01*
X167275988Y-92044997D01*
X167077714Y-92126922D01*
X167008782Y-92195734D01*
X166856137Y-92042823D01*
X166644876Y-91955100D01*
X166416127Y-91954900D01*
X166204714Y-92042254D01*
X166042823Y-92203863D01*
X165955100Y-92415124D01*
X165954900Y-92643873D01*
X150312989Y-92643873D01*
X150382323Y-92615225D01*
X150544214Y-92453616D01*
X150631925Y-92242384D01*
X150841941Y-92155607D01*
X151003832Y-91993998D01*
X151091555Y-91782737D01*
X151091755Y-91553988D01*
X151004401Y-91342575D01*
X150842792Y-91180684D01*
X150631531Y-91092961D01*
X150512916Y-91092857D01*
X150525286Y-91087746D01*
X150687177Y-90926137D01*
X150774900Y-90714876D01*
X150775100Y-90486127D01*
X150687746Y-90274714D01*
X150526137Y-90112823D01*
X150314876Y-90025100D01*
X150149825Y-90024956D01*
X150087746Y-89874714D01*
X149926137Y-89712823D01*
X149714876Y-89625100D01*
X149549825Y-89624956D01*
X149487746Y-89474714D01*
X149469849Y-89456785D01*
X166945347Y-89456785D01*
X167017116Y-89685105D01*
X167526444Y-89855462D01*
X168062196Y-89817939D01*
X168382884Y-89685105D01*
X168454653Y-89456785D01*
X167700000Y-88702132D01*
X166945347Y-89456785D01*
X149469849Y-89456785D01*
X149326137Y-89312823D01*
X149114876Y-89225100D01*
X148886127Y-89224900D01*
X148674714Y-89312254D01*
X148512823Y-89473863D01*
X148425100Y-89685124D01*
X148424900Y-89913873D01*
X115303927Y-89913873D01*
X115287746Y-89874714D01*
X115126137Y-89712823D01*
X114914876Y-89625100D01*
X114686127Y-89624900D01*
X114474714Y-89712254D01*
X114312823Y-89873863D01*
X114225100Y-90085124D01*
X114224900Y-90313873D01*
X105775075Y-90313873D01*
X105775100Y-90286127D01*
X105687746Y-90074714D01*
X105526137Y-89912823D01*
X105314876Y-89825100D01*
X105086127Y-89824900D01*
X104874714Y-89912254D01*
X104712823Y-90073863D01*
X104625100Y-90285124D01*
X104624900Y-90513873D01*
X103027186Y-90513873D01*
X103026137Y-90512823D01*
X102814876Y-90425100D01*
X102586127Y-90424900D01*
X102374714Y-90512254D01*
X102300011Y-90586826D01*
X102226137Y-90512823D01*
X102014876Y-90425100D01*
X101786127Y-90424900D01*
X101574714Y-90512254D01*
X101412823Y-90673863D01*
X101325100Y-90885124D01*
X101324900Y-91113873D01*
X88025000Y-91113873D01*
X88025000Y-88213873D01*
X105824900Y-88213873D01*
X105912254Y-88425286D01*
X106073863Y-88587177D01*
X106285124Y-88674900D01*
X106513873Y-88675100D01*
X106725286Y-88587746D01*
X106887177Y-88426137D01*
X106974900Y-88214876D01*
X106975100Y-87986127D01*
X106945246Y-87913873D01*
X108824900Y-87913873D01*
X108912254Y-88125286D01*
X109073863Y-88287177D01*
X109285124Y-88374900D01*
X109513873Y-88375100D01*
X109662053Y-88313873D01*
X157624900Y-88313873D01*
X157712254Y-88525286D01*
X157873863Y-88687177D01*
X158085124Y-88774900D01*
X158313873Y-88775100D01*
X158525286Y-88687746D01*
X158687177Y-88526137D01*
X158774248Y-88316444D01*
X166334538Y-88316444D01*
X166372061Y-88852196D01*
X166504895Y-89172884D01*
X166733215Y-89244653D01*
X167487868Y-88490000D01*
X167912132Y-88490000D01*
X168666785Y-89244653D01*
X168895105Y-89172884D01*
X169065462Y-88663556D01*
X169027939Y-88127804D01*
X168895105Y-87807116D01*
X168666785Y-87735347D01*
X167912132Y-88490000D01*
X167487868Y-88490000D01*
X166733215Y-87735347D01*
X166504895Y-87807116D01*
X166334538Y-88316444D01*
X158774248Y-88316444D01*
X158774900Y-88314876D01*
X158775100Y-88086127D01*
X158687746Y-87874714D01*
X158526137Y-87712823D01*
X158314876Y-87625100D01*
X158086127Y-87624900D01*
X157874714Y-87712254D01*
X157712823Y-87873863D01*
X157625100Y-88085124D01*
X157624900Y-88313873D01*
X109662053Y-88313873D01*
X109725286Y-88287746D01*
X109887177Y-88126137D01*
X109974900Y-87914876D01*
X109975100Y-87686127D01*
X109907787Y-87523215D01*
X166945347Y-87523215D01*
X167700000Y-88277868D01*
X168454653Y-87523215D01*
X168382884Y-87294895D01*
X167873556Y-87124538D01*
X167337804Y-87162061D01*
X167017116Y-87294895D01*
X166945347Y-87523215D01*
X109907787Y-87523215D01*
X109887746Y-87474714D01*
X109726137Y-87312823D01*
X109514876Y-87225100D01*
X109286127Y-87224900D01*
X109074714Y-87312254D01*
X108912823Y-87473863D01*
X108825100Y-87685124D01*
X108824900Y-87913873D01*
X106945246Y-87913873D01*
X106887746Y-87774714D01*
X106726137Y-87612823D01*
X106514876Y-87525100D01*
X106286127Y-87524900D01*
X106074714Y-87612254D01*
X105912823Y-87773863D01*
X105825100Y-87985124D01*
X105824900Y-88213873D01*
X88025000Y-88213873D01*
X88025000Y-86613873D01*
X94524900Y-86613873D01*
X94612254Y-86825286D01*
X94773863Y-86987177D01*
X94985124Y-87074900D01*
X95213873Y-87075100D01*
X95425286Y-86987746D01*
X95449901Y-86963174D01*
X95473863Y-86987177D01*
X95685124Y-87074900D01*
X95913873Y-87075100D01*
X96125286Y-86987746D01*
X96287177Y-86826137D01*
X96350046Y-86674731D01*
X96412254Y-86825286D01*
X96573863Y-86987177D01*
X96785124Y-87074900D01*
X97013873Y-87075100D01*
X97225286Y-86987746D01*
X97249901Y-86963174D01*
X97273863Y-86987177D01*
X97485124Y-87074900D01*
X97713873Y-87075100D01*
X97925286Y-86987746D01*
X98087177Y-86826137D01*
X98150046Y-86674731D01*
X98212254Y-86825286D01*
X98373863Y-86987177D01*
X98585124Y-87074900D01*
X98813873Y-87075100D01*
X99025286Y-86987746D01*
X99049901Y-86963174D01*
X99073863Y-86987177D01*
X99285124Y-87074900D01*
X99513873Y-87075100D01*
X99725286Y-86987746D01*
X99887177Y-86826137D01*
X99950046Y-86674731D01*
X100012254Y-86825286D01*
X100173863Y-86987177D01*
X100385124Y-87074900D01*
X100613873Y-87075100D01*
X100825286Y-86987746D01*
X100849901Y-86963174D01*
X100873863Y-86987177D01*
X101085124Y-87074900D01*
X101313873Y-87075100D01*
X101525286Y-86987746D01*
X101599989Y-86913174D01*
X101673863Y-86987177D01*
X101885124Y-87074900D01*
X102113873Y-87075100D01*
X102325286Y-86987746D01*
X102487177Y-86826137D01*
X102508444Y-86774920D01*
X102713873Y-86775100D01*
X102925286Y-86687746D01*
X103087177Y-86526137D01*
X103133792Y-86413873D01*
X103824900Y-86413873D01*
X103912254Y-86625286D01*
X104073863Y-86787177D01*
X104285124Y-86874900D01*
X104513873Y-86875100D01*
X104725286Y-86787746D01*
X104887177Y-86626137D01*
X104892269Y-86613873D01*
X110724900Y-86613873D01*
X110812254Y-86825286D01*
X110973863Y-86987177D01*
X111185124Y-87074900D01*
X111413873Y-87075100D01*
X111625286Y-86987746D01*
X111649901Y-86963174D01*
X111673863Y-86987177D01*
X111885124Y-87074900D01*
X112113873Y-87075100D01*
X112325286Y-86987746D01*
X112487177Y-86826137D01*
X112550046Y-86674731D01*
X112612254Y-86825286D01*
X112773863Y-86987177D01*
X112985124Y-87074900D01*
X113213873Y-87075100D01*
X113425286Y-86987746D01*
X113449901Y-86963174D01*
X113473863Y-86987177D01*
X113685124Y-87074900D01*
X113913873Y-87075100D01*
X114125286Y-86987746D01*
X114287177Y-86826137D01*
X114350046Y-86674731D01*
X114412254Y-86825286D01*
X114573863Y-86987177D01*
X114785124Y-87074900D01*
X115013873Y-87075100D01*
X115225286Y-86987746D01*
X115249901Y-86963174D01*
X115273863Y-86987177D01*
X115485124Y-87074900D01*
X115713873Y-87075100D01*
X115925286Y-86987746D01*
X116087177Y-86826137D01*
X116150046Y-86674731D01*
X116212254Y-86825286D01*
X116373863Y-86987177D01*
X116585124Y-87074900D01*
X116813873Y-87075100D01*
X117025286Y-86987746D01*
X117049901Y-86963174D01*
X117073863Y-86987177D01*
X117285124Y-87074900D01*
X117513873Y-87075100D01*
X117725286Y-86987746D01*
X117887177Y-86826137D01*
X117974900Y-86614876D01*
X117974900Y-86613873D01*
X119724900Y-86613873D01*
X119812254Y-86825286D01*
X119973863Y-86987177D01*
X120185124Y-87074900D01*
X120413873Y-87075100D01*
X120625286Y-86987746D01*
X120649901Y-86963174D01*
X120673863Y-86987177D01*
X120885124Y-87074900D01*
X121113873Y-87075100D01*
X121325286Y-86987746D01*
X121487177Y-86826137D01*
X121499923Y-86795442D01*
X121512254Y-86825286D01*
X121673863Y-86987177D01*
X121885124Y-87074900D01*
X122113873Y-87075100D01*
X122325286Y-86987746D01*
X122399989Y-86913174D01*
X122473863Y-86987177D01*
X122685124Y-87074900D01*
X122913873Y-87075100D01*
X123125286Y-86987746D01*
X123287177Y-86826137D01*
X123374900Y-86614876D01*
X123374900Y-86613873D01*
X124024900Y-86613873D01*
X124112254Y-86825286D01*
X124273863Y-86987177D01*
X124485124Y-87074900D01*
X124713873Y-87075100D01*
X124925286Y-86987746D01*
X125087177Y-86826137D01*
X125133792Y-86713873D01*
X152224900Y-86713873D01*
X152312254Y-86925286D01*
X152473863Y-87087177D01*
X152685124Y-87174900D01*
X152913873Y-87175100D01*
X153125286Y-87087746D01*
X153287177Y-86926137D01*
X153374900Y-86714876D01*
X153374900Y-86713873D01*
X154024900Y-86713873D01*
X154112254Y-86925286D01*
X154273863Y-87087177D01*
X154485124Y-87174900D01*
X154713873Y-87175100D01*
X154925286Y-87087746D01*
X154999989Y-87013174D01*
X155073863Y-87087177D01*
X155285124Y-87174900D01*
X155513873Y-87175100D01*
X155725286Y-87087746D01*
X155863257Y-86950015D01*
X169072118Y-86950015D01*
X169235913Y-87256131D01*
X170017244Y-87551883D01*
X170852278Y-87526119D01*
X171504087Y-87256131D01*
X171667882Y-86950015D01*
X170370000Y-85652132D01*
X169072118Y-86950015D01*
X155863257Y-86950015D01*
X155887177Y-86926137D01*
X155974900Y-86714876D01*
X155975100Y-86486127D01*
X155887746Y-86274714D01*
X155726137Y-86112823D01*
X155514876Y-86025100D01*
X155286127Y-86024900D01*
X155074714Y-86112254D01*
X155000011Y-86186826D01*
X154926137Y-86112823D01*
X154714876Y-86025100D01*
X154486127Y-86024900D01*
X154274714Y-86112254D01*
X154112823Y-86273863D01*
X154025100Y-86485124D01*
X154024900Y-86713873D01*
X153374900Y-86713873D01*
X153375100Y-86486127D01*
X153287746Y-86274714D01*
X153126137Y-86112823D01*
X152914876Y-86025100D01*
X152686127Y-86024900D01*
X152474714Y-86112254D01*
X152312823Y-86273863D01*
X152225100Y-86485124D01*
X152224900Y-86713873D01*
X125133792Y-86713873D01*
X125174900Y-86614876D01*
X125175100Y-86386127D01*
X125087824Y-86174902D01*
X125313873Y-86175100D01*
X125525286Y-86087746D01*
X125687177Y-85926137D01*
X125774900Y-85714876D01*
X125775100Y-85486127D01*
X125687746Y-85274714D01*
X125526137Y-85112823D01*
X125464536Y-85087244D01*
X168258117Y-85087244D01*
X168283881Y-85922278D01*
X168553869Y-86574087D01*
X168859985Y-86737882D01*
X170157868Y-85440000D01*
X170582132Y-85440000D01*
X171880015Y-86737882D01*
X172186131Y-86574087D01*
X172481883Y-85792756D01*
X172456119Y-84957722D01*
X172186131Y-84305913D01*
X171880015Y-84142118D01*
X170582132Y-85440000D01*
X170157868Y-85440000D01*
X168859985Y-84142118D01*
X168553869Y-84305913D01*
X168258117Y-85087244D01*
X125464536Y-85087244D01*
X125314876Y-85025100D01*
X125086127Y-85024900D01*
X124874714Y-85112254D01*
X124712823Y-85273863D01*
X124625100Y-85485124D01*
X124624900Y-85713873D01*
X124712176Y-85925098D01*
X124486127Y-85924900D01*
X124274714Y-86012254D01*
X124112823Y-86173863D01*
X124025100Y-86385124D01*
X124024900Y-86613873D01*
X123374900Y-86613873D01*
X123375100Y-86386127D01*
X123287746Y-86174714D01*
X123126137Y-86012823D01*
X122914876Y-85925100D01*
X122686127Y-85924900D01*
X122474714Y-86012254D01*
X122400011Y-86086826D01*
X122326137Y-86012823D01*
X122114876Y-85925100D01*
X121886127Y-85924900D01*
X121674714Y-86012254D01*
X121512823Y-86173863D01*
X121500077Y-86204558D01*
X121487746Y-86174714D01*
X121326137Y-86012823D01*
X121114876Y-85925100D01*
X120886127Y-85924900D01*
X120674714Y-86012254D01*
X120650099Y-86036826D01*
X120626137Y-86012823D01*
X120414876Y-85925100D01*
X120186127Y-85924900D01*
X119974714Y-86012254D01*
X119812823Y-86173863D01*
X119725100Y-86385124D01*
X119724900Y-86613873D01*
X117974900Y-86613873D01*
X117974975Y-86529162D01*
X118085124Y-86574900D01*
X118313873Y-86575100D01*
X118525286Y-86487746D01*
X118687177Y-86326137D01*
X118774900Y-86114876D01*
X118774935Y-86075066D01*
X118813873Y-86075100D01*
X119025286Y-85987746D01*
X119187177Y-85826137D01*
X119274900Y-85614876D01*
X119275100Y-85386127D01*
X119187746Y-85174714D01*
X119026137Y-85012823D01*
X118814876Y-84925100D01*
X118586127Y-84924900D01*
X118374714Y-85012254D01*
X118212823Y-85173863D01*
X118125100Y-85385124D01*
X118125065Y-85424934D01*
X118086127Y-85424900D01*
X117874714Y-85512254D01*
X117712823Y-85673863D01*
X117625100Y-85885124D01*
X117625025Y-85970838D01*
X117514876Y-85925100D01*
X117286127Y-85924900D01*
X117074714Y-86012254D01*
X117050099Y-86036826D01*
X117026137Y-86012823D01*
X116814876Y-85925100D01*
X116586127Y-85924900D01*
X116374714Y-86012254D01*
X116212823Y-86173863D01*
X116149954Y-86325269D01*
X116087746Y-86174714D01*
X115926137Y-86012823D01*
X115714876Y-85925100D01*
X115486127Y-85924900D01*
X115274714Y-86012254D01*
X115250099Y-86036826D01*
X115226137Y-86012823D01*
X115014876Y-85925100D01*
X114786127Y-85924900D01*
X114574714Y-86012254D01*
X114412823Y-86173863D01*
X114349954Y-86325269D01*
X114287746Y-86174714D01*
X114126137Y-86012823D01*
X113914876Y-85925100D01*
X113686127Y-85924900D01*
X113474714Y-86012254D01*
X113450099Y-86036826D01*
X113426137Y-86012823D01*
X113214876Y-85925100D01*
X112986127Y-85924900D01*
X112774714Y-86012254D01*
X112612823Y-86173863D01*
X112549954Y-86325269D01*
X112487746Y-86174714D01*
X112326137Y-86012823D01*
X112114876Y-85925100D01*
X111886127Y-85924900D01*
X111674714Y-86012254D01*
X111650099Y-86036826D01*
X111626137Y-86012823D01*
X111414876Y-85925100D01*
X111186127Y-85924900D01*
X110974714Y-86012254D01*
X110812823Y-86173863D01*
X110725100Y-86385124D01*
X110724900Y-86613873D01*
X104892269Y-86613873D01*
X104974900Y-86414876D01*
X104974957Y-86349861D01*
X105125286Y-86287746D01*
X105287177Y-86126137D01*
X105374900Y-85914876D01*
X105375100Y-85686127D01*
X105287746Y-85474714D01*
X105126137Y-85312823D01*
X104914876Y-85225100D01*
X104686127Y-85224900D01*
X104474714Y-85312254D01*
X104312823Y-85473863D01*
X104225100Y-85685124D01*
X104225043Y-85750139D01*
X104074714Y-85812254D01*
X103912823Y-85973863D01*
X103825100Y-86185124D01*
X103824900Y-86413873D01*
X103133792Y-86413873D01*
X103174900Y-86314876D01*
X103175100Y-86086127D01*
X103087746Y-85874714D01*
X102926137Y-85712823D01*
X102714876Y-85625100D01*
X102486127Y-85624900D01*
X102274714Y-85712254D01*
X102112823Y-85873863D01*
X102091556Y-85925080D01*
X101886127Y-85924900D01*
X101674714Y-86012254D01*
X101600011Y-86086826D01*
X101526137Y-86012823D01*
X101314876Y-85925100D01*
X101086127Y-85924900D01*
X100874714Y-86012254D01*
X100850099Y-86036826D01*
X100826137Y-86012823D01*
X100614876Y-85925100D01*
X100386127Y-85924900D01*
X100174714Y-86012254D01*
X100012823Y-86173863D01*
X99949954Y-86325269D01*
X99887746Y-86174714D01*
X99726137Y-86012823D01*
X99514876Y-85925100D01*
X99286127Y-85924900D01*
X99074714Y-86012254D01*
X99050099Y-86036826D01*
X99026137Y-86012823D01*
X98814876Y-85925100D01*
X98586127Y-85924900D01*
X98374714Y-86012254D01*
X98212823Y-86173863D01*
X98149954Y-86325269D01*
X98087746Y-86174714D01*
X97926137Y-86012823D01*
X97714876Y-85925100D01*
X97486127Y-85924900D01*
X97274714Y-86012254D01*
X97250099Y-86036826D01*
X97226137Y-86012823D01*
X97014876Y-85925100D01*
X96786127Y-85924900D01*
X96574714Y-86012254D01*
X96412823Y-86173863D01*
X96349954Y-86325269D01*
X96287746Y-86174714D01*
X96126137Y-86012823D01*
X95914876Y-85925100D01*
X95686127Y-85924900D01*
X95474714Y-86012254D01*
X95450099Y-86036826D01*
X95426137Y-86012823D01*
X95214876Y-85925100D01*
X94986127Y-85924900D01*
X94774714Y-86012254D01*
X94612823Y-86173863D01*
X94525100Y-86385124D01*
X94524900Y-86613873D01*
X88025000Y-86613873D01*
X88025000Y-84227746D01*
X91649801Y-84227746D01*
X91824509Y-84650572D01*
X92147727Y-84974354D01*
X92570247Y-85149800D01*
X93027746Y-85150199D01*
X93450572Y-84975491D01*
X93774354Y-84652273D01*
X93949800Y-84229753D01*
X93949844Y-84178236D01*
X158699844Y-84178236D01*
X158836572Y-84509143D01*
X159089525Y-84762538D01*
X159420194Y-84899843D01*
X159778236Y-84900156D01*
X160109143Y-84763428D01*
X160362538Y-84510475D01*
X160499843Y-84179806D01*
X160500061Y-83929985D01*
X169072118Y-83929985D01*
X170370000Y-85227868D01*
X171667882Y-83929985D01*
X171504087Y-83623869D01*
X170722756Y-83328117D01*
X169887722Y-83353881D01*
X169235913Y-83623869D01*
X169072118Y-83929985D01*
X160500061Y-83929985D01*
X160500156Y-83821764D01*
X160363428Y-83490857D01*
X160110475Y-83237462D01*
X159779806Y-83100157D01*
X159421764Y-83099844D01*
X159090857Y-83236572D01*
X158837462Y-83489525D01*
X158700157Y-83820194D01*
X158699844Y-84178236D01*
X93949844Y-84178236D01*
X93950199Y-83772254D01*
X93775491Y-83349428D01*
X93452273Y-83025646D01*
X93029753Y-82850200D01*
X92572254Y-82849801D01*
X92149428Y-83024509D01*
X91825646Y-83347727D01*
X91650200Y-83770247D01*
X91649801Y-84227746D01*
X88025000Y-84227746D01*
X88025000Y-82113873D01*
X103824900Y-82113873D01*
X103912254Y-82325286D01*
X104073863Y-82487177D01*
X104285124Y-82574900D01*
X104513873Y-82575100D01*
X104725286Y-82487746D01*
X104749901Y-82463174D01*
X104773863Y-82487177D01*
X104985124Y-82574900D01*
X105213873Y-82575100D01*
X105362053Y-82513873D01*
X122424900Y-82513873D01*
X122512254Y-82725286D01*
X122673863Y-82887177D01*
X122885124Y-82974900D01*
X123113873Y-82975100D01*
X123325286Y-82887746D01*
X123487177Y-82726137D01*
X123574900Y-82514876D01*
X123575100Y-82286127D01*
X123487746Y-82074714D01*
X123326137Y-81912823D01*
X123114876Y-81825100D01*
X122886127Y-81824900D01*
X122674714Y-81912254D01*
X122512823Y-82073863D01*
X122425100Y-82285124D01*
X122424900Y-82513873D01*
X105362053Y-82513873D01*
X105425286Y-82487746D01*
X105587177Y-82326137D01*
X105674900Y-82114876D01*
X105675100Y-81886127D01*
X105587746Y-81674714D01*
X105427186Y-81513873D01*
X106224900Y-81513873D01*
X106312254Y-81725286D01*
X106473863Y-81887177D01*
X106685124Y-81974900D01*
X106913873Y-81975100D01*
X107125286Y-81887746D01*
X107287177Y-81726137D01*
X107374900Y-81514876D01*
X107374900Y-81513873D01*
X109224900Y-81513873D01*
X109312254Y-81725286D01*
X109473863Y-81887177D01*
X109685124Y-81974900D01*
X109913873Y-81975100D01*
X110125286Y-81887746D01*
X110287177Y-81726137D01*
X110374900Y-81514876D01*
X110374900Y-81513873D01*
X124424900Y-81513873D01*
X124512254Y-81725286D01*
X124673863Y-81887177D01*
X124885124Y-81974900D01*
X125113873Y-81975100D01*
X125325286Y-81887746D01*
X125487177Y-81726137D01*
X125574900Y-81514876D01*
X125574900Y-81513873D01*
X147824900Y-81513873D01*
X147912254Y-81725286D01*
X148073863Y-81887177D01*
X148285124Y-81974900D01*
X148513873Y-81975100D01*
X148725286Y-81887746D01*
X148887177Y-81726137D01*
X148974900Y-81514876D01*
X148974900Y-81513873D01*
X152524900Y-81513873D01*
X152612254Y-81725286D01*
X152773863Y-81887177D01*
X152985124Y-81974900D01*
X153213873Y-81975100D01*
X153425286Y-81887746D01*
X153587177Y-81726137D01*
X153674900Y-81514876D01*
X153674900Y-81513873D01*
X154424900Y-81513873D01*
X154512254Y-81725286D01*
X154673863Y-81887177D01*
X154885124Y-81974900D01*
X155113873Y-81975100D01*
X155325286Y-81887746D01*
X155399989Y-81813174D01*
X155473863Y-81887177D01*
X155685124Y-81974900D01*
X155913873Y-81975100D01*
X156125286Y-81887746D01*
X156287177Y-81726137D01*
X156374900Y-81514876D01*
X156375100Y-81286127D01*
X156287746Y-81074714D01*
X156126137Y-80912823D01*
X155914876Y-80825100D01*
X155686127Y-80824900D01*
X155474714Y-80912254D01*
X155400011Y-80986826D01*
X155326137Y-80912823D01*
X155114876Y-80825100D01*
X154886127Y-80824900D01*
X154674714Y-80912254D01*
X154512823Y-81073863D01*
X154425100Y-81285124D01*
X154424900Y-81513873D01*
X153674900Y-81513873D01*
X153675100Y-81286127D01*
X153587746Y-81074714D01*
X153426137Y-80912823D01*
X153214876Y-80825100D01*
X152986127Y-80824900D01*
X152774714Y-80912254D01*
X152612823Y-81073863D01*
X152525100Y-81285124D01*
X152524900Y-81513873D01*
X148974900Y-81513873D01*
X148975100Y-81286127D01*
X148887746Y-81074714D01*
X148726137Y-80912823D01*
X148514876Y-80825100D01*
X148286127Y-80824900D01*
X148074714Y-80912254D01*
X147912823Y-81073863D01*
X147825100Y-81285124D01*
X147824900Y-81513873D01*
X125574900Y-81513873D01*
X125575100Y-81286127D01*
X125487746Y-81074714D01*
X125326137Y-80912823D01*
X125114876Y-80825100D01*
X124886127Y-80824900D01*
X124674714Y-80912254D01*
X124512823Y-81073863D01*
X124425100Y-81285124D01*
X124424900Y-81513873D01*
X110374900Y-81513873D01*
X110375100Y-81286127D01*
X110287746Y-81074714D01*
X110126137Y-80912823D01*
X109914876Y-80825100D01*
X109686127Y-80824900D01*
X109474714Y-80912254D01*
X109312823Y-81073863D01*
X109225100Y-81285124D01*
X109224900Y-81513873D01*
X107374900Y-81513873D01*
X107375100Y-81286127D01*
X107287746Y-81074714D01*
X107126137Y-80912823D01*
X106914876Y-80825100D01*
X106686127Y-80824900D01*
X106474714Y-80912254D01*
X106312823Y-81073863D01*
X106225100Y-81285124D01*
X106224900Y-81513873D01*
X105427186Y-81513873D01*
X105426137Y-81512823D01*
X105214876Y-81425100D01*
X104986127Y-81424900D01*
X104774714Y-81512254D01*
X104750099Y-81536826D01*
X104726137Y-81512823D01*
X104514876Y-81425100D01*
X104286127Y-81424900D01*
X104074714Y-81512254D01*
X103912823Y-81673863D01*
X103825100Y-81885124D01*
X103824900Y-82113873D01*
X88025000Y-82113873D01*
X88025000Y-79913873D01*
X157924900Y-79913873D01*
X158012254Y-80125286D01*
X158173863Y-80287177D01*
X158385124Y-80374900D01*
X158613873Y-80375100D01*
X158825286Y-80287746D01*
X158987177Y-80126137D01*
X159074900Y-79914876D01*
X159075100Y-79686127D01*
X158987746Y-79474714D01*
X158826137Y-79312823D01*
X158614876Y-79225100D01*
X158386127Y-79224900D01*
X158174714Y-79312254D01*
X158012823Y-79473863D01*
X157925100Y-79685124D01*
X157924900Y-79913873D01*
X88025000Y-79913873D01*
X88025000Y-78513873D01*
X102024900Y-78513873D01*
X102112254Y-78725286D01*
X102273863Y-78887177D01*
X102485124Y-78974900D01*
X102713873Y-78975100D01*
X102925286Y-78887746D01*
X102949901Y-78863174D01*
X102973863Y-78887177D01*
X103185124Y-78974900D01*
X103413873Y-78975100D01*
X103625286Y-78887746D01*
X103787177Y-78726137D01*
X103874900Y-78514876D01*
X103874900Y-78513873D01*
X121824900Y-78513873D01*
X121912254Y-78725286D01*
X122073863Y-78887177D01*
X122285124Y-78974900D01*
X122513873Y-78975100D01*
X122725286Y-78887746D01*
X122749901Y-78863174D01*
X122773863Y-78887177D01*
X122985124Y-78974900D01*
X123213873Y-78975100D01*
X123425286Y-78887746D01*
X123587177Y-78726137D01*
X123674900Y-78514876D01*
X123675075Y-78313873D01*
X154224900Y-78313873D01*
X154312254Y-78525286D01*
X154473863Y-78687177D01*
X154685124Y-78774900D01*
X154913873Y-78775100D01*
X155100198Y-78698112D01*
X155285124Y-78774900D01*
X155513873Y-78775100D01*
X155725286Y-78687746D01*
X155794528Y-78618624D01*
X176622156Y-78618624D01*
X176626331Y-78680314D01*
X176851696Y-79052673D01*
X177202402Y-79310444D01*
X177625057Y-79414384D01*
X177800000Y-79258477D01*
X177800000Y-78450000D01*
X178100000Y-78450000D01*
X178100000Y-79258477D01*
X178274943Y-79414384D01*
X178697598Y-79310444D01*
X179048304Y-79052673D01*
X179273669Y-78680314D01*
X179277844Y-78618624D01*
X179163083Y-78450000D01*
X178100000Y-78450000D01*
X177800000Y-78450000D01*
X176736917Y-78450000D01*
X176622156Y-78618624D01*
X155794528Y-78618624D01*
X155887177Y-78526137D01*
X155974900Y-78314876D01*
X155975100Y-78086127D01*
X155887746Y-77874714D01*
X155742013Y-77728726D01*
X167599888Y-77728726D01*
X167698636Y-77967714D01*
X167881324Y-78150722D01*
X168120140Y-78249887D01*
X168378726Y-78250112D01*
X168617714Y-78151364D01*
X168725027Y-78044239D01*
X168831324Y-78150722D01*
X169070140Y-78249887D01*
X169328726Y-78250112D01*
X169567714Y-78151364D01*
X169750722Y-77968676D01*
X169849887Y-77729860D01*
X169849984Y-77618167D01*
X174188235Y-77618167D01*
X174333412Y-78011686D01*
X174618131Y-78319693D01*
X174935325Y-78477912D01*
X175100000Y-78362757D01*
X175100000Y-77450000D01*
X175400000Y-77450000D01*
X175400000Y-78362757D01*
X175564675Y-78477912D01*
X175881869Y-78319693D01*
X176166588Y-78011686D01*
X176177769Y-77981376D01*
X176622156Y-77981376D01*
X176736917Y-78150000D01*
X177800000Y-78150000D01*
X177800000Y-77341523D01*
X178100000Y-77341523D01*
X178100000Y-78150000D01*
X179163083Y-78150000D01*
X179277844Y-77981376D01*
X179273669Y-77919686D01*
X179048304Y-77547327D01*
X178697598Y-77289556D01*
X178274943Y-77185616D01*
X178100000Y-77341523D01*
X177800000Y-77341523D01*
X177625057Y-77185616D01*
X177202402Y-77289556D01*
X176851696Y-77547327D01*
X176626331Y-77919686D01*
X176622156Y-77981376D01*
X176177769Y-77981376D01*
X176311765Y-77618167D01*
X176175000Y-77450000D01*
X175400000Y-77450000D01*
X175100000Y-77450000D01*
X174325000Y-77450000D01*
X174188235Y-77618167D01*
X169849984Y-77618167D01*
X169850112Y-77471274D01*
X169751364Y-77232286D01*
X169568676Y-77049278D01*
X169406251Y-76981833D01*
X174188235Y-76981833D01*
X174325000Y-77150000D01*
X175100000Y-77150000D01*
X175100000Y-76237243D01*
X175400000Y-76237243D01*
X175400000Y-77150000D01*
X176175000Y-77150000D01*
X176311765Y-76981833D01*
X176166588Y-76588314D01*
X175881869Y-76280307D01*
X175564675Y-76122088D01*
X175400000Y-76237243D01*
X175100000Y-76237243D01*
X174935325Y-76122088D01*
X174618131Y-76280307D01*
X174333412Y-76588314D01*
X174188235Y-76981833D01*
X169406251Y-76981833D01*
X169329860Y-76950113D01*
X169071274Y-76949888D01*
X168832286Y-77048636D01*
X168724973Y-77155761D01*
X168618676Y-77049278D01*
X168379860Y-76950113D01*
X168121274Y-76949888D01*
X167882286Y-77048636D01*
X167699278Y-77231324D01*
X167600113Y-77470140D01*
X167599888Y-77728726D01*
X155742013Y-77728726D01*
X155726137Y-77712823D01*
X155514876Y-77625100D01*
X155286127Y-77624900D01*
X155099802Y-77701888D01*
X154914876Y-77625100D01*
X154686127Y-77624900D01*
X154474714Y-77712254D01*
X154312823Y-77873863D01*
X154225100Y-78085124D01*
X154224900Y-78313873D01*
X123675075Y-78313873D01*
X123675100Y-78286127D01*
X123587746Y-78074714D01*
X123426137Y-77912823D01*
X123214876Y-77825100D01*
X122986127Y-77824900D01*
X122774714Y-77912254D01*
X122750099Y-77936826D01*
X122726137Y-77912823D01*
X122514876Y-77825100D01*
X122286127Y-77824900D01*
X122074714Y-77912254D01*
X121912823Y-78073863D01*
X121825100Y-78285124D01*
X121824900Y-78513873D01*
X103874900Y-78513873D01*
X103875100Y-78286127D01*
X103787746Y-78074714D01*
X103626137Y-77912823D01*
X103414876Y-77825100D01*
X103186127Y-77824900D01*
X102974714Y-77912254D01*
X102950099Y-77936826D01*
X102926137Y-77912823D01*
X102714876Y-77825100D01*
X102486127Y-77824900D01*
X102274714Y-77912254D01*
X102112823Y-78073863D01*
X102025100Y-78285124D01*
X102024900Y-78513873D01*
X88025000Y-78513873D01*
X88025000Y-76313873D01*
X105324900Y-76313873D01*
X105412254Y-76525286D01*
X105573863Y-76687177D01*
X105785124Y-76774900D01*
X106013873Y-76775100D01*
X106082573Y-76746714D01*
X106025100Y-76885124D01*
X106024900Y-77113873D01*
X106112254Y-77325286D01*
X106273863Y-77487177D01*
X106485124Y-77574900D01*
X106713873Y-77575100D01*
X106925286Y-77487746D01*
X107087177Y-77326137D01*
X107174900Y-77114876D01*
X107175100Y-76886127D01*
X107087746Y-76674714D01*
X106926137Y-76512823D01*
X106714876Y-76425100D01*
X106486127Y-76424900D01*
X106417427Y-76453286D01*
X106474900Y-76314876D01*
X106475100Y-76086127D01*
X106387746Y-75874714D01*
X106226137Y-75712823D01*
X106014876Y-75625100D01*
X105786127Y-75624900D01*
X105574714Y-75712254D01*
X105412823Y-75873863D01*
X105325100Y-76085124D01*
X105324900Y-76313873D01*
X88025000Y-76313873D01*
X88025000Y-72713873D01*
X121024900Y-72713873D01*
X121112254Y-72925286D01*
X121273863Y-73087177D01*
X121485124Y-73174900D01*
X121713873Y-73175100D01*
X121925286Y-73087746D01*
X122087177Y-72926137D01*
X122174900Y-72714876D01*
X122174984Y-72618167D01*
X174188235Y-72618167D01*
X174333412Y-73011686D01*
X174618131Y-73319693D01*
X174935325Y-73477912D01*
X175100000Y-73362757D01*
X175100000Y-72450000D01*
X175400000Y-72450000D01*
X175400000Y-73362757D01*
X175564675Y-73477912D01*
X175881869Y-73319693D01*
X176166588Y-73011686D01*
X176311765Y-72618167D01*
X176175000Y-72450000D01*
X175400000Y-72450000D01*
X175100000Y-72450000D01*
X174325000Y-72450000D01*
X174188235Y-72618167D01*
X122174984Y-72618167D01*
X122175100Y-72486127D01*
X122087746Y-72274714D01*
X121926137Y-72112823D01*
X121714876Y-72025100D01*
X121486127Y-72024900D01*
X121274714Y-72112254D01*
X121112823Y-72273863D01*
X121025100Y-72485124D01*
X121024900Y-72713873D01*
X88025000Y-72713873D01*
X88025000Y-71981833D01*
X174188235Y-71981833D01*
X174325000Y-72150000D01*
X175100000Y-72150000D01*
X175100000Y-71237243D01*
X175400000Y-71237243D01*
X175400000Y-72150000D01*
X176175000Y-72150000D01*
X176311765Y-71981833D01*
X176177770Y-71618624D01*
X176622156Y-71618624D01*
X176626331Y-71680314D01*
X176851696Y-72052673D01*
X177202402Y-72310444D01*
X177625057Y-72414384D01*
X177800000Y-72258477D01*
X177800000Y-71450000D01*
X178100000Y-71450000D01*
X178100000Y-72258477D01*
X178274943Y-72414384D01*
X178697598Y-72310444D01*
X179048304Y-72052673D01*
X179273669Y-71680314D01*
X179277844Y-71618624D01*
X179163083Y-71450000D01*
X178100000Y-71450000D01*
X177800000Y-71450000D01*
X176736917Y-71450000D01*
X176622156Y-71618624D01*
X176177770Y-71618624D01*
X176166588Y-71588314D01*
X175881869Y-71280307D01*
X175564675Y-71122088D01*
X175400000Y-71237243D01*
X175100000Y-71237243D01*
X174935325Y-71122088D01*
X174618131Y-71280307D01*
X174333412Y-71588314D01*
X174188235Y-71981833D01*
X88025000Y-71981833D01*
X88025000Y-70913873D01*
X121824900Y-70913873D01*
X121912254Y-71125286D01*
X122073863Y-71287177D01*
X122285124Y-71374900D01*
X122513873Y-71375100D01*
X122725286Y-71287746D01*
X122887177Y-71126137D01*
X122899923Y-71095442D01*
X122912254Y-71125286D01*
X123073863Y-71287177D01*
X123285124Y-71374900D01*
X123513873Y-71375100D01*
X123725286Y-71287746D01*
X123887177Y-71126137D01*
X123947286Y-70981376D01*
X176622156Y-70981376D01*
X176736917Y-71150000D01*
X177800000Y-71150000D01*
X177800000Y-70341523D01*
X178100000Y-70341523D01*
X178100000Y-71150000D01*
X179163083Y-71150000D01*
X179277844Y-70981376D01*
X179273669Y-70919686D01*
X179048304Y-70547327D01*
X178697598Y-70289556D01*
X178274943Y-70185616D01*
X178100000Y-70341523D01*
X177800000Y-70341523D01*
X177625057Y-70185616D01*
X177202402Y-70289556D01*
X176851696Y-70547327D01*
X176626331Y-70919686D01*
X176622156Y-70981376D01*
X123947286Y-70981376D01*
X123974900Y-70914876D01*
X123975100Y-70686127D01*
X123887746Y-70474714D01*
X123726137Y-70312823D01*
X123514876Y-70225100D01*
X123286127Y-70224900D01*
X123074714Y-70312254D01*
X122912823Y-70473863D01*
X122900077Y-70504558D01*
X122887746Y-70474714D01*
X122726137Y-70312823D01*
X122514876Y-70225100D01*
X122286127Y-70224900D01*
X122074714Y-70312254D01*
X121912823Y-70473863D01*
X121825100Y-70685124D01*
X121824900Y-70913873D01*
X88025000Y-70913873D01*
X88025000Y-69163873D01*
X112324900Y-69163873D01*
X112412254Y-69375286D01*
X112573863Y-69537177D01*
X112785124Y-69624900D01*
X113013873Y-69625100D01*
X113225286Y-69537746D01*
X113387177Y-69376137D01*
X113474900Y-69164876D01*
X113474979Y-69074979D01*
X113613873Y-69075100D01*
X113825286Y-68987746D01*
X113987177Y-68826137D01*
X114074900Y-68614876D01*
X114074900Y-68613873D01*
X114124900Y-68613873D01*
X114212254Y-68825286D01*
X114373863Y-68987177D01*
X114585124Y-69074900D01*
X114813873Y-69075100D01*
X115025286Y-68987746D01*
X115187177Y-68826137D01*
X115208444Y-68774920D01*
X115413873Y-68775100D01*
X115625286Y-68687746D01*
X115787177Y-68526137D01*
X115874900Y-68314876D01*
X115875100Y-68086127D01*
X115787746Y-67874714D01*
X115626137Y-67712823D01*
X115414876Y-67625100D01*
X115186127Y-67624900D01*
X114974714Y-67712254D01*
X114812823Y-67873863D01*
X114791556Y-67925080D01*
X114586127Y-67924900D01*
X114374714Y-68012254D01*
X114212823Y-68173863D01*
X114125100Y-68385124D01*
X114124900Y-68613873D01*
X114074900Y-68613873D01*
X114075100Y-68386127D01*
X113987746Y-68174714D01*
X113826137Y-68012823D01*
X113614876Y-67925100D01*
X113386127Y-67924900D01*
X113174714Y-68012254D01*
X113012823Y-68173863D01*
X112925100Y-68385124D01*
X112925021Y-68475021D01*
X112786127Y-68474900D01*
X112574714Y-68562254D01*
X112412823Y-68723863D01*
X112325100Y-68935124D01*
X112324900Y-69163873D01*
X88025000Y-69163873D01*
X88025000Y-67613873D01*
X117224900Y-67613873D01*
X117312254Y-67825286D01*
X117473863Y-67987177D01*
X117685124Y-68074900D01*
X117913873Y-68075100D01*
X118125286Y-67987746D01*
X118287177Y-67826137D01*
X118374900Y-67614876D01*
X118375026Y-67470707D01*
X118385124Y-67474900D01*
X118613873Y-67475100D01*
X118825286Y-67387746D01*
X118987177Y-67226137D01*
X119074900Y-67014876D01*
X119074935Y-66975066D01*
X119113873Y-66975100D01*
X119325286Y-66887746D01*
X119349901Y-66863174D01*
X119373863Y-66887177D01*
X119585124Y-66974900D01*
X119813873Y-66975100D01*
X120025286Y-66887746D01*
X120049901Y-66863174D01*
X120073863Y-66887177D01*
X120285124Y-66974900D01*
X120513873Y-66975100D01*
X120725286Y-66887746D01*
X120887177Y-66726137D01*
X120974900Y-66514876D01*
X120975100Y-66286127D01*
X120887746Y-66074714D01*
X120726137Y-65912823D01*
X120514876Y-65825100D01*
X120286127Y-65824900D01*
X120074714Y-65912254D01*
X120050099Y-65936826D01*
X120026137Y-65912823D01*
X119814876Y-65825100D01*
X119586127Y-65824900D01*
X119374714Y-65912254D01*
X119350099Y-65936826D01*
X119326137Y-65912823D01*
X119114876Y-65825100D01*
X118886127Y-65824900D01*
X118674714Y-65912254D01*
X118512823Y-66073863D01*
X118425100Y-66285124D01*
X118425065Y-66324934D01*
X118386127Y-66324900D01*
X118174714Y-66412254D01*
X118012823Y-66573863D01*
X117925100Y-66785124D01*
X117924974Y-66929293D01*
X117914876Y-66925100D01*
X117686127Y-66924900D01*
X117474714Y-67012254D01*
X117312823Y-67173863D01*
X117225100Y-67385124D01*
X117224900Y-67613873D01*
X88025000Y-67613873D01*
X88025000Y-63813873D01*
X107324900Y-63813873D01*
X107412254Y-64025286D01*
X107573863Y-64187177D01*
X107785124Y-64274900D01*
X108013873Y-64275100D01*
X108225286Y-64187746D01*
X108387177Y-64026137D01*
X108474900Y-63814876D01*
X108474935Y-63775066D01*
X108513873Y-63775100D01*
X108725286Y-63687746D01*
X108887177Y-63526137D01*
X108974900Y-63314876D01*
X108974935Y-63275066D01*
X109013873Y-63275100D01*
X109225286Y-63187746D01*
X109387177Y-63026137D01*
X109474900Y-62814876D01*
X109474957Y-62749861D01*
X109625286Y-62687746D01*
X109787177Y-62526137D01*
X109869148Y-62328726D01*
X168849888Y-62328726D01*
X168948636Y-62567714D01*
X169131324Y-62750722D01*
X169370140Y-62849887D01*
X169628726Y-62850112D01*
X169701056Y-62820226D01*
X169831324Y-62950722D01*
X170070140Y-63049887D01*
X170328726Y-63050112D01*
X170567714Y-62951364D01*
X170750722Y-62768676D01*
X170849887Y-62529860D01*
X170850112Y-62271274D01*
X170751364Y-62032286D01*
X170568676Y-61849278D01*
X170329860Y-61750113D01*
X170071274Y-61749888D01*
X169998944Y-61779774D01*
X169868676Y-61649278D01*
X169629860Y-61550113D01*
X169371274Y-61549888D01*
X169132286Y-61648636D01*
X168949278Y-61831324D01*
X168850113Y-62070140D01*
X168849888Y-62328726D01*
X109869148Y-62328726D01*
X109874900Y-62314876D01*
X109875100Y-62086127D01*
X109787746Y-61874714D01*
X109626137Y-61712823D01*
X109414876Y-61625100D01*
X109186127Y-61624900D01*
X108974714Y-61712254D01*
X108812823Y-61873863D01*
X108725100Y-62085124D01*
X108725043Y-62150139D01*
X108574714Y-62212254D01*
X108412823Y-62373863D01*
X108325100Y-62585124D01*
X108325065Y-62624934D01*
X108286127Y-62624900D01*
X108074714Y-62712254D01*
X107912823Y-62873863D01*
X107825100Y-63085124D01*
X107825065Y-63124934D01*
X107786127Y-63124900D01*
X107574714Y-63212254D01*
X107412823Y-63373863D01*
X107325100Y-63585124D01*
X107324900Y-63813873D01*
X88025000Y-63813873D01*
X88025000Y-60713873D01*
X110424900Y-60713873D01*
X110512254Y-60925286D01*
X110673863Y-61087177D01*
X110885124Y-61174900D01*
X111113873Y-61175100D01*
X111325286Y-61087746D01*
X111487177Y-60926137D01*
X111574900Y-60714876D01*
X111575022Y-60574979D01*
X111713873Y-60575100D01*
X111925286Y-60487746D01*
X112087177Y-60326137D01*
X112174900Y-60114876D01*
X112175022Y-59974979D01*
X112313873Y-59975100D01*
X112525286Y-59887746D01*
X112687177Y-59726137D01*
X112774900Y-59514876D01*
X112774900Y-59513873D01*
X115124900Y-59513873D01*
X115212254Y-59725286D01*
X115373863Y-59887177D01*
X115585124Y-59974900D01*
X115813873Y-59975100D01*
X116025286Y-59887746D01*
X116113185Y-59800000D01*
X170849042Y-59800000D01*
X170921356Y-60163549D01*
X171127291Y-60471751D01*
X171435493Y-60677686D01*
X171799042Y-60750000D01*
X172600958Y-60750000D01*
X172964507Y-60677686D01*
X173272709Y-60471751D01*
X173478644Y-60163549D01*
X173517474Y-59968334D01*
X176349853Y-59968334D01*
X176478985Y-60280857D01*
X176717885Y-60520174D01*
X177030183Y-60649852D01*
X177368334Y-60650147D01*
X177680857Y-60521015D01*
X177920174Y-60282115D01*
X178049852Y-59969817D01*
X178050147Y-59631666D01*
X177921015Y-59319143D01*
X177682115Y-59079826D01*
X177369817Y-58950148D01*
X177031666Y-58949853D01*
X176719143Y-59078985D01*
X176479826Y-59317885D01*
X176350148Y-59630183D01*
X176349853Y-59968334D01*
X173517474Y-59968334D01*
X173550958Y-59800000D01*
X173478644Y-59436451D01*
X173272709Y-59128249D01*
X172964507Y-58922314D01*
X172600958Y-58850000D01*
X171799042Y-58850000D01*
X171435493Y-58922314D01*
X171127291Y-59128249D01*
X170921356Y-59436451D01*
X170849042Y-59800000D01*
X116113185Y-59800000D01*
X116187177Y-59726137D01*
X116274900Y-59514876D01*
X116275100Y-59286127D01*
X116187746Y-59074714D01*
X116026137Y-58912823D01*
X115814876Y-58825100D01*
X115586127Y-58824900D01*
X115374714Y-58912254D01*
X115212823Y-59073863D01*
X115125100Y-59285124D01*
X115124900Y-59513873D01*
X112774900Y-59513873D01*
X112775022Y-59374979D01*
X112913873Y-59375100D01*
X113125286Y-59287746D01*
X113287177Y-59126137D01*
X113374900Y-58914876D01*
X113375100Y-58686127D01*
X113287746Y-58474714D01*
X113126137Y-58312823D01*
X112914876Y-58225100D01*
X112686127Y-58224900D01*
X112474714Y-58312254D01*
X112312823Y-58473863D01*
X112225100Y-58685124D01*
X112224978Y-58825021D01*
X112086127Y-58824900D01*
X111874714Y-58912254D01*
X111712823Y-59073863D01*
X111625100Y-59285124D01*
X111624978Y-59425021D01*
X111486127Y-59424900D01*
X111274714Y-59512254D01*
X111112823Y-59673863D01*
X111025100Y-59885124D01*
X111024978Y-60025021D01*
X110886127Y-60024900D01*
X110674714Y-60112254D01*
X110512823Y-60273863D01*
X110425100Y-60485124D01*
X110424900Y-60713873D01*
X88025000Y-60713873D01*
X88025000Y-57713873D01*
X123724900Y-57713873D01*
X123812254Y-57925286D01*
X123936826Y-58050076D01*
X123812823Y-58173863D01*
X123725100Y-58385124D01*
X123724900Y-58613873D01*
X123812254Y-58825286D01*
X123973863Y-58987177D01*
X124185124Y-59074900D01*
X124413873Y-59075100D01*
X124625286Y-58987746D01*
X124787177Y-58826137D01*
X124874900Y-58614876D01*
X124875100Y-58386127D01*
X124787746Y-58174714D01*
X124663174Y-58049924D01*
X124787177Y-57926137D01*
X124874900Y-57714876D01*
X124874935Y-57675066D01*
X124913873Y-57675100D01*
X125125286Y-57587746D01*
X125287177Y-57426137D01*
X125339553Y-57300000D01*
X170849042Y-57300000D01*
X170921356Y-57663549D01*
X171127291Y-57971751D01*
X171435493Y-58177686D01*
X171799042Y-58250000D01*
X172600958Y-58250000D01*
X172964507Y-58177686D01*
X173272709Y-57971751D01*
X173478644Y-57663549D01*
X173550958Y-57300000D01*
X173478644Y-56936451D01*
X173272709Y-56628249D01*
X172964507Y-56422314D01*
X172600958Y-56350000D01*
X171799042Y-56350000D01*
X171435493Y-56422314D01*
X171127291Y-56628249D01*
X170921356Y-56936451D01*
X170849042Y-57300000D01*
X125339553Y-57300000D01*
X125374900Y-57214876D01*
X125375100Y-56986127D01*
X125287746Y-56774714D01*
X125126137Y-56612823D01*
X124914876Y-56525100D01*
X124686127Y-56524900D01*
X124474714Y-56612254D01*
X124312823Y-56773863D01*
X124225100Y-56985124D01*
X124225065Y-57024934D01*
X124186127Y-57024900D01*
X123974714Y-57112254D01*
X123812823Y-57273863D01*
X123725100Y-57485124D01*
X123724900Y-57713873D01*
X88025000Y-57713873D01*
X88025000Y-57113873D01*
X119624900Y-57113873D01*
X119712254Y-57325286D01*
X119873863Y-57487177D01*
X120085124Y-57574900D01*
X120313873Y-57575100D01*
X120525286Y-57487746D01*
X120687177Y-57326137D01*
X120774900Y-57114876D01*
X120775100Y-56886127D01*
X120687746Y-56674714D01*
X120526137Y-56512823D01*
X120314876Y-56425100D01*
X120086127Y-56424900D01*
X119874714Y-56512254D01*
X119712823Y-56673863D01*
X119625100Y-56885124D01*
X119624900Y-57113873D01*
X88025000Y-57113873D01*
X88025000Y-55913873D01*
X124624900Y-55913873D01*
X124712254Y-56125286D01*
X124873863Y-56287177D01*
X125085124Y-56374900D01*
X125313873Y-56375100D01*
X125525286Y-56287746D01*
X125687177Y-56126137D01*
X125774900Y-55914876D01*
X125775100Y-55686127D01*
X125687746Y-55474714D01*
X125526137Y-55312823D01*
X125314876Y-55225100D01*
X125086127Y-55224900D01*
X124874714Y-55312254D01*
X124712823Y-55473863D01*
X124625100Y-55685124D01*
X124624900Y-55913873D01*
X88025000Y-55913873D01*
X88025000Y-55313873D01*
X109824900Y-55313873D01*
X109912254Y-55525286D01*
X110073863Y-55687177D01*
X110285124Y-55774900D01*
X110513873Y-55775100D01*
X110725286Y-55687746D01*
X110887177Y-55526137D01*
X110974900Y-55314876D01*
X110974900Y-55313873D01*
X120424900Y-55313873D01*
X120512254Y-55525286D01*
X120673863Y-55687177D01*
X120885124Y-55774900D01*
X121113873Y-55775100D01*
X121325286Y-55687746D01*
X121487177Y-55526137D01*
X121549916Y-55375044D01*
X121613873Y-55375100D01*
X121825286Y-55287746D01*
X121987177Y-55126137D01*
X122052702Y-54968334D01*
X171349853Y-54968334D01*
X171478985Y-55280857D01*
X171717885Y-55520174D01*
X172030183Y-55649852D01*
X172368334Y-55650147D01*
X172680857Y-55521015D01*
X172920174Y-55282115D01*
X173049852Y-54969817D01*
X173049869Y-54950000D01*
X176000000Y-54950000D01*
X176000000Y-55325000D01*
X176148747Y-55772802D01*
X176457538Y-56129594D01*
X176865598Y-56327465D01*
X177050000Y-56214230D01*
X177050000Y-54950000D01*
X177350000Y-54950000D01*
X177350000Y-56214230D01*
X177534402Y-56327465D01*
X177942462Y-56129594D01*
X178251253Y-55772802D01*
X178400000Y-55325000D01*
X178400000Y-54950000D01*
X177350000Y-54950000D01*
X177050000Y-54950000D01*
X176000000Y-54950000D01*
X173049869Y-54950000D01*
X173050147Y-54631666D01*
X172921015Y-54319143D01*
X172876949Y-54275000D01*
X176000000Y-54275000D01*
X176000000Y-54650000D01*
X177050000Y-54650000D01*
X177050000Y-53385770D01*
X177350000Y-53385770D01*
X177350000Y-54650000D01*
X178400000Y-54650000D01*
X178400000Y-54275000D01*
X178251253Y-53827198D01*
X177942462Y-53470406D01*
X177534402Y-53272535D01*
X177350000Y-53385770D01*
X177050000Y-53385770D01*
X176865598Y-53272535D01*
X176457538Y-53470406D01*
X176148747Y-53827198D01*
X176000000Y-54275000D01*
X172876949Y-54275000D01*
X172682115Y-54079826D01*
X172369817Y-53950148D01*
X172031666Y-53949853D01*
X171719143Y-54078985D01*
X171479826Y-54317885D01*
X171350148Y-54630183D01*
X171349853Y-54968334D01*
X122052702Y-54968334D01*
X122074900Y-54914876D01*
X122074935Y-54875066D01*
X122113873Y-54875100D01*
X122325286Y-54787746D01*
X122487177Y-54626137D01*
X122574900Y-54414876D01*
X122575100Y-54186127D01*
X122487746Y-53974714D01*
X122326137Y-53812823D01*
X122114876Y-53725100D01*
X121886127Y-53724900D01*
X121674714Y-53812254D01*
X121512823Y-53973863D01*
X121425100Y-54185124D01*
X121425065Y-54224934D01*
X121386127Y-54224900D01*
X121174714Y-54312254D01*
X121012823Y-54473863D01*
X120950084Y-54624956D01*
X120886127Y-54624900D01*
X120674714Y-54712254D01*
X120512823Y-54873863D01*
X120425100Y-55085124D01*
X120424900Y-55313873D01*
X110974900Y-55313873D01*
X110975100Y-55086127D01*
X110887746Y-54874714D01*
X110726137Y-54712823D01*
X110514876Y-54625100D01*
X110286127Y-54624900D01*
X110074714Y-54712254D01*
X109912823Y-54873863D01*
X109825100Y-55085124D01*
X109824900Y-55313873D01*
X88025000Y-55313873D01*
X88025000Y-53713873D01*
X117624900Y-53713873D01*
X117712254Y-53925286D01*
X117873863Y-54087177D01*
X118085124Y-54174900D01*
X118313873Y-54175100D01*
X118525286Y-54087746D01*
X118687177Y-53926137D01*
X118774900Y-53714876D01*
X118775100Y-53486127D01*
X118687746Y-53274714D01*
X118526137Y-53112823D01*
X118314876Y-53025100D01*
X118086127Y-53024900D01*
X117874714Y-53112254D01*
X117712823Y-53273863D01*
X117625100Y-53485124D01*
X117624900Y-53713873D01*
X88025000Y-53713873D01*
X88025000Y-52613873D01*
X135424900Y-52613873D01*
X135512254Y-52825286D01*
X135673863Y-52987177D01*
X135885124Y-53074900D01*
X136113873Y-53075100D01*
X136325286Y-52987746D01*
X136487177Y-52826137D01*
X136574900Y-52614876D01*
X136575100Y-52386127D01*
X136539514Y-52300000D01*
X170849042Y-52300000D01*
X170921356Y-52663549D01*
X171127291Y-52971751D01*
X171435493Y-53177686D01*
X171799042Y-53250000D01*
X172600958Y-53250000D01*
X172964507Y-53177686D01*
X173272709Y-52971751D01*
X173478644Y-52663549D01*
X173550958Y-52300000D01*
X173478644Y-51936451D01*
X173272709Y-51628249D01*
X172964507Y-51422314D01*
X172600958Y-51350000D01*
X171799042Y-51350000D01*
X171435493Y-51422314D01*
X171127291Y-51628249D01*
X170921356Y-51936451D01*
X170849042Y-52300000D01*
X136539514Y-52300000D01*
X136487746Y-52174714D01*
X136326137Y-52012823D01*
X136114876Y-51925100D01*
X135886127Y-51924900D01*
X135674714Y-52012254D01*
X135512823Y-52173863D01*
X135425100Y-52385124D01*
X135424900Y-52613873D01*
X88025000Y-52613873D01*
X88025000Y-51613873D01*
X117624900Y-51613873D01*
X117712254Y-51825286D01*
X117873863Y-51987177D01*
X118085124Y-52074900D01*
X118313873Y-52075100D01*
X118525286Y-51987746D01*
X118687177Y-51826137D01*
X118733792Y-51713873D01*
X167024900Y-51713873D01*
X167112254Y-51925286D01*
X167273863Y-52087177D01*
X167485124Y-52174900D01*
X167713873Y-52175100D01*
X167925286Y-52087746D01*
X168087177Y-51926137D01*
X168174900Y-51714876D01*
X168175100Y-51486127D01*
X168087746Y-51274714D01*
X167926137Y-51112823D01*
X167714876Y-51025100D01*
X167486127Y-51024900D01*
X167274714Y-51112254D01*
X167112823Y-51273863D01*
X167025100Y-51485124D01*
X167024900Y-51713873D01*
X118733792Y-51713873D01*
X118774900Y-51614876D01*
X118775100Y-51386127D01*
X118687746Y-51174714D01*
X118526137Y-51012823D01*
X118314876Y-50925100D01*
X118086127Y-50924900D01*
X117874714Y-51012254D01*
X117712823Y-51173863D01*
X117625100Y-51385124D01*
X117624900Y-51613873D01*
X88025000Y-51613873D01*
X88025000Y-50713873D01*
X118424900Y-50713873D01*
X118512254Y-50925286D01*
X118673863Y-51087177D01*
X118885124Y-51174900D01*
X119113873Y-51175100D01*
X119262053Y-51113873D01*
X124624900Y-51113873D01*
X124712254Y-51325286D01*
X124873863Y-51487177D01*
X125085124Y-51574900D01*
X125313873Y-51575100D01*
X125525286Y-51487746D01*
X125687177Y-51326137D01*
X125774900Y-51114876D01*
X125775100Y-50886127D01*
X125687746Y-50674714D01*
X125526137Y-50512823D01*
X125314876Y-50425100D01*
X125086127Y-50424900D01*
X124874714Y-50512254D01*
X124712823Y-50673863D01*
X124625100Y-50885124D01*
X124624900Y-51113873D01*
X119262053Y-51113873D01*
X119325286Y-51087746D01*
X119487177Y-50926137D01*
X119574900Y-50714876D01*
X119575100Y-50486127D01*
X119487746Y-50274714D01*
X119326137Y-50112823D01*
X119114876Y-50025100D01*
X118886127Y-50024900D01*
X118674714Y-50112254D01*
X118512823Y-50273863D01*
X118425100Y-50485124D01*
X118424900Y-50713873D01*
X88025000Y-50713873D01*
X88025000Y-46536667D01*
X88099706Y-46536667D01*
X88357970Y-47161715D01*
X88835770Y-47640350D01*
X89460366Y-47899704D01*
X90136667Y-47900294D01*
X90533321Y-47736400D01*
X92979544Y-47736400D01*
X92979544Y-49463600D01*
X93003949Y-49593302D01*
X93080603Y-49712425D01*
X93197563Y-49792341D01*
X93336400Y-49820456D01*
X95063600Y-49820456D01*
X95193302Y-49796051D01*
X95312425Y-49719397D01*
X95392341Y-49602437D01*
X95420456Y-49463600D01*
X95420456Y-48576224D01*
X95526400Y-48576224D01*
X95526400Y-48623776D01*
X95618780Y-49088201D01*
X95881855Y-49481921D01*
X96275575Y-49744996D01*
X96740000Y-49837376D01*
X97204425Y-49744996D01*
X97598145Y-49481921D01*
X97861220Y-49088201D01*
X97953600Y-48623776D01*
X97953600Y-48576224D01*
X97861220Y-48111799D01*
X97598145Y-47718079D01*
X97204425Y-47455004D01*
X96740000Y-47362624D01*
X96275575Y-47455004D01*
X95881855Y-47718079D01*
X95618780Y-48111799D01*
X95526400Y-48576224D01*
X95420456Y-48576224D01*
X95420456Y-47736400D01*
X95396051Y-47606698D01*
X95319397Y-47487575D01*
X95202437Y-47407659D01*
X95063600Y-47379544D01*
X93336400Y-47379544D01*
X93206698Y-47403949D01*
X93087575Y-47480603D01*
X93007659Y-47597563D01*
X92979544Y-47736400D01*
X90533321Y-47736400D01*
X90761715Y-47642030D01*
X91240350Y-47164230D01*
X91499704Y-46539634D01*
X91500143Y-46036224D01*
X92986400Y-46036224D01*
X92986400Y-46083776D01*
X93078780Y-46548201D01*
X93341855Y-46941921D01*
X93735575Y-47204996D01*
X94200000Y-47297376D01*
X94664425Y-47204996D01*
X95058145Y-46941921D01*
X95321220Y-46548201D01*
X95413600Y-46083776D01*
X95413600Y-46036224D01*
X95526400Y-46036224D01*
X95526400Y-46083776D01*
X95618780Y-46548201D01*
X95881855Y-46941921D01*
X96275575Y-47204996D01*
X96740000Y-47297376D01*
X97204425Y-47204996D01*
X97598145Y-46941921D01*
X97861220Y-46548201D01*
X97878343Y-46462117D01*
X98117012Y-46948604D01*
X98545593Y-47326019D01*
X98843571Y-47449435D01*
X98815575Y-47455004D01*
X98421855Y-47718079D01*
X98158780Y-48111799D01*
X98066400Y-48576224D01*
X98066400Y-48623776D01*
X98158780Y-49088201D01*
X98421855Y-49481921D01*
X98815575Y-49744996D01*
X99280000Y-49837376D01*
X99744425Y-49744996D01*
X100138145Y-49481921D01*
X100401220Y-49088201D01*
X100493600Y-48623776D01*
X100493600Y-48576224D01*
X100606400Y-48576224D01*
X100606400Y-48623776D01*
X100698780Y-49088201D01*
X100961855Y-49481921D01*
X101355575Y-49744996D01*
X101820000Y-49837376D01*
X102284425Y-49744996D01*
X102678145Y-49481921D01*
X102941220Y-49088201D01*
X102958343Y-49002117D01*
X103197012Y-49488604D01*
X103625593Y-49866019D01*
X103984095Y-50014503D01*
X104210000Y-49905008D01*
X104210000Y-48750000D01*
X104190000Y-48750000D01*
X104190000Y-48450000D01*
X104210000Y-48450000D01*
X104210000Y-48430000D01*
X104510000Y-48430000D01*
X104510000Y-48450000D01*
X104530000Y-48450000D01*
X104530000Y-48750000D01*
X104510000Y-48750000D01*
X104510000Y-49905008D01*
X104735905Y-50014503D01*
X105094407Y-49866019D01*
X105522988Y-49488604D01*
X105761657Y-49002117D01*
X105778780Y-49088201D01*
X106041855Y-49481921D01*
X106435575Y-49744996D01*
X106900000Y-49837376D01*
X107364425Y-49744996D01*
X107758145Y-49481921D01*
X108021220Y-49088201D01*
X108113600Y-48623776D01*
X108113600Y-48576224D01*
X108021220Y-48111799D01*
X107758145Y-47718079D01*
X107364425Y-47455004D01*
X106900000Y-47362624D01*
X106435575Y-47455004D01*
X106041855Y-47718079D01*
X105778780Y-48111799D01*
X105761657Y-48197883D01*
X105522988Y-47711396D01*
X105094407Y-47333981D01*
X104796429Y-47210565D01*
X104824425Y-47204996D01*
X105218145Y-46941921D01*
X105481220Y-46548201D01*
X105573600Y-46083776D01*
X105573600Y-46036224D01*
X105686400Y-46036224D01*
X105686400Y-46083776D01*
X105778780Y-46548201D01*
X106041855Y-46941921D01*
X106435575Y-47204996D01*
X106900000Y-47297376D01*
X107364425Y-47204996D01*
X107758145Y-46941921D01*
X108021220Y-46548201D01*
X108038343Y-46462117D01*
X108277012Y-46948604D01*
X108705593Y-47326019D01*
X109003571Y-47449435D01*
X108975575Y-47455004D01*
X108581855Y-47718079D01*
X108318780Y-48111799D01*
X108226400Y-48576224D01*
X108226400Y-48623776D01*
X108318780Y-49088201D01*
X108581855Y-49481921D01*
X108975575Y-49744996D01*
X109440000Y-49837376D01*
X109904425Y-49744996D01*
X110298145Y-49481921D01*
X110561220Y-49088201D01*
X110653600Y-48623776D01*
X110653600Y-48576224D01*
X110766400Y-48576224D01*
X110766400Y-48623776D01*
X110858780Y-49088201D01*
X111121855Y-49481921D01*
X111515575Y-49744996D01*
X111980000Y-49837376D01*
X112444425Y-49744996D01*
X112838145Y-49481921D01*
X113101220Y-49088201D01*
X113193600Y-48623776D01*
X113193600Y-48576224D01*
X113306400Y-48576224D01*
X113306400Y-48623776D01*
X113398780Y-49088201D01*
X113661855Y-49481921D01*
X114055575Y-49744996D01*
X114520000Y-49837376D01*
X114984425Y-49744996D01*
X115378145Y-49481921D01*
X115641220Y-49088201D01*
X115733600Y-48623776D01*
X115733600Y-48576224D01*
X115641220Y-48111799D01*
X115378145Y-47718079D01*
X114984425Y-47455004D01*
X114520000Y-47362624D01*
X114055575Y-47455004D01*
X113661855Y-47718079D01*
X113398780Y-48111799D01*
X113306400Y-48576224D01*
X113193600Y-48576224D01*
X113101220Y-48111799D01*
X112838145Y-47718079D01*
X112444425Y-47455004D01*
X111980000Y-47362624D01*
X111515575Y-47455004D01*
X111121855Y-47718079D01*
X110858780Y-48111799D01*
X110766400Y-48576224D01*
X110653600Y-48576224D01*
X110561220Y-48111799D01*
X110298145Y-47718079D01*
X109904425Y-47455004D01*
X109876429Y-47449435D01*
X110174407Y-47326019D01*
X110602988Y-46948604D01*
X110841657Y-46462117D01*
X110858780Y-46548201D01*
X111121855Y-46941921D01*
X111515575Y-47204996D01*
X111980000Y-47297376D01*
X112444425Y-47204996D01*
X112838145Y-46941921D01*
X113101220Y-46548201D01*
X113193600Y-46083776D01*
X113193600Y-46036224D01*
X113306400Y-46036224D01*
X113306400Y-46083776D01*
X113398780Y-46548201D01*
X113661855Y-46941921D01*
X114055575Y-47204996D01*
X114520000Y-47297376D01*
X114984425Y-47204996D01*
X115378145Y-46941921D01*
X115641220Y-46548201D01*
X115658343Y-46462117D01*
X115897012Y-46948604D01*
X116325593Y-47326019D01*
X116623571Y-47449435D01*
X116595575Y-47455004D01*
X116201855Y-47718079D01*
X115938780Y-48111799D01*
X115846400Y-48576224D01*
X115846400Y-48623776D01*
X115938780Y-49088201D01*
X116201855Y-49481921D01*
X116595575Y-49744996D01*
X117060000Y-49837376D01*
X117524425Y-49744996D01*
X117918145Y-49481921D01*
X118181220Y-49088201D01*
X118273600Y-48623776D01*
X118273600Y-48576224D01*
X118386400Y-48576224D01*
X118386400Y-48623776D01*
X118478780Y-49088201D01*
X118741855Y-49481921D01*
X119135575Y-49744996D01*
X119600000Y-49837376D01*
X120064425Y-49744996D01*
X120458145Y-49481921D01*
X120721220Y-49088201D01*
X120813600Y-48623776D01*
X120813600Y-48576224D01*
X120926400Y-48576224D01*
X120926400Y-48623776D01*
X121018780Y-49088201D01*
X121281855Y-49481921D01*
X121675575Y-49744996D01*
X122140000Y-49837376D01*
X122604425Y-49744996D01*
X122998145Y-49481921D01*
X123261220Y-49088201D01*
X123278343Y-49002117D01*
X123517012Y-49488604D01*
X123945593Y-49866019D01*
X124304095Y-50014503D01*
X124530000Y-49905008D01*
X124530000Y-48750000D01*
X124510000Y-48750000D01*
X124510000Y-48450000D01*
X124530000Y-48450000D01*
X124530000Y-48430000D01*
X124830000Y-48430000D01*
X124830000Y-48450000D01*
X124850000Y-48450000D01*
X124850000Y-48750000D01*
X124830000Y-48750000D01*
X124830000Y-49905008D01*
X125055905Y-50014503D01*
X125414407Y-49866019D01*
X125842988Y-49488604D01*
X126081657Y-49002117D01*
X126098780Y-49088201D01*
X126361855Y-49481921D01*
X126755575Y-49744996D01*
X127220000Y-49837376D01*
X127684425Y-49744996D01*
X128078145Y-49481921D01*
X128341220Y-49088201D01*
X128433600Y-48623776D01*
X128433600Y-48576224D01*
X128341220Y-48111799D01*
X128172639Y-47859499D01*
X128225286Y-47837746D01*
X128387177Y-47676137D01*
X128474900Y-47464876D01*
X128475100Y-47236127D01*
X128387746Y-47024714D01*
X128226137Y-46862823D01*
X128151660Y-46831898D01*
X128341220Y-46548201D01*
X128358343Y-46462117D01*
X128597012Y-46948604D01*
X129025593Y-47326019D01*
X129323571Y-47449435D01*
X129295575Y-47455004D01*
X128901855Y-47718079D01*
X128638780Y-48111799D01*
X128546400Y-48576224D01*
X128546400Y-48623776D01*
X128638780Y-49088201D01*
X128901855Y-49481921D01*
X129295575Y-49744996D01*
X129760000Y-49837376D01*
X130224425Y-49744996D01*
X130618145Y-49481921D01*
X130881220Y-49088201D01*
X130973600Y-48623776D01*
X130973600Y-48576224D01*
X131086400Y-48576224D01*
X131086400Y-48623776D01*
X131178780Y-49088201D01*
X131441855Y-49481921D01*
X131835575Y-49744996D01*
X132300000Y-49837376D01*
X132764425Y-49744996D01*
X133158145Y-49481921D01*
X133421220Y-49088201D01*
X133513600Y-48623776D01*
X133513600Y-48576224D01*
X133421220Y-48111799D01*
X133158145Y-47718079D01*
X132764425Y-47455004D01*
X132300000Y-47362624D01*
X131835575Y-47455004D01*
X131441855Y-47718079D01*
X131178780Y-48111799D01*
X131086400Y-48576224D01*
X130973600Y-48576224D01*
X130881220Y-48111799D01*
X130618145Y-47718079D01*
X130224425Y-47455004D01*
X130196429Y-47449435D01*
X130494407Y-47326019D01*
X130922988Y-46948604D01*
X131161657Y-46462117D01*
X131178780Y-46548201D01*
X131441855Y-46941921D01*
X131835575Y-47204996D01*
X132300000Y-47297376D01*
X132764425Y-47204996D01*
X133158145Y-46941921D01*
X133421220Y-46548201D01*
X133438343Y-46462117D01*
X133677012Y-46948604D01*
X134105593Y-47326019D01*
X134403571Y-47449435D01*
X134375575Y-47455004D01*
X133981855Y-47718079D01*
X133718780Y-48111799D01*
X133626400Y-48576224D01*
X133626400Y-48623776D01*
X133718780Y-49088201D01*
X133981855Y-49481921D01*
X134375575Y-49744996D01*
X134840000Y-49837376D01*
X135304425Y-49744996D01*
X135698145Y-49481921D01*
X135961220Y-49088201D01*
X136053600Y-48623776D01*
X136053600Y-48576224D01*
X136166400Y-48576224D01*
X136166400Y-48623776D01*
X136258780Y-49088201D01*
X136521855Y-49481921D01*
X136915575Y-49744996D01*
X137380000Y-49837376D01*
X137844425Y-49744996D01*
X138238145Y-49481921D01*
X138501220Y-49088201D01*
X138593600Y-48623776D01*
X138593600Y-48576224D01*
X138706400Y-48576224D01*
X138706400Y-48623776D01*
X138798780Y-49088201D01*
X139061855Y-49481921D01*
X139455575Y-49744996D01*
X139920000Y-49837376D01*
X140384425Y-49744996D01*
X140778145Y-49481921D01*
X141041220Y-49088201D01*
X141058343Y-49002117D01*
X141297012Y-49488604D01*
X141725593Y-49866019D01*
X142084095Y-50014503D01*
X142310000Y-49905008D01*
X142310000Y-48750000D01*
X142610000Y-48750000D01*
X142610000Y-49905008D01*
X142835905Y-50014503D01*
X143194407Y-49866019D01*
X143367179Y-49713873D01*
X167024900Y-49713873D01*
X167112254Y-49925286D01*
X167273863Y-50087177D01*
X167485124Y-50174900D01*
X167713873Y-50175100D01*
X167925286Y-50087746D01*
X168087177Y-49926137D01*
X168139553Y-49800000D01*
X170849042Y-49800000D01*
X170921356Y-50163549D01*
X171127291Y-50471751D01*
X171435493Y-50677686D01*
X171799042Y-50750000D01*
X172600958Y-50750000D01*
X172964507Y-50677686D01*
X173272709Y-50471751D01*
X173478644Y-50163549D01*
X173517474Y-49968334D01*
X176349853Y-49968334D01*
X176478985Y-50280857D01*
X176717885Y-50520174D01*
X177030183Y-50649852D01*
X177368334Y-50650147D01*
X177680857Y-50521015D01*
X177920174Y-50282115D01*
X178049852Y-49969817D01*
X178050147Y-49631666D01*
X177921015Y-49319143D01*
X177682115Y-49079826D01*
X177369817Y-48950148D01*
X177031666Y-48949853D01*
X176719143Y-49078985D01*
X176479826Y-49317885D01*
X176350148Y-49630183D01*
X176349853Y-49968334D01*
X173517474Y-49968334D01*
X173550958Y-49800000D01*
X173478644Y-49436451D01*
X173272709Y-49128249D01*
X172964507Y-48922314D01*
X172600958Y-48850000D01*
X171799042Y-48850000D01*
X171435493Y-48922314D01*
X171127291Y-49128249D01*
X170921356Y-49436451D01*
X170849042Y-49800000D01*
X168139553Y-49800000D01*
X168174900Y-49714876D01*
X168175100Y-49486127D01*
X168087746Y-49274714D01*
X167926137Y-49112823D01*
X167714876Y-49025100D01*
X167486127Y-49024900D01*
X167274714Y-49112254D01*
X167112823Y-49273863D01*
X167025100Y-49485124D01*
X167024900Y-49713873D01*
X143367179Y-49713873D01*
X143622988Y-49488604D01*
X143874515Y-48975907D01*
X143765905Y-48750000D01*
X142610000Y-48750000D01*
X142310000Y-48750000D01*
X142290000Y-48750000D01*
X142290000Y-48450000D01*
X142310000Y-48450000D01*
X142310000Y-48430000D01*
X142610000Y-48430000D01*
X142610000Y-48450000D01*
X143765905Y-48450000D01*
X143874515Y-48224093D01*
X143624204Y-47713873D01*
X156824900Y-47713873D01*
X156912254Y-47925286D01*
X157073863Y-48087177D01*
X157285124Y-48174900D01*
X157513873Y-48175100D01*
X157725286Y-48087746D01*
X157887177Y-47926137D01*
X157974900Y-47714876D01*
X157975100Y-47486127D01*
X157887746Y-47274714D01*
X157726137Y-47112823D01*
X157514876Y-47025100D01*
X157286127Y-47024900D01*
X157074714Y-47112254D01*
X156912823Y-47273863D01*
X156825100Y-47485124D01*
X156824900Y-47713873D01*
X143624204Y-47713873D01*
X143622988Y-47711396D01*
X143194407Y-47333981D01*
X142896429Y-47210565D01*
X142924425Y-47204996D01*
X143318145Y-46941921D01*
X143581220Y-46548201D01*
X143583514Y-46536667D01*
X176899706Y-46536667D01*
X177157970Y-47161715D01*
X177635770Y-47640350D01*
X178260366Y-47899704D01*
X178936667Y-47900294D01*
X179561715Y-47642030D01*
X180040350Y-47164230D01*
X180299704Y-46539634D01*
X180300294Y-45863333D01*
X180042030Y-45238285D01*
X179564230Y-44759650D01*
X178939634Y-44500296D01*
X178263333Y-44499706D01*
X177638285Y-44757970D01*
X177159650Y-45235770D01*
X176900296Y-45860366D01*
X176899706Y-46536667D01*
X143583514Y-46536667D01*
X143673600Y-46083776D01*
X143673600Y-46036224D01*
X143581220Y-45571799D01*
X143318145Y-45178079D01*
X142924425Y-44915004D01*
X142460000Y-44822624D01*
X141995575Y-44915004D01*
X141601855Y-45178079D01*
X141338780Y-45571799D01*
X141246400Y-46036224D01*
X141246400Y-46083776D01*
X141338780Y-46548201D01*
X141601855Y-46941921D01*
X141995575Y-47204996D01*
X142023571Y-47210565D01*
X141725593Y-47333981D01*
X141297012Y-47711396D01*
X141058343Y-48197883D01*
X141041220Y-48111799D01*
X140778145Y-47718079D01*
X140384425Y-47455004D01*
X139920000Y-47362624D01*
X139455575Y-47455004D01*
X139061855Y-47718079D01*
X138798780Y-48111799D01*
X138706400Y-48576224D01*
X138593600Y-48576224D01*
X138501220Y-48111799D01*
X138238145Y-47718079D01*
X137844425Y-47455004D01*
X137380000Y-47362624D01*
X136915575Y-47455004D01*
X136521855Y-47718079D01*
X136258780Y-48111799D01*
X136166400Y-48576224D01*
X136053600Y-48576224D01*
X135961220Y-48111799D01*
X135698145Y-47718079D01*
X135304425Y-47455004D01*
X135276429Y-47449435D01*
X135574407Y-47326019D01*
X136002988Y-46948604D01*
X136241657Y-46462117D01*
X136258780Y-46548201D01*
X136521855Y-46941921D01*
X136915575Y-47204996D01*
X137380000Y-47297376D01*
X137844425Y-47204996D01*
X138238145Y-46941921D01*
X138501220Y-46548201D01*
X138593600Y-46083776D01*
X138593600Y-46036224D01*
X138706400Y-46036224D01*
X138706400Y-46083776D01*
X138798780Y-46548201D01*
X139061855Y-46941921D01*
X139455575Y-47204996D01*
X139920000Y-47297376D01*
X140384425Y-47204996D01*
X140778145Y-46941921D01*
X141041220Y-46548201D01*
X141133600Y-46083776D01*
X141133600Y-46036224D01*
X141041220Y-45571799D01*
X140778145Y-45178079D01*
X140384425Y-44915004D01*
X139920000Y-44822624D01*
X139455575Y-44915004D01*
X139061855Y-45178079D01*
X138798780Y-45571799D01*
X138706400Y-46036224D01*
X138593600Y-46036224D01*
X138501220Y-45571799D01*
X138238145Y-45178079D01*
X137844425Y-44915004D01*
X137380000Y-44822624D01*
X136915575Y-44915004D01*
X136521855Y-45178079D01*
X136258780Y-45571799D01*
X136241657Y-45657883D01*
X136002988Y-45171396D01*
X135574407Y-44793981D01*
X135215905Y-44645497D01*
X134990000Y-44754992D01*
X134990000Y-45910000D01*
X135010000Y-45910000D01*
X135010000Y-46210000D01*
X134990000Y-46210000D01*
X134990000Y-46230000D01*
X134690000Y-46230000D01*
X134690000Y-46210000D01*
X134670000Y-46210000D01*
X134670000Y-45910000D01*
X134690000Y-45910000D01*
X134690000Y-44754992D01*
X134464095Y-44645497D01*
X134105593Y-44793981D01*
X133677012Y-45171396D01*
X133438343Y-45657883D01*
X133421220Y-45571799D01*
X133158145Y-45178079D01*
X132764425Y-44915004D01*
X132300000Y-44822624D01*
X131835575Y-44915004D01*
X131441855Y-45178079D01*
X131178780Y-45571799D01*
X131161657Y-45657883D01*
X130922988Y-45171396D01*
X130494407Y-44793981D01*
X130135905Y-44645497D01*
X129910000Y-44754992D01*
X129910000Y-45910000D01*
X129930000Y-45910000D01*
X129930000Y-46210000D01*
X129910000Y-46210000D01*
X129910000Y-46230000D01*
X129610000Y-46230000D01*
X129610000Y-46210000D01*
X129590000Y-46210000D01*
X129590000Y-45910000D01*
X129610000Y-45910000D01*
X129610000Y-44754992D01*
X129384095Y-44645497D01*
X129025593Y-44793981D01*
X128597012Y-45171396D01*
X128358343Y-45657883D01*
X128341220Y-45571799D01*
X128078145Y-45178079D01*
X127684425Y-44915004D01*
X127220000Y-44822624D01*
X126755575Y-44915004D01*
X126361855Y-45178079D01*
X126098780Y-45571799D01*
X126006400Y-46036224D01*
X126006400Y-46083776D01*
X126098780Y-46548201D01*
X126361855Y-46941921D01*
X126755575Y-47204996D01*
X127220000Y-47297376D01*
X127325064Y-47276477D01*
X127324970Y-47383504D01*
X127220000Y-47362624D01*
X126755575Y-47455004D01*
X126361855Y-47718079D01*
X126098780Y-48111799D01*
X126081657Y-48197883D01*
X125842988Y-47711396D01*
X125414407Y-47333981D01*
X125116429Y-47210565D01*
X125144425Y-47204996D01*
X125538145Y-46941921D01*
X125801220Y-46548201D01*
X125893600Y-46083776D01*
X125893600Y-46036224D01*
X125801220Y-45571799D01*
X125538145Y-45178079D01*
X125144425Y-44915004D01*
X124680000Y-44822624D01*
X124215575Y-44915004D01*
X123821855Y-45178079D01*
X123558780Y-45571799D01*
X123466400Y-46036224D01*
X123466400Y-46083776D01*
X123558780Y-46548201D01*
X123821855Y-46941921D01*
X124215575Y-47204996D01*
X124243571Y-47210565D01*
X123945593Y-47333981D01*
X123517012Y-47711396D01*
X123278343Y-48197883D01*
X123261220Y-48111799D01*
X122998145Y-47718079D01*
X122604425Y-47455004D01*
X122140000Y-47362624D01*
X121675575Y-47455004D01*
X121281855Y-47718079D01*
X121018780Y-48111799D01*
X120926400Y-48576224D01*
X120813600Y-48576224D01*
X120721220Y-48111799D01*
X120458145Y-47718079D01*
X120064425Y-47455004D01*
X119600000Y-47362624D01*
X119135575Y-47455004D01*
X118741855Y-47718079D01*
X118478780Y-48111799D01*
X118386400Y-48576224D01*
X118273600Y-48576224D01*
X118181220Y-48111799D01*
X117918145Y-47718079D01*
X117524425Y-47455004D01*
X117496429Y-47449435D01*
X117794407Y-47326019D01*
X118222988Y-46948604D01*
X118461657Y-46462117D01*
X118478780Y-46548201D01*
X118741855Y-46941921D01*
X119135575Y-47204996D01*
X119600000Y-47297376D01*
X120064425Y-47204996D01*
X120458145Y-46941921D01*
X120721220Y-46548201D01*
X120813600Y-46083776D01*
X120813600Y-46036224D01*
X120926400Y-46036224D01*
X120926400Y-46083776D01*
X121018780Y-46548201D01*
X121281855Y-46941921D01*
X121675575Y-47204996D01*
X122140000Y-47297376D01*
X122604425Y-47204996D01*
X122998145Y-46941921D01*
X123261220Y-46548201D01*
X123353600Y-46083776D01*
X123353600Y-46036224D01*
X123261220Y-45571799D01*
X122998145Y-45178079D01*
X122604425Y-44915004D01*
X122140000Y-44822624D01*
X121675575Y-44915004D01*
X121281855Y-45178079D01*
X121018780Y-45571799D01*
X120926400Y-46036224D01*
X120813600Y-46036224D01*
X120721220Y-45571799D01*
X120458145Y-45178079D01*
X120064425Y-44915004D01*
X119600000Y-44822624D01*
X119135575Y-44915004D01*
X118741855Y-45178079D01*
X118478780Y-45571799D01*
X118461657Y-45657883D01*
X118222988Y-45171396D01*
X117794407Y-44793981D01*
X117435905Y-44645497D01*
X117210000Y-44754992D01*
X117210000Y-45910000D01*
X117230000Y-45910000D01*
X117230000Y-46210000D01*
X117210000Y-46210000D01*
X117210000Y-46230000D01*
X116910000Y-46230000D01*
X116910000Y-46210000D01*
X116890000Y-46210000D01*
X116890000Y-45910000D01*
X116910000Y-45910000D01*
X116910000Y-44754992D01*
X116684095Y-44645497D01*
X116325593Y-44793981D01*
X115897012Y-45171396D01*
X115658343Y-45657883D01*
X115641220Y-45571799D01*
X115378145Y-45178079D01*
X114984425Y-44915004D01*
X114520000Y-44822624D01*
X114055575Y-44915004D01*
X113661855Y-45178079D01*
X113398780Y-45571799D01*
X113306400Y-46036224D01*
X113193600Y-46036224D01*
X113101220Y-45571799D01*
X112838145Y-45178079D01*
X112444425Y-44915004D01*
X111980000Y-44822624D01*
X111515575Y-44915004D01*
X111121855Y-45178079D01*
X110858780Y-45571799D01*
X110841657Y-45657883D01*
X110602988Y-45171396D01*
X110174407Y-44793981D01*
X109815905Y-44645497D01*
X109590000Y-44754992D01*
X109590000Y-45910000D01*
X109610000Y-45910000D01*
X109610000Y-46210000D01*
X109590000Y-46210000D01*
X109590000Y-46230000D01*
X109290000Y-46230000D01*
X109290000Y-46210000D01*
X109270000Y-46210000D01*
X109270000Y-45910000D01*
X109290000Y-45910000D01*
X109290000Y-44754992D01*
X109064095Y-44645497D01*
X108705593Y-44793981D01*
X108277012Y-45171396D01*
X108038343Y-45657883D01*
X108021220Y-45571799D01*
X107758145Y-45178079D01*
X107364425Y-44915004D01*
X106900000Y-44822624D01*
X106435575Y-44915004D01*
X106041855Y-45178079D01*
X105778780Y-45571799D01*
X105686400Y-46036224D01*
X105573600Y-46036224D01*
X105481220Y-45571799D01*
X105218145Y-45178079D01*
X104824425Y-44915004D01*
X104360000Y-44822624D01*
X103895575Y-44915004D01*
X103501855Y-45178079D01*
X103238780Y-45571799D01*
X103146400Y-46036224D01*
X103146400Y-46083776D01*
X103238780Y-46548201D01*
X103501855Y-46941921D01*
X103895575Y-47204996D01*
X103923571Y-47210565D01*
X103625593Y-47333981D01*
X103197012Y-47711396D01*
X102958343Y-48197883D01*
X102941220Y-48111799D01*
X102678145Y-47718079D01*
X102284425Y-47455004D01*
X101820000Y-47362624D01*
X101355575Y-47455004D01*
X100961855Y-47718079D01*
X100698780Y-48111799D01*
X100606400Y-48576224D01*
X100493600Y-48576224D01*
X100401220Y-48111799D01*
X100138145Y-47718079D01*
X99744425Y-47455004D01*
X99716429Y-47449435D01*
X100014407Y-47326019D01*
X100442988Y-46948604D01*
X100681657Y-46462117D01*
X100698780Y-46548201D01*
X100961855Y-46941921D01*
X101355575Y-47204996D01*
X101820000Y-47297376D01*
X102284425Y-47204996D01*
X102678145Y-46941921D01*
X102941220Y-46548201D01*
X103033600Y-46083776D01*
X103033600Y-46036224D01*
X102941220Y-45571799D01*
X102678145Y-45178079D01*
X102284425Y-44915004D01*
X101820000Y-44822624D01*
X101355575Y-44915004D01*
X100961855Y-45178079D01*
X100698780Y-45571799D01*
X100681657Y-45657883D01*
X100442988Y-45171396D01*
X100014407Y-44793981D01*
X99655905Y-44645497D01*
X99430000Y-44754992D01*
X99430000Y-45910000D01*
X99450000Y-45910000D01*
X99450000Y-46210000D01*
X99430000Y-46210000D01*
X99430000Y-46230000D01*
X99130000Y-46230000D01*
X99130000Y-46210000D01*
X99110000Y-46210000D01*
X99110000Y-45910000D01*
X99130000Y-45910000D01*
X99130000Y-44754992D01*
X98904095Y-44645497D01*
X98545593Y-44793981D01*
X98117012Y-45171396D01*
X97878343Y-45657883D01*
X97861220Y-45571799D01*
X97598145Y-45178079D01*
X97204425Y-44915004D01*
X96740000Y-44822624D01*
X96275575Y-44915004D01*
X95881855Y-45178079D01*
X95618780Y-45571799D01*
X95526400Y-46036224D01*
X95413600Y-46036224D01*
X95321220Y-45571799D01*
X95058145Y-45178079D01*
X94664425Y-44915004D01*
X94200000Y-44822624D01*
X93735575Y-44915004D01*
X93341855Y-45178079D01*
X93078780Y-45571799D01*
X92986400Y-46036224D01*
X91500143Y-46036224D01*
X91500294Y-45863333D01*
X91242030Y-45238285D01*
X90764230Y-44759650D01*
X90139634Y-44500296D01*
X89463333Y-44499706D01*
X88838285Y-44757970D01*
X88359650Y-45235770D01*
X88100296Y-45860366D01*
X88099706Y-46536667D01*
X88025000Y-46536667D01*
X88025000Y-46041860D01*
X88152583Y-45400459D01*
X88492194Y-44892194D01*
X89000460Y-44552582D01*
X89641860Y-44425000D01*
X178758140Y-44425000D01*
X179399541Y-44552583D01*
M02*
