G04 #@! TF.FileFunction,Soldermask,Top*
%FSLAX46Y46*%
G04 Gerber Fmt 4.6, Leading zero omitted, Abs format (unit mm)*
G04 Created by KiCad (PCBNEW 4.0.5+dfsg1-4) date Sun Dec 23 19:03:49 2018*
%MOMM*%
%LPD*%
G01*
G04 APERTURE LIST*
%ADD10C,0.100000*%
%ADD11R,2.950000X2.900000*%
%ADD12R,2.900000X2.950000*%
%ADD13R,1.600000X1.600000*%
%ADD14R,1.200000X1.300000*%
%ADD15R,1.750000X0.800000*%
%ADD16O,1.350000X1.650000*%
%ADD17O,1.950000X1.400000*%
%ADD18C,1.900000*%
%ADD19C,3.400000*%
%ADD20R,0.700000X1.400000*%
%ADD21R,2.050000X1.700000*%
%ADD22R,1.300000X1.200000*%
%ADD23R,1.600000X1.300000*%
%ADD24R,4.200000X2.400000*%
%ADD25R,1.900000X2.400000*%
%ADD26R,2.400000X4.200000*%
%ADD27R,2.400000X1.900000*%
%ADD28R,0.700000X3.000000*%
%ADD29O,1.900000X3.700000*%
%ADD30O,1.900000X2.700000*%
%ADD31R,1.000000X0.900000*%
%ADD32R,1.900000X1.400000*%
%ADD33C,3.100000*%
%ADD34R,2.127200X2.127200*%
%ADD35O,2.127200X2.127200*%
%ADD36R,1.400000X1.650000*%
%ADD37O,1.600000X2.350000*%
%ADD38O,2.350000X1.600000*%
%ADD39R,0.750000X2.400000*%
%ADD40R,4.900000X5.000000*%
%ADD41R,0.900000X1.000000*%
G04 APERTURE END LIST*
D10*
D11*
X159925000Y-104000000D03*
X154875000Y-104000000D03*
D12*
X152000000Y-99725000D03*
X152000000Y-94675000D03*
X178000000Y-62875000D03*
X178000000Y-67925000D03*
D11*
X166475000Y-70600000D03*
X171525000Y-70600000D03*
D12*
X163800000Y-96525000D03*
X163800000Y-91475000D03*
D13*
X114900000Y-97000000D03*
X112700000Y-97000000D03*
D14*
X162650000Y-101000000D03*
X164550000Y-101000000D03*
X163600000Y-99000000D03*
X112850000Y-104400000D03*
X114750000Y-104400000D03*
X113800000Y-102400000D03*
D15*
X175250000Y-76100000D03*
X175250000Y-75450000D03*
X175250000Y-74800000D03*
X175250000Y-74150000D03*
X175250000Y-73500000D03*
D16*
X175250000Y-77300000D03*
X175250000Y-72300000D03*
D17*
X177950000Y-78300000D03*
X177950000Y-71300000D03*
D18*
X167700000Y-88490000D03*
X167700000Y-91030000D03*
X167700000Y-93060000D03*
X167700000Y-95600000D03*
D19*
X170370000Y-85440000D03*
X170370000Y-99160000D03*
D20*
X137650000Y-102000000D03*
X138150000Y-102000000D03*
X138650000Y-102000000D03*
X139150000Y-102000000D03*
X139650000Y-102000000D03*
X140150000Y-102000000D03*
X140650000Y-102000000D03*
X141150000Y-102000000D03*
X141650000Y-102000000D03*
X142150000Y-102000000D03*
X142650000Y-102000000D03*
X143150000Y-102000000D03*
X143650000Y-102000000D03*
X144150000Y-102000000D03*
X144650000Y-102000000D03*
X145150000Y-102000000D03*
X145650000Y-102000000D03*
X146150000Y-102000000D03*
X146650000Y-102000000D03*
X147150000Y-102000000D03*
X147650000Y-102000000D03*
X148150000Y-102000000D03*
D21*
X135375000Y-103900000D03*
X150425000Y-103900000D03*
D14*
X114750000Y-93000000D03*
X112850000Y-93000000D03*
X113800000Y-95000000D03*
D22*
X167300000Y-75450000D03*
X167300000Y-77350000D03*
X169300000Y-76400000D03*
X110600000Y-102750000D03*
X110600000Y-100850000D03*
X108600000Y-101800000D03*
D23*
X114900000Y-100800000D03*
X112700000Y-100800000D03*
D24*
X158000000Y-93850000D03*
D25*
X158000000Y-100150000D03*
X160300000Y-100150000D03*
X155700000Y-100150000D03*
D26*
X166050000Y-64600000D03*
D27*
X172350000Y-64600000D03*
X172350000Y-62300000D03*
X172350000Y-66900000D03*
D28*
X129700000Y-96000000D03*
X129200000Y-96000000D03*
X128700000Y-96000000D03*
X128200000Y-96000000D03*
X127700000Y-96000000D03*
X127200000Y-96000000D03*
X126700000Y-96000000D03*
X126200000Y-96000000D03*
X125700000Y-96000000D03*
X125200000Y-96000000D03*
X124700000Y-96000000D03*
X124200000Y-96000000D03*
X123700000Y-96000000D03*
X123200000Y-96000000D03*
X122700000Y-96000000D03*
X122200000Y-96000000D03*
X121700000Y-96000000D03*
X121200000Y-96000000D03*
X120700000Y-96000000D03*
D29*
X117950000Y-96760000D03*
X132450000Y-96760000D03*
D30*
X117950000Y-102720000D03*
X132450000Y-102720000D03*
D31*
X114350000Y-105600000D03*
X113250000Y-105600000D03*
D32*
X172000000Y-75300000D03*
X172000000Y-77500000D03*
D33*
X89800000Y-104200000D03*
X178600000Y-104200000D03*
X178600000Y-46200000D03*
X89800000Y-46200000D03*
D34*
X94200000Y-48600000D03*
D35*
X94200000Y-46060000D03*
X96740000Y-48600000D03*
X96740000Y-46060000D03*
X99280000Y-48600000D03*
X99280000Y-46060000D03*
X101820000Y-48600000D03*
X101820000Y-46060000D03*
X104360000Y-48600000D03*
X104360000Y-46060000D03*
X106900000Y-48600000D03*
X106900000Y-46060000D03*
X109440000Y-48600000D03*
X109440000Y-46060000D03*
X111980000Y-48600000D03*
X111980000Y-46060000D03*
X114520000Y-48600000D03*
X114520000Y-46060000D03*
X117060000Y-48600000D03*
X117060000Y-46060000D03*
X119600000Y-48600000D03*
X119600000Y-46060000D03*
X122140000Y-48600000D03*
X122140000Y-46060000D03*
X124680000Y-48600000D03*
X124680000Y-46060000D03*
X127220000Y-48600000D03*
X127220000Y-46060000D03*
X129760000Y-48600000D03*
X129760000Y-46060000D03*
X132300000Y-48600000D03*
X132300000Y-46060000D03*
X134840000Y-48600000D03*
X134840000Y-46060000D03*
X137380000Y-48600000D03*
X137380000Y-46060000D03*
X139920000Y-48600000D03*
X139920000Y-46060000D03*
X142460000Y-48600000D03*
X142460000Y-46060000D03*
D13*
X114900000Y-99000000D03*
X112700000Y-99000000D03*
D36*
X163200000Y-50800000D03*
X165200000Y-50800000D03*
X163200000Y-55400000D03*
X165200000Y-55400000D03*
D31*
X160350000Y-52200000D03*
X159250000Y-52200000D03*
X160350000Y-47600000D03*
X159250000Y-47600000D03*
D14*
X168550000Y-46600000D03*
X166650000Y-46600000D03*
X167600000Y-48600000D03*
X164750000Y-46600000D03*
X162850000Y-46600000D03*
X163800000Y-48600000D03*
D23*
X160900000Y-53600000D03*
X158700000Y-53600000D03*
X160900000Y-49000000D03*
X158700000Y-49000000D03*
X158700000Y-50800000D03*
X160900000Y-50800000D03*
X158700000Y-55400000D03*
X160900000Y-55400000D03*
D37*
X177200000Y-54800000D03*
D38*
X172200000Y-57300000D03*
X172200000Y-59800000D03*
X172200000Y-52300000D03*
X172200000Y-49800000D03*
D39*
X110150000Y-88100000D03*
X94550000Y-88100000D03*
D40*
X93650000Y-72000000D03*
X158750000Y-72000000D03*
D39*
X94850000Y-79900001D03*
X95150000Y-88100000D03*
X95450000Y-79900001D03*
X95750000Y-88100000D03*
X96050000Y-79900001D03*
X96350000Y-88100000D03*
X96650000Y-79900001D03*
X96950000Y-88100000D03*
X97250000Y-79900001D03*
X97550000Y-88100000D03*
X97850000Y-79900001D03*
X98150000Y-88100000D03*
X98450000Y-79900001D03*
X98750000Y-88100000D03*
X99050000Y-79900001D03*
X99350000Y-88100000D03*
X99650000Y-79900001D03*
X99950000Y-88100000D03*
X100250000Y-79900001D03*
X100550000Y-88100000D03*
X100850000Y-79900001D03*
X101150000Y-88100000D03*
X101450000Y-79900001D03*
X101750000Y-88100000D03*
X102050000Y-79900001D03*
X102350000Y-88100000D03*
X102650000Y-79900001D03*
X102950000Y-88100000D03*
X103250000Y-79900001D03*
X103550000Y-88100000D03*
X103850000Y-79900001D03*
X104150000Y-88100000D03*
X104450000Y-79900001D03*
X104750000Y-88100000D03*
X105050000Y-79900001D03*
X105350000Y-88100000D03*
X105650000Y-79900001D03*
X105950000Y-88100000D03*
X106250000Y-79900001D03*
X110450000Y-79900001D03*
X110750000Y-88100000D03*
X111050000Y-79900001D03*
X111350000Y-88100000D03*
X111650000Y-79900001D03*
X111950000Y-88100000D03*
X112250000Y-79900001D03*
X112550000Y-88100000D03*
X112850000Y-79900001D03*
X113150000Y-88100000D03*
X113450000Y-79900001D03*
X113750000Y-88100000D03*
X114050000Y-79900001D03*
X114350000Y-88100000D03*
X114650000Y-79900001D03*
X114950000Y-88100000D03*
X115250000Y-79900001D03*
X115550000Y-88100000D03*
X115850000Y-79900001D03*
X116150000Y-88100000D03*
X116450000Y-79900001D03*
X116750000Y-88100000D03*
X117050000Y-79900001D03*
X117350000Y-88100000D03*
X117650000Y-79900001D03*
X117950000Y-88100000D03*
X118250000Y-79900001D03*
X118550000Y-88100000D03*
X118850000Y-79900001D03*
X119150000Y-88100000D03*
X119450000Y-79900001D03*
X119750000Y-88100000D03*
X120050000Y-79900001D03*
X120350000Y-88100000D03*
X120650000Y-79900001D03*
X120950000Y-88100000D03*
X121250000Y-79900001D03*
X121550000Y-88100000D03*
X121850000Y-79900001D03*
X122150000Y-88100000D03*
X122450000Y-79900001D03*
X122750000Y-88100000D03*
X123050000Y-79900001D03*
X123350000Y-88100000D03*
X123650000Y-79900001D03*
X123950000Y-88100000D03*
X124250000Y-79900001D03*
X124550000Y-88100000D03*
X124850000Y-79900001D03*
X125150000Y-88100000D03*
X125450000Y-79900001D03*
X125750000Y-88100000D03*
X126050000Y-79900001D03*
X126350000Y-88100000D03*
X126650000Y-79900001D03*
X126950000Y-88100000D03*
X127250000Y-79900001D03*
X127550000Y-88100000D03*
X127850000Y-79900001D03*
X128150000Y-88100000D03*
X128450000Y-79900001D03*
X128750000Y-88100000D03*
X129050000Y-79900001D03*
X129350000Y-88100000D03*
X129650000Y-79900001D03*
X129950000Y-88100000D03*
X130250000Y-79900001D03*
X130550000Y-88100000D03*
X130850000Y-79900001D03*
X131150000Y-88100000D03*
X131450000Y-79900001D03*
X131750000Y-88100000D03*
X132050000Y-79900001D03*
X132350000Y-88100000D03*
X132650000Y-79900001D03*
X132950000Y-88100000D03*
X133250000Y-79900001D03*
X133550000Y-88100000D03*
X133850000Y-79900001D03*
X134150000Y-88100000D03*
X134450000Y-79900001D03*
X134750000Y-88100000D03*
X135050000Y-79900001D03*
X135350000Y-88100000D03*
X135650000Y-79900001D03*
X135950000Y-88100000D03*
X136250000Y-79900001D03*
X136550000Y-88100000D03*
X136850000Y-79900001D03*
X137150000Y-88100000D03*
X137450000Y-79900001D03*
X137750000Y-88100000D03*
X138050000Y-79900001D03*
X138350000Y-88100000D03*
X138650000Y-79900001D03*
X138950000Y-88100000D03*
X139250000Y-79900001D03*
X139550000Y-88100000D03*
X139850000Y-79900001D03*
X140150000Y-88100000D03*
X140450000Y-79900001D03*
X140750000Y-88100000D03*
X141050000Y-79900001D03*
X141350000Y-88100000D03*
X141650000Y-79900001D03*
X141950000Y-88100000D03*
X142250000Y-79900001D03*
X142550000Y-88100000D03*
X142850000Y-79900001D03*
X143150000Y-88100000D03*
X143450000Y-79900001D03*
X143750000Y-88100000D03*
X144050000Y-79900001D03*
X144350000Y-88100000D03*
X144650000Y-79900001D03*
X144950000Y-88100000D03*
X145250000Y-79900001D03*
X145550000Y-88100000D03*
X145850000Y-79900001D03*
X146150000Y-88100000D03*
X146450000Y-79900001D03*
X146750000Y-88100000D03*
X147050000Y-79900001D03*
X147350000Y-88100000D03*
X147650000Y-79900001D03*
X147950000Y-88100000D03*
X148250000Y-79900001D03*
X148550000Y-88100000D03*
X148850000Y-79900001D03*
X149150000Y-88100000D03*
X149450000Y-79900001D03*
X149750000Y-88100000D03*
X150050000Y-79900001D03*
X150350000Y-88100000D03*
X150650000Y-79900001D03*
X150950000Y-88100000D03*
X151250000Y-79900001D03*
X151550000Y-88100000D03*
X151850000Y-79900001D03*
X152150000Y-88100000D03*
X152450000Y-79900001D03*
X152750000Y-88100000D03*
X153050000Y-79900001D03*
X153350000Y-88100000D03*
X153650000Y-79900001D03*
X153950000Y-88100000D03*
X154250000Y-79900001D03*
X154550000Y-88100000D03*
X154850000Y-79900001D03*
X155150000Y-88100000D03*
X155450000Y-79900001D03*
X155750000Y-88100000D03*
X156050000Y-79900001D03*
X156350000Y-88100000D03*
X156650000Y-79900001D03*
X156950000Y-88100000D03*
X157250000Y-79900001D03*
X157550000Y-88100000D03*
X157850000Y-79900001D03*
D41*
X166000000Y-76950000D03*
X166000000Y-75850000D03*
M02*
